<svg xmlns="http://www.w3.org/2000/svg" viewBox="0 0 32 32" width="32" height="32">
  <path fill="#0085ff" d="M6.936 1.902C10.605 4.666 14.551 10.268 16 13.275v7.941c0-.169-.065.022-.205.434-.756 2.228-3.709 10.923-10.462 3.972-3.556-3.66-1.91-7.32 4.563-8.425-3.702.632-7.865-.412-9.007-4.508C0.56 11.511 0 4.255 0 3.275 0-1.634 4.289-.091 6.936 1.902zm18.127 0c-3.67 2.764-7.616 8.366-9.065 11.372v7.941c0-.169.065.022.205.434.756 2.228 3.709 10.923 10.462 3.972 3.556-3.66 1.91-7.32-4.563-8.425 3.702.632 7.865-.412 9.007-4.508C31.44 11.511 32 4.255 32 3.275c0-4.909-4.289-3.366-6.936-1.372z"/>
</svg>
