<svg xmlns="http://www.w3.org/2000/svg" height="250" viewBox="0 0 250 250.00159" width="250"><g transform="matrix(1.25 0 0 -1.25 -1185.7 817.55)"><g><path d="m949.28 553.96c0-54.7 44.502-99.203 99.202-99.203 54.698 0 99.198 44.503 99.198 99.203 0 54.699-44.501 99.201-99.198 99.201-54.7 0-99.202-44.502-99.202-99.201" fill="#9e1b32"/><path d="m951.43 553.96c0 53.517 43.54 97.055 97.058 97.055 53.514 0 97.052-43.538 97.052-97.055 0-53.518-43.538-97.058-97.052-97.058-53.518 0-97.058 43.54-97.058 97.058" fill="#fff"/><path d="m954.47 553.96c0-51.839 42.174-94.014 94.013-94.014 51.838 0 94.009 42.176 94.009 94.014 0 51.837-42.172 94.012-94.009 94.012-51.839 0-94.013-42.174-94.013-94.012" fill="#9e1b32"/><path d="m955.59 553.96c0 51.225 41.675 92.898 92.9 92.898 51.224 0 92.896-41.674 92.896-92.898 0-51.225-41.672-92.901-92.896-92.901-51.225 0-92.9 41.676-92.9 92.901" fill="#fff"/><path d="m982.95 553.96c0-36.134 29.398-65.531 65.534-65.531 36.134 0 65.531 29.397 65.531 65.531s-29.397 65.531-65.531 65.531c-36.135 0-65.534-29.397-65.534-65.531" fill="#9e1b32"/><path d="m984.07 553.96c0 35.52 28.899 64.418 64.42 64.418 35.52 0 64.418-28.898 64.418-64.418s-28.898-64.418-64.418-64.418c-35.521 0-64.42 28.898-64.42 64.418" fill="#999"/><path d="m1093.3 598.57-0.1869 0.83894-44.63 0.0165-44.63-0.0165-0.1869-0.83894c-0.1373-0.61649-3.3176-15.429-0.066-44.518 3.0545-27.325 17.979-48.709 44.358-63.557l0.5262-0.29617 0.525 0.29617c26.38 14.848 41.305 36.232 44.358 63.557 3.2515 29.09 0.071 43.902-0.066 44.518" fill="#eeb310"/><path d="m1045.7 494.35c-22.64 13.771-35.916 32.824-39.499 56.727h39.499v-56.727z" fill="#a1d1f0"/><path d="m1091.5 556.85h-40.076v40.434s39.184-0.014 39.933-0.0153c0.375-2.1609 1.2953-8.5178 1.2953-18.917 0-5.8853-0.2962-13.066-1.1529-21.502" fill="#fff"/><path d="m121.38 70.945c-1.99 0-4.72 0.003-7.88 0.004l7.88 7.996v-8zm-20.66 0.008l20.66 20.975v-5.391l-15.34-15.584h-5.32zm-7.462 0.004c-1.813 0-3.597 0.002-5.315 0.002l33.437 33.961v-5.399l-28.122-28.564zm-12.779 0.004c-2.034 0.002-3.823 0.003-5.274 0.004l46.175 46.905v-5.35l-40.901-41.559zm-9.635 3.158c-0.174 1.336-0.36 2.989-0.53 4.961l41.756 42.41h5.41l-46.636-47.371zm-0.981 12.09c-0.068 1.629-0.117 3.381-0.144 5.25l29.564 30.031h5.317l-34.737-35.281zm-0.127 12.855c0.035 1.776 0.091 3.636 0.172 5.576l16.59 16.85h5.314l-22.076-22.426zm0.633 13.626c0.202 2.8 0.456 5.73 0.766 8.8h7.894l-8.66-8.8zm58.231 16.02v70.81c28.21-17.21 44.75-40.99 49.22-70.81h-49.22z" transform="matrix(.8 0 0 -.8 948.56 654.04)" fill="#9e1b32"/><path d="m1039.8 522.31c-0.333 1.1491-1.5825 4.3663-1.5825 4.3663-0.164 0.4093-0.5123 1.6639-0.5123 1.6639-4.2417-2.3084-4.8341-5.1417-4.8341-5.1417l-0.07-0.30252-1.7045-8.9944-1.7046 8.9944-0.07 0.30252s-0.5924 2.8333-4.8341 5.1417c0 0-0.3483-1.2546-0.5123-1.6639 0 0-1.2495-3.2172-1.5825-4.3663 0 0-1.458-3.1206 0.5618-8.097 0-0.0292-0.2758 4.2506 2.7406 9.1876 0 0 2.8244-5.4556 5.401-16.277 2.5765 10.821 5.4009 16.277 5.4009 16.277 3.0164-4.937 2.7406-9.2169 2.7406-9.1876 2.0198 4.9764 0.5618 8.097 0.5618 8.097" fill="#006f53"/><path d="m122.87 70.945v52.035h-51.581c0.061 0.56 0.122 1.13 0.186 1.7 0.095 0.85 0.203 1.69 0.318 2.53h51.077v73.3c0.68 0.4 1.35 0.8 2.04 1.19 0.74-0.42 1.47-0.85 2.2-1.28v-73.21h50.93c0.11-0.84 0.22-1.68 0.31-2.53 0.07-0.57 0.13-1.14 0.19-1.7h-51.43v-52.035h-2.2-2.04zm17.63 6.153c0.01 0-0.64 1.173-0.41 2.662-0.01 0.01 0.4 1.463-0.1 2.834 0 0-1.66 3.563-1.66 3.564 0-0.001 0.78-0.489 1.04-0.494 0 0-1.12 1.062-1.73 2.959 0 0 0.95-1.161 1.82-1.541 0.01 0.011-0.95 0.564-1.23 3.691-0.01 0-0.43 6.02-0.43 6.02s0.05-0.044-0.21 0.482c-0.16 0.325-0.68 1.197-1.63 3.515 0.01 0-1.65-1.218-1.3-3.47-0.02 0.012 1.2-6.177 1.2-6.177l0.86-4.641s1.18-4.07-1.85-8.15c0 0.025 0.58 1.818 0.31 3.634 0 0.021-0.58-1.347-0.7-1.437-0.02 0.024-0.09 2.961-0.78 5.517 0.03 0-0.55-1.167-0.53-1.437-0.02 0-1.28 3.232-0.58 8.767-0.02 0.043-0.71-0.459-0.77-0.564 0 0.184-0.12 1.998 0.91 4.377 0 0.022 0.37 0.721 0.37 0.721s0.15 0.254-0.04 0.433c0 0-0.25 0.174-0.61-0.185 0 0.001 0.75 2.212 3.15 3.832 0 0-0.21 0.97-0.02 1.71 0 0 0.55 2.78 0.5 3.08-0.01 0 0.22 1.85-2.07 3.65l2.01 8.55h4.07s0.17-1.11-0.96-1.48c0-0.01-1.01-0.29-1.01-0.29s-0.82-0.14-0.97-0.9c0 0-0.14-0.94-0.15-1.57 0 0.02-0.1-2.3-0.1-2.3s-0.04-0.84 0.42-1.48l3.03-4.24s0.84 0.6 0.87 0.68c0 0 0.29 0.3 0.22 0.76-0.01 0-0.6 3.83-0.73 4.16 0-0.01 4.28 6.66 4.28 6.66h3.95s0.03-0.93-0.68-1.37c-0.01 0-0.3-0.19-0.82-0.32-0.02 0-1.3-0.32-1.3-0.32s-0.64-0.09-0.9-0.76c0 0-0.57-1.21-0.96-2.5-0.32-1.05-0.7-1.59-0.2-2.74l1.59-3.8s0.46-0.95-0.13-2.01c0 0.01-0.7-1.28-2.07-2.93-0.01 0.02-1.03-1.51-1.03-1.51s-0.54-0.761 0.06-1.635c0 0 0.68-0.959 0.69-0.959 0 0 1.58-1.86 1.69-2.757 0-0.008-2.31-2.236-2.87-5.043 0 0-0.03-0.149-0.01-0.182 0.01-0.001 0.06 0.106 0.1 0.17 0 0.004 2.06 4.475 5.56 6.223-0.01 0.033 1.6-2.085 3.09-5.145l0.05-0.119 1.15-0.006c0.11 0.001 0.18 0.002 0.18 0.002s0.75-0.015 0.83-0.705c0 0.005-0.04-1.795 0-1.857h-0.01s-0.4 0.005-0.95 0.005c-0.66 0-1.23 0.206-1.68 0.735l-3.3 3.785c-0.18-0.54-2.08-5.283-3.09-6.371 0-0.01 0.15-2.602 0.15-2.602s0.42 0.358 0.55 0.442c0 0 0.51 0.462 1.48 0.015 0 0 0.59-0.277 1.66-0.277 0 0 0.73 0.028 1.17 0.229-0.02 0 0.57-0.893 0.57-0.893s0.08-0.084-0.08-0.143l-3.98-0.992 0.01-0.176 3.42-0.433s1.18-0.012 1.5-1.162c0.01 0-4.83-0.784-4.83-0.784l-0.17-0.64-3.63-0.024-1.13-2.002s-0.14-0.235-0.12-0.341zm27.52 0c0.01 0.106-0.12 0.341-0.12 0.341l-1.14 2.002-3.63 0.026-0.17 0.638s-4.84 0.784-4.83 0.784c0.32 1.15 1.5 1.162 1.5 1.162l3.42 0.433 0.02 0.176-3.99 0.992c-0.15 0.059-0.07 0.143-0.07 0.143s0.58 0.893 0.57 0.893c0.44-0.201 1.16-0.229 1.16-0.229 1.07 0 1.66 0.277 1.66 0.277 0.98 0.447 1.48-0.015 1.48-0.015 0.13-0.085 0.55-0.442 0.55-0.442s0.15 2.592 0.15 2.602c-1 1.088-2.91 5.831-3.08 6.371l-3.31-3.785c-0.45-0.529-1.02-0.735-1.68-0.735-0.55 0-0.95-0.005-0.95-0.005 0.03 0.062 0 1.862 0 1.857 0.08 0.688 0.82 0.705 0.82 0.705s0.07-0.001 0.18-0.002l1.15 0.006 0.05 0.119c1.49 3.06 3.11 5.18 3.09 5.147 3.51-1.748 5.57-6.222 5.57-6.227 0.03-0.062 0.08-0.17 0.09-0.168 0.02 0.033-0.01 0.182-0.01 0.182-0.55 2.807-2.87 5.035-2.87 5.043 0.12 0.897 1.69 2.757 1.69 2.757 0.02 0 0.69 0.959 0.69 0.959 0.6 0.874 0.06 1.635 0.06 1.635s-1.01 1.53-1.02 1.51c-1.37 1.65-2.07 2.94-2.07 2.93-0.59 1.05-0.13 2.01-0.13 2.01l1.59 3.8c0.49 1.15 0.11 1.69-0.2 2.74-0.39 1.29-0.97 2.5-0.97 2.5-0.26 0.67-0.9 0.76-0.9 0.76s-1.28 0.32-1.29 0.32c-0.53 0.13-0.82 0.32-0.83 0.32-0.71 0.44-0.67 1.37-0.67 1.37h3.95s4.28-6.67 4.28-6.66c-0.13-0.33-0.73-4.16-0.74-4.16-0.07-0.46 0.22-0.76 0.23-0.76 0.03-0.07 0.86-0.68 0.86-0.68l3.03 4.24c0.46 0.64 0.43 1.48 0.43 1.48s-0.1 2.32-0.1 2.3c-0.01 0.63-0.15 1.57-0.15 1.57-0.16 0.76-0.98 0.9-0.98 0.9s-1 0.28-1 0.29c-1.14 0.37-0.96 1.48-0.96 1.48h4.07l2.01-8.55c-2.29-1.8-2.06-3.65-2.07-3.65-0.06-0.3 0.5-3.08 0.5-3.08 0.19-0.74-0.03-1.71-0.03-1.71 2.4-1.62 3.15-3.831 3.15-3.832-0.35 0.359-0.6 0.185-0.6 0.185-0.2-0.179-0.05-0.433-0.05-0.433s0.37-0.699 0.37-0.721c1.03-2.379 0.91-4.193 0.92-4.377-0.06 0.103-0.75 0.607-0.77 0.564 0.7-5.535-0.57-8.767-0.59-8.767 0.03 0.27-0.55 1.437-0.53 1.437-0.68-2.556-0.75-5.493-0.77-5.517-0.13 0.09-0.71 1.458-0.71 1.437-0.26-1.816 0.32-3.609 0.32-3.634-3.03 4.08-1.86 8.15-1.86 8.15l0.87 4.641s1.22 6.188 1.19 6.177c0.35 2.252-1.3 3.47-1.29 3.47-0.96-2.318-1.48-3.19-1.64-3.515-0.26-0.526-0.2-0.482-0.2-0.482s-0.42-6.02-0.44-6.02c-0.28-3.127-1.24-3.68-1.23-3.691 0.87 0.38 1.83 1.541 1.83 1.541-0.62-1.897-1.74-2.959-1.74-2.959 0.27 0.005 1.05 0.493 1.05 0.494 0-0.001-1.67-3.564-1.67-3.564-0.5-1.371-0.09-2.825-0.1-2.834 0.23-1.489-0.41-2.662-0.4-2.662zm-25.17 3.099l2.44 0.153s-0.69 0.427-0.6 1.091c0.01-0.011-1.29-0.51-1.84-1.244zm22.82 0c-0.56 0.734-1.86 1.233-1.85 1.244 0.09-0.664-0.6-1.091-0.6-1.091l2.45-0.153zm-62.53 50.543l-0.1 0.04c-0.1 0.04-2.49 0.98-3.161 2.91-0.323 0.92-0.204 1.88 0.341 2.87 0.04 0.1 0.8 1.44 0.8 1.44s-0.07 0.05-0.07 0.06c-0.65-0.72-1.806-2.4-3.231-2.34-0.588 0.01-1.096 0.44-1.43 1.12-0.143 0.34-1.457 2.81-1.457 2.81s0.358 0.22 0.463 0.29c1.166 0.77 2.114 1.79 2.699 2.51 1.562 1.91 2.736 4.25 3.486 6.97-0.09-0.02-0.17-0.03-0.24-0.05 0 0-0.03-0.01-0.08-0.02-0.15-0.43-0.72-2.17-1.592-3.62-2.626-4.38-5.477-5.12-7.714-4.2-1.807 0.74-2.124 3.24-2.124 3.24-0.058 0.26-0.231 1.22-0.218 1.92 0.017 0.91 0.157 2.03 0.734 3.04 0.771 1.35 1.991 2.16 3.832 2.57 0.146 0.36 0.374 0.89 0.615 1.3-0.111 0.14-0.231 0.25-0.439 0.34-0.596 0.26-1.315-1.03-1.315-1.03-0.022-0.03-0.048-0.06-0.082-0.1 0 0-0.469-0.43-0.837 0.21-0.344 0.59-0.479 1.1-0.452 1.53 0.117 1.99 2.147 2.14 2.147 2.14 2.803 0.05 3.898-2.98 3.904-3.01l0.076-0.25-0.154-0.21c-0.945-1.29-1.071-3.07-1.055-3.36l0.018-0.51-0.443-0.06c-3.075-0.46-3.463-3.21-3.469-3.22 0 0-0.084-0.66 0.461-0.61 1.679 0.18 3.779 2.32 5.355 4.36-0.335 0.32-0.668 0.88-0.599 1.84 0.158 2.24 1.215 4.85 2.461 6.17l-0.03 0.01 0.77 6.09 2.13 11.24 2.14-11.24 0.77-6.09-0.03-0.01c1.25-1.32 2.3-3.93 2.46-6.17 0.07-0.96-0.26-1.52-0.6-1.84 1.58-2.04 3.68-4.18 5.36-4.36 0.54-0.05 0.46 0.61 0.46 0.61-0.02 0.01-0.4 2.76-3.47 3.22l-0.44 0.06 0.01 0.51c0.02 0.29-0.11 2.07-1.05 3.36l-0.15 0.21 0.07 0.25c0.01 0.03 1.1 3.06 3.91 3.01 0 0 2.03-0.15 2.14-2.14 0.03-0.43-0.11-0.94-0.45-1.53-0.37-0.64-0.84-0.21-0.84-0.21-0.03 0.04-0.06 0.07-0.08 0.1 0 0-0.72 1.29-1.31 1.03-0.21-0.09-0.33-0.2-0.44-0.34 0.24-0.41 0.47-0.94 0.61-1.3 1.85-0.41 3.06-1.22 3.83-2.57 0.58-1.01 0.72-2.13 0.74-3.04 0.01-0.7-0.16-1.66-0.22-1.92 0 0-0.32-2.5-2.12-3.24-2.24-0.92-5.09-0.18-7.72 4.2-0.87 1.45-1.44 3.19-1.59 3.62-0.05 0.01-0.08 0.02-0.08 0.02-0.07 0.02-0.15 0.03-0.24 0.05 0.75-2.72 1.93-5.06 3.49-6.97 0.58-0.72 1.53-1.74 2.7-2.51 0.1-0.07 0.46-0.29 0.46-0.29s-1.31-2.47-1.46-2.81c-0.33-0.68-0.84-1.11-1.43-1.12-1.42-0.06-2.58 1.62-3.23 2.34 0-0.01-0.07-0.06-0.07-0.06s0.77-1.34 0.81-1.44c0.54-0.99 0.65-1.95 0.33-2.87-0.67-1.93-3.06-2.87-3.16-2.91l-0.11-0.04zm44.63 33.88l-1.86 2.28h0.99l0.87 4.77 0.87-4.77h1l-1.87-2.28zm-5.49 3.32l0.2 3.11 0.68-0.83 3.67 2.53-2.49-3.97 0.67-0.83-2.73-0.01zm8.26 0.01l0.67 0.83-2.5 3.97 3.68-2.52 0.67 0.82 0.22-3.1h-2.74z" transform="matrix(.8 0 0 -.8 948.56 654.04)" fill="#999"/><path d="m103.15 131.86c-0.57 0.27-1.92 1.02-2.33 2.19-0.08 0.22-0.1 0.45-0.11 0.68-0.04 0.68 0.55 1.68 0.55 1.68 0.18 0.36 0.5 0.98 0.8 1.55l-1.46 1.12s-1.306-1.86-2.407-2.23c0 0-0.686-0.28-0.943 0.29 0 0-0.99 1.92-1.107 2.13 1.625 1.19 4.867 4.23 6.427 10.35h0.02v-7.42h1.12v7.42h0.01c1.57-6.12 4.81-9.16 6.43-10.35-0.11-0.21-1.1-2.13-1.1-2.13h-0.01c-0.25-0.57-0.94-0.29-0.94-0.29-1.1 0.37-2.41 2.23-2.41 2.23l-1.46-1.12c0.3-0.57 0.62-1.19 0.8-1.55 0 0 0.59-1 0.56-1.68-0.02-0.23-0.05-0.46-0.12-0.68-0.41-1.17-1.76-1.92-2.32-2.19zm-9.982 10.32c-0.344 0.02-0.686 0.12-1.158 0.35-0.976 0.48-1.309 2.53-1.311 2.53-0.082 0.37-0.185 0.96-0.185 1.64 0 0.8 0.141 1.72 0.623 2.54 0.651 1.11 1.689 1.91 3.681 2.25 0 0 0.64 1.74 1.129 2.17-0.202 0.37-0.689 0.98-1.275 1.23-0.744 0.33-1.528 0.09-2.049-0.69-0.016 0.08-0.053 0.26-0.047 0.34 0.06 0.92 0.974 1.1 1.363 1.09 1.507-0.08 2.346-1.46 2.627-2.04-0.533-0.84-0.803-1.75-0.931-2.4-0.083-0.4-0.123-0.73-0.137-0.96-2.266-0.5-3.44-2.15-3.816-3.66 0 0-0.691-2.26 1.474-2.14 1.885 0.09 4.558 2.8 6.162 4.91 0.172-0.04 0.415-0.08 0.702-0.1-0.84-3.34-3.75-6.54-5.68-6.92-0.48-0.1-0.828-0.16-1.172-0.14zm19.952 0c-0.34-0.02-0.69 0.04-1.17 0.14-1.93 0.38-4.84 3.58-5.68 6.92 0.29 0.02 0.53 0.06 0.7 0.1 1.61-2.11 4.28-4.82 6.16-4.91 2.17-0.12 1.48 2.14 1.48 2.14-0.38 1.51-1.55 3.16-3.82 3.66-0.01 0.23-0.05 0.56-0.13 0.96-0.13 0.65-0.4 1.56-0.93 2.4 0.28 0.58 1.12 1.96 2.62 2.04 0.39 0.01 1.3-0.17 1.37-1.09 0-0.08-0.03-0.26-0.05-0.34-0.52 0.78-1.31 1.02-2.05 0.69-0.59-0.25-1.07-0.86-1.27-1.23 0.48-0.43 1.12-2.17 1.12-2.17 1.99-0.34 3.03-1.14 3.68-2.25 0.49-0.82 0.63-1.74 0.63-2.54 0-0.68-0.1-1.27-0.18-1.64-0.01 0-0.34-2.05-1.32-2.53-0.47-0.23-0.81-0.33-1.16-0.35zm-13.08 8.07c-1.324 0.02-1.228 1.19-1.228 1.41 0 2.64 2.088 5.38 2.088 5.38 0.22 0.31 0.42 0.52 0.67 0.56 0.5 0.09 1.11-0.35 1.31-0.53l0.27-0.25 0.27 0.25c0.19 0.18 0.81 0.62 1.3 0.53 0.25-0.04 0.45-0.25 0.67-0.56 0 0 2.09-2.74 2.09-5.38 0-0.25 0.12-1.74-1.89-1.35-1.62 0.38-2.34 0.4-2.44 0.39-0.11 0-0.83-0.01-2.45-0.39-0.25-0.05-0.47-0.07-0.66-0.06zm3.11 7.94c-0.41 0.3-1.07 0.65-1.74 0.44-0.02-0.01-0.04-0.01-0.06-0.02l1.8 16.56 1.79-16.56c-0.01 0.01-0.04 0.01-0.05 0.02-0.67 0.21-1.34-0.14-1.74-0.44z" transform="matrix(.8 0 0 -.8 948.56 654.04)" fill="#fff"/><path d="m152.72 70.947v1.084c0 0.148-0.02 0.354 0.16 0.354h0.56c0.17 0 0.31-0.123 0.31-0.278 0-0.149-0.14-0.271-0.31-0.271h-0.14v-0.889h-0.58zm2.41 0v0.889h-0.14c-0.17 0-0.32 0.122-0.32 0.271 0 0.155 0.15 0.278 0.32 0.278h0.55c0.18 0 0.17-0.206 0.17-0.354v-1.084h-0.58zm-0.9 0.598c-0.16 0-0.28 0.12-0.28 0.271v1.438c0 0.157 0.12 0.275 0.28 0.275s0.29-0.118 0.29-0.275v-1.438c0-0.151-0.13-0.271-0.29-0.271zm-1.35 1.301c-0.18 0-0.16 0.204-0.16 0.355v1.516c0 0.148-0.02 0.351 0.16 0.351h0.56c0.17 0 0.31-0.121 0.31-0.275 0-0.149-0.14-0.273-0.31-0.273h-0.14v-1.127l0.14 0.002c0.17 0 0.31-0.125 0.31-0.278 0-0.148-0.14-0.271-0.31-0.271h-0.56zm2.11 0c-0.18 0-0.32 0.122-0.32 0.271 0 0.153 0.14 0.278 0.32 0.278l0.14-0.002v1.127h-0.14c-0.18 0-0.32 0.124-0.32 0.273 0 0.153 0.14 0.275 0.32 0.275h0.55c0.18 0 0.17-0.203 0.17-0.351v-1.514c0-0.151 0.01-0.355-0.17-0.355v-0.002h-0.55zm-0.76 1.42c-0.16 0-0.28 0.121-0.28 0.277v1.436c0 0.152 0.12 0.275 0.28 0.275s0.29-0.123 0.29-0.275v-1.436c0-0.156-0.13-0.277-0.29-0.277zm-1.35 1.154c-0.18 0-0.16 0.202-0.16 0.353v1.514c0 0.149-0.02 0.354 0.16 0.354h0.56c0.17 0 0.31-0.121 0.31-0.272 0-0.152-0.14-0.275-0.31-0.275h-0.14v-1.129l0.14 0.002c0.17 0 0.31-0.123 0.31-0.274 0-0.149-0.14-0.273-0.31-0.273h-0.56zm2.11 0c-0.18 0-0.32 0.126-0.32 0.273 0 0.153 0.14 0.274 0.32 0.274h0.14v1.127h-0.14c-0.18 0-0.32 0.123-0.32 0.275 0 0.151 0.14 0.272 0.32 0.272h0.55c0.18 0 0.17-0.205 0.17-0.354v-1.514c0-0.151 0.01-0.353-0.17-0.353h-0.55zm-0.76 1.457c-0.16 0-0.28 0.123-0.28 0.277v1.44c0 0.149 0.12 0.269 0.28 0.269s0.29-0.12 0.29-0.269v-1.44c0-0.154-0.13-0.277-0.29-0.277zm-1.35 1.271c-0.18 0-0.16 0.207-0.16 0.36v1.513c0 0.148-0.02 0.35 0.16 0.35h0.56c0.17 0 0.31-0.119 0.31-0.273 0-0.15-0.14-0.272-0.31-0.272h-0.14v-1.127h0.14c0.17 0 0.31-0.122 0.31-0.271 0-0.158-0.14-0.28-0.31-0.28h-0.56zm2.11 0c-0.18 0-0.32 0.124-0.32 0.282 0 0.147 0.14 0.269 0.32 0.269h0.14v1.127h-0.14c-0.18 0-0.32 0.122-0.32 0.272 0 0.152 0.14 0.273 0.32 0.273h0.55c0.18 0 0.17-0.2 0.17-0.35v-1.515c0-0.151 0.01-0.358-0.17-0.358h-0.55zm-0.76 1.348c-0.16 0-0.28 0.125-0.28 0.277v1.438c0 0.152 0.12 0.273 0.28 0.273s0.29-0.121 0.29-0.273v-1.438c0-0.152-0.13-0.277-0.29-0.277zm-1.35 1.309c-0.18 0-0.16 0.202-0.16 0.351v1.518c0 0.148-0.02 0.351 0.16 0.351h0.56c0.17 0 0.31-0.124 0.31-0.277 0-0.148-0.14-0.269-0.31-0.269l-0.14 0.001v-1.13h0.14v0.002c0.17 0 0.31-0.125 0.31-0.274 0-0.152-0.14-0.273-0.31-0.273h-0.56zm2.11 0c-0.18 0-0.32 0.121-0.32 0.275 0 0.148 0.14 0.27 0.32 0.27h0.14v1.13h-0.14c-0.18 0-0.32 0.12-0.32 0.268 0 0.153 0.14 0.277 0.32 0.277h0.55c0.18 0 0.17-0.202 0.17-0.351v-1.518c0-0.148 0.01-0.351-0.17-0.351h-0.55zm-0.76 1.381c-0.16 0-0.28 0.122-0.28 0.275v1.437c0 0.151 0.12 0.274 0.28 0.274s0.29-0.123 0.29-0.274v-1.437c0-0.153-0.13-0.275-0.29-0.275zm-1.35 1.304c-0.18 0-0.16 0.206-0.16 0.356v1.513c0 0.151-0.02 0.352 0.16 0.352h0.56c0.17 0 0.31-0.119 0.31-0.273 0-0.15-0.14-0.272-0.31-0.272h-0.14v-1.129h0.14v0.002c0.17 0 0.31-0.124 0.31-0.273 0-0.153-0.14-0.276-0.31-0.276h-0.56zm2.11 0c-0.18 0-0.32 0.123-0.32 0.276 0 0.149 0.14 0.273 0.32 0.273l0.14-0.002v1.129h-0.14c-0.18 0-0.32 0.122-0.32 0.272 0 0.154 0.14 0.273 0.32 0.273h0.55c0.18 0 0.17-0.201 0.17-0.352v-1.513c0-0.15 0.01-0.356-0.17-0.356h-0.55zm-0.73 1.383c-0.16 0-0.29 0.121-0.29 0.273v0.848c-1.72 0.132-3.09 1.434-3.17 3.045v6.568h-1.64v3.52c-1.32 1.363-1.99 2.963-1.99 4.553 0 1.61 0.68 3.2 2.04 4.53 0.91 0.9 2.05 1.53 3.28 1.84h-2.82v1.06h9.17v-1.06h-2.82c1.24-0.31 2.37-0.94 3.29-1.84 1.35-1.33 2.03-2.92 2.03-4.53 0-1.59-0.67-3.19-1.98-4.553v-3.52h-1.65v-6.568c-0.08-1.611-1.45-2.913-3.17-3.045v-0.848c0-0.152-0.12-0.273-0.28-0.273zm0 2.17c1.02 0 2.17 0.666 2.3 1.996v6.568h-4.61v-4.068-2.5c0.14-1.33 1.28-1.996 2.31-1.996zm7.03 41.707l-10.08 7.14c1.81 0.78 3.46 2.2 4.85 4.12l5.23-11.26zm-10.08 7.14l-3.2-7.07-3.2 7.07h0.01c1.01-0.44 2.09-0.67 3.19-0.67s2.18 0.23 3.2 0.67zm-6.4 0l-10.18-7.02 5.33 11.14c1.39-1.91 3.03-3.33 4.84-4.11v-0.01h0.01zm30.39-6.26l-19.13 10.4c1.16 1.61 2.14 3.56 2.88 5.75l16.25-16.15zm-46.35 7.9l8.22 8.26c0.73-2.2 1.71-4.14 2.87-5.75l-11.09-2.51zm18.3 0.2v3.16h-2.67v1.18h2.67v7.48h1.18v-7.48h2.66v-1.18h-2.66v-3.16h-1.18zm27.06 5.44l-15.26 2.63c0.64 1.93 1.1 4.06 1.33 6.31l13.93-8.94zm-37.14 2.63l-8.21 1.5 6.88 4.81c0.23-2.25 0.68-4.37 1.33-6.31zm3.36 3.75v14.22h1.22v-14.22h-1.22zm4.05 0v14.22h1.22v-7.33h4.07v7.33h1.22v-14.22h-1.22v5.68h-4.07v-5.68h-1.22zm11.89 0.03c-2.19-0.15-3.56 1.61-3.66 3.48-0.13 2 0.99 2.91 1.98 3.85 1.04 1.01 2.2 1.79 2.1 3.41-0.11 1.73-1.66 2.28-2.93 2.2-0.01 0-0.1 0.01-0.13 0.01v1.24h0.02c2.01 0.13 4.26-0.77 4.31-3.6 0.04-1.93-1.09-2.79-2.18-3.83-1.01-0.95-2.03-1.76-1.93-3.39 0.07-1.18 1.22-2.2 2.42-2.13v-1.24zm3.91 2.54c0.1 1.05 0.15 2.13 0.15 3.22 0 1.12-0.05 2.21-0.16 3.28l9.36-3.31-9.35-3.19zm-24.54 0.01l-6.89 3.21 6.9 3.28c-0.11-1.07-0.17-2.16-0.17-3.28 0-1.09 0.06-2.17 0.16-3.21zm0.01 6.51l-6.93 5.73 8.27 0.58c-0.65-1.94-1.11-4.06-1.34-6.31zm24.52 0c-0.23 2.25-0.69 4.37-1.34 6.31l6.71-1.88-5.37-4.43zm-23.18 6.31l-8.26 10.36 11.15-4.61c-1.17-1.61-2.15-3.55-2.89-5.75zm21.84 0.01c-0.74 2.19-1.72 4.13-2.89 5.74l5.03-0.96-2.14-4.78zm-18.95 5.75l-10.16 26 15.03-21.89v-0.01c-1.82-0.77-3.47-2.2-4.86-4.1h-0.01zm16.05 0c-1.39 1.91-3.04 3.33-4.86 4.1v0.01l5.12 1.49-0.26-5.6zm-11.17 4.11l2.48 10.55 3.83-10.55h-0.02c-1 0.42-2.05 0.65-3.14 0.65s-2.15-0.23-3.15-0.65z" transform="matrix(.8 0 0 -.8 948.56 654.04)" fill="#eeb310"/><path d="m127.29 14.795c-0.86-0.022-1.6 0.349-1.62 1.309-0.03 1.193 0.61 1.367 1.29 1.384 0.65 0.016 1.29 0.084 1.27 1.121-0.04 1.427-1.35 2.12-2.56 2.479l0.25 0.629c1.98-0.521 3.65-1.803 3.71-4.008 0.03-1.452-0.74-2.873-2.34-2.914zm30.5 4.588l-0.25 0.627c1.27 0.537 2.17 0.929 1.49 2.613l-3.54 8.787c-1.57 4.12 0.04 7.005 4.01 8.604 4.23 1.706 7.27 0.075 8.59-3.2l2.79-6.929c1.18-2.937 1.53-3.885 3.46-3.11l0.25-0.627c-0.82-0.328-1.63-0.601-2.45-0.931-1.01-0.407-2.01-0.838-3.01-1.27l-0.25 0.627c2.11 0.934 2.28 0.921 0.69 4.867l-2.76 6.86c-0.67 1.66-2.29 4.588-6.29 2.978-3.75-1.512-3.58-4.658-2.43-7.521l3.3-8.186c0.68-1.684 1.6-1.339 2.89-0.849l0.25-0.625c-1.21-0.461-2.33-0.884-3.44-1.33-1.08-0.436-2.18-0.905-3.3-1.385zm-35.94 0.549c-0.98 0.125-1.99 0.251-2.97 0.353-1.03 0.105-2.12 0.19-3.07 0.262l0.07 0.67c1.13-0.116 1.91-0.117 2.02 0.941l0.4 3.899-7.05 0.718-0.39-3.898c-0.11-1.06 0.65-1.216 1.79-1.332l-0.07-0.67c-0.95 0.122-2.03 0.258-3.07 0.363-0.98 0.1-1.99 0.179-2.97 0.252l0.07 0.672c1.21-0.124 1.92-0.039 2.02 0.942l0.92 9.033c0.1 0.98-0.58 1.207-1.79 1.33l0.07 0.672c0.98-0.126 1.98-0.254 2.96-0.354 1.03-0.105 2.12-0.188 3.08-0.262l-0.07-0.671c-1.14 0.116-1.92 0.118-2.02-0.94l-0.44-4.31 7.04-0.719 0.44 4.31c0.11 1.059-0.66 1.214-1.79 1.33l0.07 0.672c0.95-0.124 2.03-0.26 3.06-0.365 0.98-0.1 1.99-0.177 2.98-0.252l-0.07-0.67c-1.21 0.124-1.93 0.039-2.03-0.941l-0.92-9.035c-0.1-0.981 0.58-1.206 1.8-1.33l-0.07-0.67zm15.78 0.767c-1.83 0.098-3.18 1.36-3.37 2.891-0.26 2.008 0.36 3.082 3 4.914 1.61 1.123 2.11 1.869 1.97 2.924-0.1 0.797-0.73 2.076-2.71 1.82-1.88-0.241-2.56-1.297-2.84-3.166l-0.59-0.076 0.03 2.777c0.92 0.59 1.92 0.955 3.1 1.108 2.65 0.341 4.75-0.879 5.01-2.938 0.21-1.621-0.16-2.768-2.72-4.459-2.31-1.528-2.64-2.066-2.47-3.303 0.15-1.183 1.16-1.94 2.5-1.767 1.7 0.219 2.13 1.371 2.27 2.437l0.54 0.071 0.1-2.551c-0.85-0.137-2.03-0.525-3-0.651-0.28-0.036-0.56-0.045-0.82-0.031zm-37.784 2.627c-0.496 0.008-1.015 0.093-1.534 0.236-1.35 0.374-2.461 0.736-3.587 1.047-0.951 0.263-1.933 0.508-2.889 0.745l0.18 0.652c1.174-0.326 1.89-0.362 2.154 0.588l2.42 8.754c0.264 0.95-0.369 1.285-1.545 1.609l0.18 0.652c0.942-0.289 1.911-0.583 2.861-0.845 0.999-0.278 2.054-0.543 2.994-0.774l-0.18-0.65c-1.178 0.324-1.894 0.36-2.158-0.59l-2.705-9.777c0.237-0.119 0.578-0.242 1.004-0.358 1.9-0.526 3.319 0.106 3.919 2.281 0.29 1.051 0.51 2.714-1.495 3.268-0.25 0.068-0.622 0.09-0.721 0.117l0.18 0.653c0.106-0.004 0.396-0.031 0.871-0.163 1.625-0.449 4.125-2.134 3.365-4.861-0.53-1.932-1.83-2.608-3.314-2.584zm-13.92 4.227c-1.907 0.883-3.861 1.789-5.803 2.66-1.066 0.478-2.143 0.932-3.219 1.387l0.278 0.617c1.112-0.501 1.815-0.646 2.218 0.254l3.719 8.287c0.405 0.899-0.171 1.327-1.283 1.826l0.275 0.617c1.505-0.704 3.033-1.419 4.549-2.099 1.705-0.765 3.395-1.495 5.11-2.237l-0.446-2.957-0.592 0.266c-0.222 1.976-0.249 2.359-2.64 3.431-1.966 0.882-2.703 0.758-3.16-0.259l-1.551-3.455 1.965-0.883c1.396-0.628 1.768-0.622 2.353 0.68l0.613-0.278c-0.32-0.651-0.641-1.304-0.927-1.943-0.288-0.639-0.55-1.288-0.803-1.914l-0.615 0.275c0.732 1.632 0.223 1.891-0.961 2.422l-1.965 0.883-2.008-4.475 1.75-0.787c2.439-1.095 2.905-1.133 3.912 0.35l0.498-0.223-1.267-2.445zm89.934 5.511l-0.37 0.567c0.44 0.281 1.72 1.17 1.08 2.15l-3.91 6.059c-1.02 1.57-1.59 2.462-3.38 1.306l-0.37 0.567c0.76 0.456 1.51 0.915 2.25 1.394s1.56 1.036 2.26 1.522l0.37-0.567c-1.64-1.056-1.61-1.566-0.6-3.136l3.76-5.817 1.82 13.346 0.52 0.338 5.97-9.238c0.71-1.09 1.21-0.823 2.24-0.16l0.37-0.569c-0.65-0.386-1.36-0.814-1.99-1.224-0.7-0.45-1.45-0.964-2.13-1.438l-0.37 0.566c1.15 0.747 1.73 1.15 0.76 2.653l-3.69 5.709-1.6-12.098c-0.48-0.273-1.04-0.605-1.49-0.9-0.5-0.324-0.99-0.67-1.5-1.03zm-104.13 1.442c-0.738 0.434-1.898 0.886-2.732 1.41-1.912 1.201-2.349 3.378-1.41 4.873 1.077 1.713 2.238 2.146 5.441 1.879 1.955-0.156 2.82 0.097 3.387 0.998 0.427 0.682 0.749 2.072-0.941 3.135-1.605 1.009-2.797 0.625-4.204-0.637l-0.503 0.318 1.792 2.122c1.084-0.131 2.088-0.486 3.098-1.122 2.263-1.422 3.1-3.695 1.994-5.453-0.869-1.384-1.886-2.03-4.933-1.709-2.759 0.294-3.35 0.085-4.012-0.97-0.637-1.011-0.338-2.241 0.805-2.959 1.449-0.912 2.514-0.293 3.308 0.433l0.461-0.289-1.551-2.029zm-11.304 9.148c-1.495 0.071-3.032 0.684-4.42 1.891-2.879 2.501-3.835 6.701-1.162 9.775 2.604 2.997 6.543 3.218 9.775 0.409 3.369-2.927 3.071-7.346 0.961-9.774-1.379-1.586-3.232-2.391-5.154-2.301zm131.12 0.321l-0.45 0.507c0.92 0.803 1.35 1.381 0.7 2.123l-5.97 6.842c-0.65 0.742-1.28 0.398-2.2-0.404l-0.44 0.51c0.76 0.629 1.53 1.275 2.28 1.924 0.78 0.681 1.58 1.418 2.29 2.068l0.44-0.506c-0.92-0.802-1.34-1.381-0.69-2.123l5.97-6.842c0.65-0.742 1.28-0.4 2.2 0.403l0.44-0.508c-0.74-0.612-1.58-1.309-2.36-1.992-0.74-0.649-1.49-1.333-2.21-2.002zm-132.61 1.377c1.629-0.066 3.403 0.755 4.893 2.468 1.838 2.115 2.927 4.949 0.459 7.094-2.056 1.788-5.415 1.166-7.695-1.457-1.839-2.115-2.686-4.989-0.336-7.031 0.779-0.677 1.702-1.035 2.679-1.074zm-15.041 4.709c-0.824 1.002-1.58 1.926-2.357 2.832-0.759 0.886-1.556 1.776-2.369 2.685l0.512 0.44c0.915-1.027 1.576-1.761 2.955-0.579l11.347 9.727c1.577 1.351 4.04 3.462 2.705 5.02-0.489 0.57-1.227 0.791-1.759 0.335-0.472-0.405-0.978-0.291-1.248 0.024-0.358 0.376-0.435 1.063 0.156 1.57 0.945 0.811 2.215 0.087 3.058-0.898 1.081-1.262 1.471-3.148 1-4.475-0.47-1.325-0.818-2.274-3.478-4.554l-10.127-8.678c-1.379-1.182-0.756-1.949 0.119-3.01l-0.514-0.439zm154.76 0.091l-0.5 0.448c0.81 0.91 0.72 1.199 0.26 2.129l-5.21 10.875 0.6 0.677 11.07-3.722c1.65-0.566 1.84-0.352 2.4 0.267l0.5-0.449c-0.43-0.448-0.92-0.954-1.33-1.418-0.56-0.62-1.12-1.296-1.66-1.934l-0.5 0.45c0.6 0.678 1.14 1.28 0.63 1.728-0.25 0.224-0.61 0.405-1.04 0.545l-7.83 2.881 3.95-8.01c0.11-0.195 0.23-0.444 0.39-0.582 0.35-0.311 0.69-0.164 1.08 0.281l0.42 0.465 0.5-0.449c-0.66-0.699-1.32-1.399-1.95-2.115-0.61-0.677-1.21-1.391-1.78-2.067zm10.97 12.793l-0.56 0.371c0.67 1.02 0.93 1.691 0.1 2.233l-7.59 4.986c-0.82 0.542-1.34 0.042-2.01-0.978l-0.56 0.371c0.93 1.374 1.88 2.769 2.79 4.156 1.03 1.562 2.02 3.115 3.02 4.691l2.85-0.91-0.35-0.541c-1.99 0.096-2.37 0.129-3.81-2.062-1.18-1.801-1.18-2.549-0.25-3.16l3.17-2.082 1.18 1.8c0.84 1.279 0.9 1.647-0.3 2.43l0.38 0.564c0.59-0.421 1.18-0.84 1.77-1.226 0.58-0.385 1.18-0.746 1.76-1.096l-0.37-0.564c-1.5 0.983-1.83 0.521-2.55-0.565l-1.18-1.799 4.1-2.693 1.06 1.604c1.46 2.234 1.58 2.688 0.27 3.918l0.3 0.455 2.21-1.639c-1.17-1.743-2.38-3.529-3.54-5.309-0.65-0.975-1.27-1.965-1.89-2.955zm-175.01 7.084l-0.244 0.457c0.33 0.706 0.182 0.98-0.098 1.506l-3.894 7.305c-0.256 0.48-0.653 0.945-1.088 0.713l-0.242 0.459 2.849 1.933 0.319-0.595c-1.349-1.221-1.387-1.594-0.643-2.991l0.93-1.738 8.883 4.738c0.87 0.464 0.677 1.156 0.029 2.37l0.596 0.314c0.514-1.018 0.967-1.924 1.431-2.795 0.488-0.915 1.024-1.863 1.572-2.836l-0.595-0.316c-0.647 1.214-1.114 1.757-1.985 1.293l-8.882-4.737 1.222-2.291c0.501-0.939 0.871-0.975 2.41-0.332l0.33-0.617-2.9-1.84zm183.75 6.914l-0.62 0.274c0.5 1.115 0.63 1.82-0.27 2.219l-8.3 3.673c-0.9 0.399-1.33-0.179-1.82-1.295l-0.62 0.274c0.42 0.891 0.86 1.806 1.26 2.707 0.42 0.95 0.83 1.956 1.2 2.846l0.61-0.274c-0.46-1.044-0.7-1.788 0.27-2.219l3.85-1.699c0.08 0.248 0.19 0.568 0.3 0.828 0.11 0.237 0.27 0.535 0.4 0.762-1.47 2.126-3.27 4.677-3.9 6.065 0.25 0.511 0.5 1 0.73 1.523 0.2 0.451 0.41 0.983 0.58 1.443l0.62-0.273c-0.32-1.675-0.02-2.543 3.27-7.035 1.27 1.396 2.57 1.898 3.92 1.3 1.9-0.84 2.16-2.883 1.29-4.853-0.36-0.807-1.11-2.374-1.61-3.514-0.4-0.901-0.79-1.84-1.16-2.752zm0.99 4.102c0.13 0.227 0.49 0.918 0.59 1.133 0.79 1.803 0.49 3.183-1 3.843-1.78 0.789-3.04-0.015-3.92-2.007l-0.39-0.879 4.72-2.09zm-191.44 3.299c-0.219 0.72-0.462 1.513-0.705 2.226-0.269 0.785-0.587 1.637-0.879 2.414l0.639 0.219c0.443-1.303 0.695-1.957 2.39-1.379l6.434 2.196-11.348 4.492c-0.152 0.524-0.335 1.145-0.512 1.662-0.192 0.564-0.411 1.121-0.636 1.701l0.638 0.219c0.169-0.493 0.72-1.951 1.825-1.573l6.828 2.331c1.768 0.602 2.776 0.946 2.088 2.958l0.638 0.22c0.261-0.84 0.52-1.69 0.805-2.522 0.284-0.836 0.628-1.76 0.93-2.563l-0.639-0.218c-0.629 1.843-1.13 1.946-2.899 1.343l-6.556-2.238 12.508-5 0.199-0.59-10.412-3.551c-1.228-0.419-1.092-0.975-0.699-2.13l-0.637-0.217zm194.78 9.697c-0.22 0.012-0.43 0.048-0.65 0.107-1.95 0.542-2.7 1.53-3.36 4.676-0.41 1.916-0.9 2.676-1.92 2.956-0.78 0.22-2.2 0.13-2.74-1.798-0.5-1.825 0.21-2.857 1.82-3.843l-0.16-0.575-2.55 1.112c-0.18 1.074-0.13 2.138 0.19 3.289 0.71 2.575 2.65 4.025 4.65 3.475 1.58-0.44 2.49-1.23 3.05-4.243 0.51-2.726 0.88-3.232 2.08-3.566 1.15-0.32 2.24 0.32 2.6 1.621 0.46 1.649-0.43 2.492-1.36 3.048l0.15 0.52 2.39-0.906c-0.21-0.831-0.31-2.067-0.57-3.018-0.53-1.903-2.1-2.942-3.62-2.855zm-200.36 8.679c-0.151 0.95-0.327 2.03-0.518 3.05-0.181 0.96-0.395 1.95-0.601 2.92l0.662 0.12c0.225-1.2 0.507-1.85 1.476-1.67l8.926 1.67c0.969 0.18 0.994 0.9 0.77 2.1l0.662 0.12c0.156-0.97 0.319-1.97 0.5-2.94 0.191-1.02 0.417-2.09 0.619-3.03l-0.662-0.12c-0.226 1.2-0.507 1.86-1.477 1.68l-8.925-1.68c-0.97-0.18-0.994-0.9-0.77-2.09l-0.662-0.13zm205.77 3.12l-0.67 0.1c0.19 1.21 0.14 1.92-0.83 2.07l-8.97 1.4c-0.98 0.16-1.24-0.51-1.43-1.72l-0.66 0.1c0.17 0.98 0.36 1.97 0.51 2.95 0.16 1.02 0.3 2.1 0.42 3.05l0.67-0.1c-0.19-1.2-0.14-1.92 0.83-2.07l8.98-1.4c0.97-0.15 1.23 0.52 1.42 1.72l0.66-0.11c-0.17-0.94-0.36-2.01-0.52-3.04-0.15-0.97-0.29-1.98-0.41-2.95zm-195.57 7.19c-0.076 1.37-0.433 1.74-1.648 2.09l-11.2 3.28 0.641 2.04c0.13-0.02 0.235-0.04 0.365-0.04 0.234 0.02 0.539 0.16 0.842 0.31l9.252 4.23c0.532 0.24 1.056 0.65 0.982 1.98l0.672 0.03c0.013-0.7 0.03-1.45 0.067-2.12 0.049-0.89 0.122-1.76 0.197-2.64l-0.672-0.04-0.017 0.31c-0.027 0.49-0.178 1.34-0.801 1.31-0.466-0.03-1.33-0.42-1.66-0.54l-1.653-0.66 0.244-4.4 2.668-0.82c0.345-0.11 0.558-0.17 0.87-0.16 0.44 0.03 0.583 0.68 0.548 1.33l-0.017 0.31 0.674 0.04c0.027-0.96 0.055-1.95 0.107-2.91 0.054-0.95 0.132-1.91 0.213-2.89l-0.674-0.04zm194.2 2.15l0.02 0.68c1.78 0.37 2 0.67 2.06 2.26l0.07 1.97-10.06 0.37c-0.99 0.04-1.17-0.66-1.22-2.03l-0.67 0.02c0.07 1.14 0.13 2.15 0.17 3.14 0.03 1.04 0.05 2.12 0.06 3.24l0.68-0.03c-0.05-1.37 0.08-2.08 1.06-2.11l10.06-0.37 0.1 2.59c0.04 1.06-0.27 1.28-1.92 1.5l0.03 0.7 3.43 0.13-0.02-0.52c-0.64-0.44-0.65-0.75-0.67-1.35l-0.31-8.27c-0.02-0.55 0.09-1.15 0.58-1.16l-0.02-0.52-3.43-0.24zm-199.44 3.23l-0.209 3.8-5.129-2.17 0.002-0.06 5.336-1.57zm202.02 10.27c-0.07 0.7-0.32 1.09-0.96 1.52l-6.01 3.55-3.9-0.39c-1.01-0.1-0.94-0.83-0.81-2.12l-0.67-0.06c-0.08 1.03-0.16 2.12-0.26 3.18-0.11 1.03-0.24 2.11-0.37 3.14l0.67 0.07c0.11-1.14 0.21-2.09 1.09-2l4.59 0.46 4.04 3.74c1.31 1.22 1.31 1.69 1.23 2.55l0.67 0.06c0.07-0.75 0.1-1.5 0.16-2.15 0.08-0.77 0.2-1.7 0.3-2.47l-0.67-0.07c-0.14 1.4-0.36 1.48-0.74 1.44-0.31-0.03-0.67-0.33-1.01-0.65l-3.23-2.85 4.39-2.45c0.36-0.2 0.5-0.32 0.73-0.3 0.34 0.04 0.24 0.97 0.19 1.46l0.68 0.06c0.07-0.95 0.14-1.96 0.24-2.92 0.09-0.9 0.21-1.91 0.32-2.73l-0.67-0.07zm-200.97 0.19c-0.201-0.01-0.406 0-0.616 0.02-5.941 0.55-3.884 8.38-8.689 8.83-1.886 0.18-3.413-0.83-3.596-2.79-0.171-1.86 0.778-3.15 2.559-3.6l-0.055-0.6-3.269 0.72c-0.059 1.05-0.193 2.13-0.094 3.19 0.292 3.15 2.244 5.37 5.576 5.06 6.098-0.57 3.967-8.08 8.771-8.53 2.042-0.19 3.582 1.23 3.766 3.22 0.2 2.15-1.552 3.77-3.449 4.39l0.054 0.59 3.725-0.87c0.456-1.26 0.636-2.69 0.512-4.03-0.267-2.86-2.189-5.54-5.195-5.6zm1.812 21.8c-1.228 0-2.223 0.99-2.223 2.22 0 1.22 0.995 2.22 2.223 2.22 1.227 0 2.223-1 2.223-2.22 0-1.23-0.996-2.22-2.223-2.22zm190.02 0c-1.23 0-2.23 0.99-2.23 2.22 0 1.22 1 2.22 2.23 2.22s2.22-1 2.22-2.22c0-1.23-0.99-2.22-2.22-2.22zm-176.42 8.29l-0.584 0.29c0.85 1.69 0.525 2.22-1.205 3.09l-10.698 5.4c-1.573 0.79-2.025-0.05-2.648-1.23l-0.584 0.29c0.589 1.11 1.142 2.16 1.687 3.24 0.499 0.99 0.942 1.97 1.498 3.08l0.582-0.3c-0.589-1.22-0.996-2.09 0.577-2.88l12.695-6.4c0.17 0.22 0.396 0.61 0.566 0.95 0.749 1.48 0.972 4.1-2.15 5.68-1.619 0.82-3.96 0.93-4.934-1.01-0.147-0.29-0.285-0.56-0.386-0.87l-0.743 0.37c0.17 0.34 0.33 0.71 0.557 1.16 1.19 2.36 4.278 3.9 6.93 2.56 3.505-1.77 2.795-5.58 1.627-7.89-0.475-0.95-0.917-1.71-1.303-2.48-0.51-1.01-1.019-2.02-1.484-3.05zm167.94 2.81c-0.63 1.37-1.27 2.77-1.8 3.88s-1.21 2.49-1.88 3.84l0.59 0.28 0.62-1.31c0.71-1.48 1.05-1.43 2.5-0.74l5.16 2.46c1.7 0.82 1.95 0.93 1.18 2.55l-0.6 1.27 0.59 0.28c0.58-1.28 1.15-2.54 1.79-3.88s1.26-2.58 1.89-3.85l-0.59-0.28-0.61 1.28c-0.77 1.61-1.02 1.49-2.72 0.68l-5.16-2.46c-1.45-0.69-1.7-0.93-1-2.4l0.63-1.32-0.59-0.28zm-5.43 10.86l-3.33 5.13 3.65 4.35c2.61-1.3 5.51-2.06 7.81-0.56 1.67 1.08 2.69 3.19 1.73 4.67-0.57 0.89-1.32 1.03-1.62 1.49-0.21 0.32-0.07 0.74 0.25 0.95 0.36 0.23 1.13 0.1 1.65-0.7 1.58-2.43 0.9-6.92-1.9-8.75-2.47-1.6-5.4-1.16-8.74 0.78l-1.05-1.28 2.99-4.6-1.44-1.48zm-160.15 2.31l-0.522 0.4c0.712 0.94 1.001 1.58 0.237 2.15l-7.035 5.3c-0.765 0.58-1.292 0.13-2.004-0.82l-0.524 0.4c0.596 0.74 1.206 1.51 1.781 2.28 0.607 0.8 1.222 1.66 1.762 2.42l0.524-0.4c-0.666-0.88-1.06-1.53-0.237-2.15l3.358-2.53 4.133 5.49-3.356 2.53c-0.825 0.62-1.338 0.06-2.004-0.82l-0.523 0.39c0.58 0.73 1.237 1.56 1.843 2.36 0.576 0.77 1.146 1.56 1.702 2.34l0.523-0.39c-0.712-0.95-1.002-1.58-0.238-2.15l7.035-5.3c0.764-0.58 1.294-0.13 2.006 0.82l0.521-0.4c-0.596-0.75-1.206-1.51-1.781-2.28-0.607-0.8-1.221-1.66-1.762-2.42l-0.523 0.39c0.666 0.89 1.061 1.54 0.236 2.16l-3.035 2.28-4.135-5.48 3.035-2.29c0.825-0.62 1.341-0.06 2.006 0.82l0.522-0.39c-0.58-0.73-1.235-1.56-1.842-2.36-0.575-0.77-1.147-1.57-1.703-2.35zm149.57 6.05c-1.23 0.02-2.45 0.76-3.33 1.78-1.65 1.91-1.92 4.57 0.03 6.25 1.23 1.06 3.1 1.29 5.49 0.49-0.68 2.17-0.43 4.38 0.94 5.57 1.49 1.28 3.96 1.42 5.94-0.87 1.76-2.04 1.83-5-0.14-6.7-1.5-1.3-3.27-1.26-5.83-0.41 0.46-1.76 0.66-3.92-0.94-5.3-0.68-0.59-1.42-0.83-2.16-0.81zm-1.12 1.43c0.7-0.01 1.46 0.26 2.18 0.89 1.05 0.9 1.46 2.12 1.38 3.98-2.4 0.62-4.01 0.56-4.94-0.24-1.15-0.99-1.46-2.55-0.41-3.77 0.47-0.54 1.1-0.84 1.79-0.86zm6.63 6.43c1.26 0 2.13 0.41 2.75 0.94 1.22 1.06 1.38 2.76 0.39 3.9-1.15 1.33-3.04 1.06-4.38-0.09-0.97-0.84-1.53-1.73-1.45-4.28 1.05-0.34 1.94-0.48 2.69-0.47zm-143.7 0.25l-0.461 0.47c0.84 0.83 1.218 1.41 0.545 2.09l-6.196 6.27c-0.672 0.68-1.261 0.31-2.101-0.53l-0.461 0.47c0.697 0.65 1.413 1.33 2.092 2 0.716 0.71 1.45 1.47 2.093 2.14l0.461-0.47c-0.84-0.83-1.218-1.41-0.545-2.09l6.196-6.26c0.672-0.68 1.261-0.31 2.101 0.52l0.461-0.47c-0.68-0.63-1.449-1.36-2.166-2.07-0.678-0.67-1.358-1.38-2.019-2.07zm132.93 3.67c-1.11 1.02-2.25 2.05-3.17 2.87s-2.09 1.82-3.24 2.8l0.44 0.49 1.09-0.97c1.23-1.08 1.52-0.9 2.58 0.3l3.79 4.28c1.25 1.42 1.44 1.62 0.1 2.81l-1.06 0.93 0.44 0.49c1.04-0.95 2.06-1.89 3.17-2.87 1.11-0.99 2.16-1.89 3.23-2.8l-0.43-0.49-1.05 0.93h-0.01c-1.33 1.19-1.52 0.98-2.77-0.43l-3.79-4.28c-1.06-1.21-1.2-1.52 0.02-2.6l1.09-0.97-0.43-0.49zm-126.22 2.84l-0.403 0.51c0.933 0.73 1.376 1.26 0.789 2.02l-5.412 6.95c-0.586 0.75-1.214 0.46-2.148-0.27l-0.403 0.52c1.407 1.06 2.813 2.12 4.204 3.2 0.575 0.45 3.14 2.48 3.642 2.9l2.559-2.06-0.496-0.38c-1.988 1.04-2.642 0.97-4.409-0.4-1.569-1.22-1.626-1.68-0.976-2.52l5.148-6.61c0.634-0.82 1.276-0.41 2.149 0.27l0.402-0.52c-0.751-0.55-1.6-1.18-2.394-1.8-0.755-0.59-1.514-1.21-2.252-1.81zm107.12 9.43l-1.32 1.59c0.09 0.1 0.16 0.17 0.22 0.28 0.11 0.2 0.15 0.52 0.19 0.85l1.42 9.76c0.09 0.56 0.02 1.21-1.09 1.84l0.32 0.57c0.58-0.36 1.2-0.74 1.77-1.06 0.74-0.43 1.5-0.83 2.25-1.23l-0.32-0.57-0.26 0.15c-0.42 0.24-1.19 0.56-1.49 0.03-0.22-0.39-0.36-1.29-0.44-1.63l-0.32-1.69 3.71-2.12 2.07 1.74c0.27 0.23 0.44 0.37 0.59 0.63 0.21 0.37-0.25 0.83-0.8 1.14l-0.26 0.15 0.32 0.57c0.8-0.48 1.62-0.98 2.43-1.43 0.81-0.47 1.63-0.9 2.47-1.36l-0.32-0.57c-1.16 0.66-1.65 0.57-2.57-0.24l-8.57-7.4zm-94.194 0.07c-0.041 0.12-0.069 0.22-0.132 0.33-0.114 0.19-0.377 0.39-0.637 0.59l-7.731 6.13c-0.44 0.36-1.031 0.62-2.14-0.02l-0.33 0.56c0.6 0.32 1.243 0.67 1.808 1 0.741 0.43 1.468 0.88 2.196 1.33l0.328-0.56-0.262-0.15c-0.413-0.25-1.081-0.75-0.777-1.27 0.229-0.39 0.942-0.97 1.193-1.2l1.301-1.14 3.697 2.16-0.472 2.66c-0.056 0.35-0.092 0.56-0.245 0.82-0.214 0.37-0.847 0.21-1.39-0.11l-0.262-0.15-0.328 0.56c0.818 0.45 1.657 0.91 2.461 1.38s1.596 0.95 2.41 1.46l0.33-0.57c-1.152-0.67-1.315-1.14-1.08-2.34l2.104-11.12-2.042-0.35zm-0.371 1.59l0.045 0.03-0.992 5.3-3.199-1.86 4.146-3.47zm94.475 1.02l4.1 3.52-3.22 1.84-0.92-5.33 0.04-0.03zm-86.209 1.63l-0.232 0.61c1.105 0.42 1.687 0.8 1.347 1.7l-3.14 8.23c-0.34 0.89-1.029 0.79-2.133 0.37l-0.235 0.61c1.068 0.38 2.11 0.75 3.168 1.15 0.919 0.35 2.077 0.85 3.112 1.24 3.433 1.31 7.413 1.19 9.107-3.26 1.031-2.7 0.131-6.41-4.596-8.21-1.175-0.45-2.394-0.86-3.593-1.32-0.989-0.38-1.944-0.77-2.805-1.12zm78.369 0.37c-0.85 0.39-1.81 0.81-2.74 1.2-0.89 0.37-1.8 0.73-2.7 1.07l0.26 0.6c1.09-0.45 1.77-0.57 2.14 0.31l3.39 8.13c0.37 0.88-0.2 1.28-1.29 1.74l0.25 0.6c0.87-0.39 1.77-0.79 2.65-1.16 0.93-0.39 1.92-0.77 2.79-1.1l-0.26-0.61c-1.09 0.46-1.77 0.58-2.14-0.3l-3.39-8.13c-0.37-0.89 0.2-1.29 1.29-1.74l-0.25-0.61zm-74.92 1.89c0.739 0.25 1.934 0.65 2.615 0.91 3.151 1.2 3.621 3.99 2.518 6.89-1.57 4.11-4.787 3.72-7.043 2.86-1.13-0.43-1.838-0.84-1.318-2.2l3.228-8.46zm66.01 1.89c-0.92 0.25-1.87 0.51-2.8 0.74-0.97 0.24-2.01 0.47-2.92 0.67l0.16 0.63c1.08-0.26 1.83-0.37 2.07 0.63l0.91 3.69-6.67 1.65-0.91-3.69c-0.24-1 0.47-1.26 1.54-1.52l-0.15-0.64c-0.9 0.25-1.92 0.53-2.9 0.77-0.93 0.23-1.88 0.44-2.82 0.64l0.16 0.64c1.15-0.29 1.84-0.3 2.07 0.63l2.11 8.55c0.23 0.93-0.39 1.24-1.54 1.52l0.15 0.63c0.93-0.25 1.87-0.51 2.8-0.74 0.98-0.24 2.01-0.47 2.92-0.67l-0.15-0.63c-1.08 0.27-1.83 0.37-2.08-0.63l-1-4.08 6.67-1.65 1 4.08c0.25 1.01-0.46 1.26-1.54 1.53l0.16 0.63c0.89-0.25 1.92-0.52 2.89-0.76 0.93-0.23 1.89-0.44 2.83-0.65l-0.16-0.63c-1.15 0.28-1.85 0.29-2.08-0.63l-2.1-8.55c-0.24-0.93 0.39-1.24 1.54-1.53l-0.16-0.63zm-53.37 1.58l-0.12 0.64c1.16 0.23 1.79 0.52 1.6 1.45l-1.74 8.64c-0.2 0.94-0.891 0.95-2.05 0.72l-0.131 0.64c1.581 0.29 3.191 0.59 4.771 0.91 1.78 0.36 3.52 0.74 5.29 1.12l1.32-2.58-0.61-0.13c-1.29 1.44-1.53 1.72-4.02 1.22-2.05-0.41-2.56-0.93-2.35-1.99l0.73-3.6 2.05 0.41c1.45 0.3 1.74 0.51 1.47 1.87l0.64 0.13c0.12-0.7 0.23-1.4 0.36-2.06 0.14-0.67 0.3-1.33 0.45-1.97l-0.64-0.12c-0.34 1.7-0.89 1.61-2.12 1.36l-2.05-0.41 0.94-4.66 1.83 0.37c2.54 0.51 2.93 0.74 2.88 2.48l0.52 0.1 0.38-2.64c-2-0.38-4.05-0.77-6.07-1.18-1.11-0.22-2.22-0.47-3.33-0.72zm13.64 2.48l-0.04 0.66c1.18 0.07 1.85 0.25 1.8 1.21l-0.51 8.79c-0.06 0.96-0.75 1.07-1.93 1l-0.04 0.66c1.77 0.07 3.52 0.15 5.28 0.25 0.73 0.04 4 0.26 4.65 0.33l0.94-3.15-0.63-0.04c-1.05 1.98-1.62 2.3-3.86 2.17-1.98-0.12-2.29-0.46-2.23-1.52l0.49-8.36c0.06-1.03 0.82-1.06 1.92-1l0.04-0.66c-0.93-0.02-1.98-0.06-2.99-0.12-0.95-0.05-1.93-0.13-2.89-0.22zm19.12 0.07c-0.25-0.01-0.51 0-0.77 0.02-1.35 0.09-2.48 0.23-3.61 0.31-0.95 0.07-1.94 0.11-2.89 0.16l0.05 0.65c1.18-0.08 1.86 0.02 1.93 0.97l0.64 8.79c0.07 0.95-0.6 1.15-1.78 1.24l0.05 0.65c0.95-0.1 1.93-0.19 2.88-0.26 1.01-0.08 2.06-0.12 2.99-0.17l-0.04-0.65c-1.18 0.09-1.87-0.02-1.94-0.97l-0.71-9.82c0.25-0.06 0.6-0.11 1.02-0.14 1.91-0.14 3.13 0.73 3.29 2.91 0.08 1.06-0.03 2.68-2.04 2.82-0.25 0.02-0.61-0.03-0.71-0.02l0.05 0.65c0.1 0.02 0.38 0.05 0.86 0.02 1.63-0.12 4.32-1.25 4.13-3.99-0.17-2.26-1.64-3.09-3.4-3.17z" transform="matrix(.8 0 0 -.8 948.56 654.04)"/></g></g></svg>
