<svg xmlns="http://www.w3.org/2000/svg" clip-rule="evenodd" height="256" width="256" image-rendering="optimizeQuality" shape-rendering="geometricPrecision" text-rendering="geometricPrecision" viewBox="80 18 120 80"><path d="m150.85 106.85 3.65.02c-.87.5-2.47.32-3.65.32v-.33zm-1-.33c.32-.32 1.06.42.39.18-.01 0-.84.27-.39-.18zm-9.02-2.34c.03-.03.1.05.1.1 0 .02.04.04.04.04-.01-.01-.59.31-.14-.14zm-1-.33c.03-.03.1.05.1.1 0 .02.04.04.04.04-.01-.01-.59.31-.14-.14zm-1-.33c.32-.32 1.06.42.39.18-.01 0-.84.27-.39-.18zm10.36-.33c.03-.03.1.05.1.1 0 .02.04.04.04.04-.01-.01-.59.31-.14-.14zm-11.36 0 .67.16zm9.66-.08-.97.1c.18-.13-.13-.71.97-.1zm-2.31-.58c.32-.32 1.05.42.39.18-.01 0-.84.27-.39-.18zm19.38-.33c.32-.32 1.05.42.39.18-.01 0-.84.27-.39-.18zm-21.05 0c.32-.32 1.05.42.39.18-.01 0-.85.27-.39-.18zm22.38-.33c.03-.03.1.05.1.1 0 .02.04.04.04.04-.01-.01-.59.31-.14-.14zm1.34-.33c.03-.03.1.05.1.1 0 .02.04.04.04.04-.01-.01-.59.31-.14-.14zm-26.06 0c.32-.32 1.06.42.39.18-.01 0-.84.27-.39-.18zm24.05 0c.6-.38.18-.64 1.31-.09zm1.67-.67c.03-.03.1.05.1.1 0 .02.04.04.04.04-.01-.01-.59.31-.14-.14zm-27.39 0c.03-.03.1.05.1.1 0 .02.04.04.04.04-.01-.01-.59.31-.14-.14zm24.05 0c.6-.38.18-.64 1.31-.09zm-25.05-.33.67.16zm26.73-.33c.03-.03.1.05.1.1 0 .02.04.04.04.04-.01-.01-.59.31-.14-.14zm-16.73.09-.97.29c.47-.41-.63-.36.97-.29zm-9.99.25-.67-.33zm7.68-.67c.03-.03.1.05.1.1 0 .02.04.04.04.04-.01-.01-.59.31-.14-.14zm-8.35.33-.67-.33zm7.35-.67c.03-.03.1.05.1.1 0 .02.04.04.04.04-.01-.01-.59.31-.14-.14zm-1.34-.33c.03-.03.1.05.1.1 0 .02.04.04.04.04-.01-.01-.59.31-.14-.14zm25.72-1.34c.03-.03.1.05.1.1 0 .02.04.04.04.04-.01-.01-.59.31-.14-.14zm.67-.33c.03-.03.1.05.1.1 0 .02.04.04.04.04-.01-.01-.59.31-.14-.14zm.67-.33c.03-.03.1.05.1.1 0 .02.04.04.04.04-.01-.01-.59.31-.14-.14zm1.34-.33-.6.35zm.67-.33-.67.33zm0 0 .09-.31.25.19-.33.11zm1-.67-.09.31-.25-.19.33-.11zm.67-.33-.67.33zm.67-.33-.67.33zm.33-.33-.33.33zm0 0c.52-.74 1.17-1.11 2-1.34-.67 1.02-.83 1.05-2 1.34zm-37.75 8.36c-3.99-.35-12.99-7.27-15.03-10.36.97.26 5.55 4.6 7.08 5.62 1.32.88 2.52 1.62 3.88 2.47 1.28.8 3.04 1.36 4.08 2.27zm39.75-9.69c.63-.97.35-.74 1.34-1-.63.97-.35.74-1.34 1zm-54.79-.67-.33-.33zm-.33-.33-.33-.33zm-.33-.33-.33-.33zm56.79.33 1.34-1.34c-.22 1.07-.36 1.08-1.34 1.34zm-16.37-1-.08.31-.25-.19.33-.11zm-40.76.33-.31-.09.19-.25.11.33zm40.76-.33.6-.35zm17.71-.33.09-.31.25.19-.33.11zm6.35-7.35c.03-.03.1.05.1.1 0 .02.04.04.04.04-.01-.01-.59.31-.14-.14zm1-1-.08.31-.25-.19.33-.11zm.33-.67-.33.67zm0 0 .67-1zm1-1.67-.33.67zm-74.16 0c.03-.03.1.05.1.1 0 .02.04.04.04.04-.01-.01-.59.31-.14-.14zm74.5-.67-.33.67zm.33-.67-.33.67zm0 0 .16-.67zm.67-1.67-.16.67zm0 0 .16-.67zm.33-1.34c.03-.03.1.05.1.1 0 .02.04.04.04.04-.01-.01-.59.31-.14-.14zm.33-.67c0-.77.41-.06.21 0 0 0-.21.86-.21 0zm.33-1.34c.03-.03.1.05.1.1 0 .02.04.04.04.04-.01-.01-.59.31-.14-.14zm.67-2.01c0-.77.41-.06.21 0 0 0-.21.86-.21 0zm.33-1.67c.03-.03.1.05.1.1 0 .02.04.04.04.04-.01-.01-.59.31-.14-.14zm.29-1.66c.37.42.34-.47.3.97zm.47-.37c-.08-.72.34-7.66.5-7.97.23 2.11.46 6.35-.5 7.97zm-27.48 22.09-1 .33c-.21 1.02-.99.01-1 0-1.71 0-2.44.48-4.02.66-1.39.16-3.31.22-4.6.42-2.23.34-7.12.4-8.76-.74-3.17-.28-8.21-3.6-9.96-3.62.3 1.79 1.88 3.41 2.92 4.87-5.29.58-9.84-5.53-13.58-8.24l.53 1.57c-1.57-.24-1.46-1.43-2.62-2.26l-.54.35-1.34-1.37c.36 3.46 7.7 9.99 10.51 12.11 3.84 2.9 12.1 6.3 16.76 6.3.78-1.02.89-.02 2.04.3.13.04.65.09.88.13 4.5.81 8.44-.43 11.78-.43-1.83 1.27-4.89 1.16-7.32 1.42 2.53 1.18 6.33-.7 8.99-.75-4.1 2.85-16.72 1.61-22.93-.46-1.38-.46-5.54-2.36-6.44-2.46l1.31 1.25c-5.41-1.31-12.76-8.6-15.94-12.8-1.9-2.51-4.06-6.01-5.3-9.07-1.24-3.07-3.14-8.13-3.14-11.48l-1-.09c.44 1.86.52 4.11 1.27 7.1.52 2.07 1.16 4.68 2.04 6.53-1.16-.29-2.07-3.2-2.54-4.36-.36-.9-.58-1.64-.9-2.45-.45-1.16-.62-1.78-1.57-2.16-1 1.81-.15 4.39.4 6.01 4.38 12.88 14.45 24.6 27.22 28.92 5.57 1.88 7.84 2.21 13.83 2.21 8.31 0 18.71-2.28 25.59-6.48 9.86-6.03 16.34-18.5 18.21-29.92.79-4.82.79-9.96 0-14.79-2.74-16.72-14.25-28.84-30.14-34.02-3.62-1.18-9.82-2.55-13.57-2.33-.91-1.21-1.62-3.08-2.81-4.67-2.44-3.25-8.62-9.41-12.3-9.75.62.87 3.05 2.03 4.09 2.93 2.59 2.24 9.39 8.87 9.88 11.39-2.39.19-6.07-.27-7.93.64 2.67.29 5.18-.52 8.24-.16 1.04.92.59.94 1.34 1.56l-.29-1.56c1.05.14 1.98.17 2.98.32 1.03.16 1.85.54 3.02.66-.19 1.13-.63.69 3.08 2.08-1.81.28-5.91-.74-8.03-.82-1-.04-6.64.13-6.93 1.94 1.93 1.39 11.8.46 15.59 2.34-1.53.17-2.78-.18-4.32-.24-1.55-.06-2.49-.39-4.35-.35-1.51.03-6.84.6-7.64 1.6 3.06.34 4.5-.19 9.69.39 3.24.36 5.11.05 8.32 1.7 1.49.77 1.92.45 3.02.99.83.41 4.64 2.67 5.16 3.19 5.88 5.9 8.83 8 12.06 16.34.5 1.3 1.23 1.94 1.48 2.87l.41 7.08c-.36 2.33-.04 4.94-.6 7.44-.73 3.25-2.62 8.52-4.94 11.1.06 1.01-.03-.28.39 1.06-1.9.76-4.59 4.04-6.53 5.5-1.49 1.12-1.78 1.89-3.47 2.54-1.27.48-3.41 1.61-4.64 1.71z" fill="#40586f"/><path d="m115.78 65.39c.32-.32 1.05.42.39.18-.01 0-.84.27-.39-.18zm-2.01-.33.98.05c-1.1.6-.59.2-.98-.05zm0 0-.98-.05c1.1-.6.59-.2.98.05zm-1.67-.67c.03-.03.1.05.1.1 0 .02.04.04.04.04-.01-.01-.59.31-.14-.14zm-7.68-4.01.31.08-.19.25-.11-.33zm0 0-.31-.09.19-.25.11.33zm-1.34-1 .31.08-.19.25-.11-.33zm0 0-.33-.33zm-.33-.33-.31-.09.19-.25.11.33zm-6.68-8.02.31.08-.19.25-.11-.33zm0 0-.31-.09.19-.25.11.33zm-.67-1 .31.08-.19.25-.11-.33zm0 0-.35-.6zm-.67-1.34c.03-.03.1.05.1.1 0 .02.04.04.04.04-.01-.01-.59.31-.14-.14zm-.33-.67c.03-.03.1.05.1.1 0 .02.04.04.04.04-.01-.01-.59.31-.14-.14zm-.33-.67c0-.77.41-.06.21 0 0 0-.21.87-.21 0zm-.33-1c.03-.03.1.05.1.1 0 .02.04.04.04.04-.01-.01-.59.31-.14-.14zm56.79-.67-.09.31-.25-.19.33-.11zm-2.67-.33-.16.67zm-54.45 0c.03-.03.1.05.1.1 0 .02.04.04.04.04-.01-.01-.59.31-.14-.14zm54.79-.67-.33.67zm-49.11-5.68-.05.98c-.6-1.1-.2-.59.05-.98zm-8.44-5.99.08 5.29c-.57-1.06-.59-4.26-.08-5.29zm7.77 4.65c.03-.03.1.05.1.1 0 .02.04.04.04.04-.01-.01-.59.31-.14-.14zm-10.36-9.69c0-.77.41-.06.21 0 0 0-.21.86-.21 0zm.33-1.34c.03-.03.1.05.1.1 0 .02.04.04.04.04-.01-.01-.59.31-.14-.14zm13.03-1.34-.09.31-.25-.19.33-.11zm-5.68-7.69-.09.31-.25-.19.33-.11zm0 0 .08-.31.25.19-.33.11zm-2.67-.33c.03-.03.1.05.1.1 0 .02.04.04.04.04-.01-.01-.59.31-.14-.14zm1-1-.09.31-.25-.19.33-.11zm.33-.33-.33.33zm.33-.67-.33.67zm.33-.33-.33.33zm.33-.33-.33.33zm0 0c.27-.98.04-.7 1-1.34-.27.98-.04.7-1 1.34zm1.67-2.01-.03.61-.63.06.67-.67zm.67-.67-.03.61-.63.06.67-.67zm0 0c.64-.97 1.57-2.04 2.67-2.34-.64.97-1.57 2.04-2.67 2.34zm2.67-2.34c.66-.99 1.54-1.7 2.67-2.01-.53.81-1.79 1.77-2.67 2.01zm2.67-2.01.08-.31.25.19-.33.11zm8.69 58.82 1 .09c1.59 1.42 11.22 1.78 13.36.76h.33c4.97.59 16.08-6.19 19.91-11.34 4.82-6.47 8.82-14 8.82-22.6-.41.64-.86 4.34-1.14 5.55-.54 2.32-.66 3.04-1.75 5.27l-.89.03-.89 1.53c.14-1.62 1.06-3.43 1.42-5.26.41-2.07.92-3.78-.08-5.77-1.84 1.31-1.97 8.11-3.67 10.03.06-2.99 2.47-7.72 1.12-10.64-.8 1.08-.96 3.51-1.31 5.1-.36 1.64-.87 3.31-1.43 4.92-1.96 5.6-7.31 10.5-12.62 13.11-4.86 2.39-8.08 1.97-9.78 3.25-3.42-.93-4.3-.5-4.98-.57-.65-.07-.42-.26-1.4-.36-1.83.05-.75 0-1.31-.43-.72 0-.11.09-.36-.33-.93.36-3.02-.52-4.01-1.04l-1.11-.63c-2-1.18-3.74-2.05-5.18-3.75-.77-.91-.65-.8-1.67-.65-.47-2.65-5.29-7.27-5.04-11.62.07-1.22.83-.9-.03-2.03 0-4.05.1-9.27 1.67-12.7l1-1h-.33l.33-.67.33-.67.67-1c.38-1.39 1.79-3.21 3.01-4.01l-.2-.73c-2.21.15-2.41 1.07-4.08 1.35.59-3.6 5.46-6.54 8.24-8.75l-1.27-.36 2.67-1.53-.67-.16.67-.18.66-.9c-4.93.54-11.13 6.12-14.3 10.31-5.78 7.65-5.88 17.76-6.31 18.64l-.09-3.98c-1.11-.84 1.26-7.23 1.8-8.56.77-1.91 3.62-6.21 3.88-7.15l-.63-.13c3.99-4.17 6.02-7.1 12.43-10.13 2.75-1.29 5.52-2.05 8.45-2.58 5.72-1.03 6.16-.19 10.81-.61-2.08-1.17-7.5-1.06-10.08-.67-.77.12-2.99.38-3.59.34 1.67-.94 6.72-1.09 7.74-2.27-1.88-2.17-10.17.28-12.54 1.23-9.89 4.01-16.42 9.56-20.51 19.59-3.73 9.17-2.46 25.58 3.49 32.08 3.08 3.36 4.41 5.03 8.37 7.67 2.84 1.89 7.85 4.71 11.09 4.93z" fill="#219ab5"/><path d="m110.99 57.04 1.11.63c.05-2.17 1.79-7.22 2.62-9.37 1.83-4.68 5.89-11.01 9.48-14.58 1.14-1.14 5.66-5.24 6.27-6.1-3.91.35-10.17 8.39-12.43 11.96-1.54 2.44-3.18 5.73-3.94 8.42-.45 1.6-2.14 8.39-3.11 9.03zm5.48 2c.56.44-.52.48 1.31.43.52-2.47.93-5.02 1.71-7.42.63-1.96 2.23-4.71 2.64-6.39-2.49 1.78-4.68 9.75-4.68 12.7-.34 1.15.31.34-.97.67zm3.32 23.07c-.8-3.31-2.49-4.55-3.98-12.4-.13-.68.03-.38-.22-1.11-.46-1.37-.11-.34-.48-.86-.65 1.12.92 6.63 1.33 7.7.57 1.49 2.09 5.78 3.35 6.68zm20.01-68.28c-2.5-3.46-10.35-6.88-14.61-6.54l2.02.54c7.83 1.86 11.42 5.84 12.59 6.01zm-26.69-7.61 8.29-.92c.54.04.78.7 2.4-.42-3.19 0-8.39-.26-10.69 1.34z" fill="#40586f"/><path d="m135.15 5.55c-1.17-1.65-4.98-2.81-6.99-2.59.22.17 6.29 2.42 6.99 2.59z" fill="#219ab5"/><path d="m139.5 87.79-4.97-3.93c.37 2.18 2.8 3.4 4.97 3.93zm-23.39-29.08c.33-.51.69-3.12.93-4.08.34-1.35.95-2.59 1.07-3.94-1.34 1.51-2 5.76-2 8.02z" fill="#40586f"/><path d="m105.76 18.92-1 2.01 3.68-3.34c-1.75.15-1.42.51-2.67 1.34z" fill="#219ab5"/><path d="m128.47 75.76c.1 1.16.33 1.87 1 2.73.54-.96-.07-2.07-1-2.73zm-2-8.52h-.33c-.43 1.2-.59 1.78.64 2.08zm.08-11.24c.61-.82.85-2.01.86-2.92-.68.81-.98 1.61-.86 2.92zm-13.1-41.69c.21.46-.47.93 1.09.44.41-.13.98-.57 1.21-.74l-2.3.31zm50.1 76.49h1l1-.33v-.33c-1.31.03-1.1-.14-2 .67zm-17.37.33 1.64-.03-2.31-.63zm-13.7-74.88c-.72-.64-.75-.85-1.64-.42zm13.03 74.22-2-.67c.9.8.7.64 2 .67zm-25.06-76.89 1.99-.1-1.99-.25zm21.38 9.02c-1.39 0-.65-.12-1.34.33 1.39-.01.65.12 1.34-.33zm-11.02-15.37c-.69-.45.05-.33-1.34-.33.69.45-.05.33 1.34.33zm-12.69 43.45.67-1.33-.61.38zm11.35-43.79c-.34-.22.13-.65-.97-.08zm-18.37 0c.32.32 1.05-.42.39-.18-.01 0-.85-.27-.39.18zm2.01-.67-.98.05c1.1.6.59.2.98-.05zm-11.36 19.06.33-.67h-.33zm.33-.67.34-.67h-.34zm.67-1 .33-.67h-.33zm8.35-15.05v.34l.67-.16zm42.85 23.04.29-1.3c-.09.07-.17.08-.18.2zm-33.5 51.85.09.3.25-.19zm-16.36-61.85-.31.09.19.24zm18.04 24.07.3-.09-.19-.24zm6.34 30.09-.08-.31-.25.19zm11.36-52.49-.3.09.19.24zm-20.71 25.07.3-.08-.19-.25zm22.38 40.46.09.3.24-.19zm-8.35-72.21.09.3.24-.19zm-29.73 6.01.3-.08-.19-.25zm62.13 67.53.31-.08-.19-.25zm-45.1-6.68-.08-.31-.25.19zm17.71-72.21.09.3.24-.19z" fill="#40586f"/><path d="m108.43 17.59.31-.09-.2-.24zm-11.69-.67.3-.09-.19-.24z" fill="#219ab5"/><path d="m119.45 47.68c.03.03.1-.14.1-.1 0 .02.04-.04.04-.04-.01.01-.59-.31-.14.14zm8.02 5.01c.03.03.1-.14.1-.1 0 .02.04-.04.04-.04-.01.01-.59-.31-.14.14zm-36.41-21.4c.03.03.1-.14.1-.1 0 .02.04-.04.04-.04-.01.01-.59-.31-.14.14zm64.14 2.01.35-.6zm-36.41 16.05.33-1.01zm-16.04-25.74-.33.33zm37.75-.67-.67.33zm-37.08-.34-.34.34zm1-1.33-.33.33zm.33-.34-.33.34zm37.08 1.67.67-.15zm-6.01-16.71-.67-.34zm-2.67 10.7-.67-.34zm-13.36 65.52.15.67zm3.34 1-.16-.67zm13.36-76.89-.67-.33zm-13.03 77.23-.33-.34zm8.02-75.89-.67-.33zm2.34 1-.67-.33zm6.35 79.57-.67-.34zm-7.69-80.24-1-.33zm8.35 80.57-.66-.33zm.67.34-.67-.34zm-8.35-80.57-.67-.34zm9.69 81.23-.61-.35zm-4.68-78.22-1-.67zm5.35 78.56-.67-.34zm-6.35-79.23-.34-.34z" fill="#40586f"/><path d="m91.06 32.63.35-.6z" fill="#219ab5"/></svg>