<svg xmlns="http://www.w3.org/2000/svg"  viewBox="0 0 100 100" width="200px" height="200px" baseProfile="basic"><path fill="#444445" d="M78,82H22c-2.209,0-4-1.791-4-4V22c0-2.209,1.791-4,4-4h56c2.209,0,4,1.791,4,4v56	C82,80.209,80.209,82,78,82z"/><path fill="#e3e2e3" d="M43.988,49.042c0,0,3.512-2.257,3.512-5.766c0-3.909-2.838-7.777-9.315-7.777H25.5v29h13.844	c5.839,0,10.156-3.228,10.156-7.804C49.5,51.12,43.988,49.042,43.988,49.042z M37.685,40.5c2.889,0,4.815,1.567,4.815,3.5	s-1.926,3.5-4.815,3.5H30.5v-7H37.685z M38.914,59.5H30.5v-7h8.414c2.655,0,4.586,1.567,4.586,3.5S41.569,59.5,38.914,59.5z"/><path fill="#e3e2e3" d="M64.25,42.5c-5,0-7.75,4-7.75,4v-11h-5v29h5v-4c0,0,2.75,4,7.75,4c6,0,10.25-4.5,10.25-11	S70.25,42.5,64.25,42.5z M63.5,60.5c-3.314,0-6-3.134-6-7s2.686-7,6-7c3.314,0,6,3.134,6,7S66.814,60.5,63.5,60.5z"/><path fill="#1f212b" d="M39.344,65H25.5c-0.276,0-0.5-0.224-0.5-0.5v-29c0-0.276,0.224-0.5,0.5-0.5h12.685 C44.965,35,48,39.157,48,43.277c0,2.769-1.968,4.775-3.051,5.67C46.541,49.798,50,52.166,50,56.696C50,61.508,45.519,65,39.344,65z M26,64h13.344C44.938,64,49,60.929,49,56.696c0-5.154-4.977-7.105-5.188-7.186c-0.177-0.067-0.3-0.228-0.32-0.415 c-0.02-0.188,0.068-0.371,0.227-0.473C43.75,48.602,47,46.465,47,43.277C47,39.92,44.691,36,38.185,36H26V64z M38.914,60H30.5 c-0.276,0-0.5-0.224-0.5-0.5v-7c0-0.276,0.224-0.5,0.5-0.5h8.414C41.813,52,44,53.72,44,56S41.813,60,38.914,60z M31,59h7.914 C41.205,59,43,57.683,43,56s-1.795-3-4.086-3H31V59z M37.686,48H30.5c-0.276,0-0.5-0.224-0.5-0.5v-7c0-0.276,0.224-0.5,0.5-0.5 h7.186C40.765,40,43,41.683,43,44S40.765,48,37.686,48z M31,47h6.686c2.5,0,4.314-1.262,4.314-3s-1.814-3-4.314-3H31V47z"/><path fill="#1f212b" d="M64.25,65c-3.563,0-6.019-1.896-7.25-3.147V64.5c0,0.276-0.224,0.5-0.5,0.5h-5 c-0.276,0-0.5-0.224-0.5-0.5v-29c0-0.276,0.224-0.5,0.5-0.5h5c0.276,0,0.5,0.224,0.5,0.5v9.647C58.231,43.896,60.687,42,64.25,42 C70.579,42,75,46.729,75,53.5S70.579,65,64.25,65z M56.5,60c0.161,0,0.316,0.078,0.411,0.216C56.938,60.254,59.585,64,64.25,64 C69.99,64,74,59.683,74,53.5S69.99,43,64.25,43c-4.665,0-7.313,3.746-7.339,3.784c-0.124,0.18-0.354,0.259-0.56,0.192 C56.143,46.912,56,46.719,56,46.5V36h-4v28h4v-3.5c0-0.219,0.143-0.412,0.352-0.477C56.4,60.008,56.45,60,56.5,60z M63.5,61 c-3.584,0-6.5-3.364-6.5-7.5s2.916-7.5,6.5-7.5s6.5,3.364,6.5,7.5S67.084,61,63.5,61z M63.5,47c-3.032,0-5.5,2.916-5.5,6.5 s2.468,6.5,5.5,6.5s5.5-2.916,5.5-6.5S66.532,47,63.5,47z"/><path fill="#1f212b" d="M78,83H22c-2.757,0-5-2.243-5-5V22c0-2.757,2.243-5,5-5h56c2.757,0,5,2.243,5,5v56 C83,80.757,80.757,83,78,83z M22,19c-1.654,0-3,1.346-3,3v56c0,1.654,1.346,3,3,3h56c1.654,0,3-1.346,3-3V22c0-1.654-1.346-3-3-3 H22z"/><path fill="#1f212b" d="M65.5,78h-43c-0.276,0-0.5-0.224-0.5-0.5s0.224-0.5,0.5-0.5h43c0.276,0,0.5,0.224,0.5,0.5 S65.776,78,65.5,78z"/><path fill="#1f212b" d="M31.5,23h-9c-0.276,0-0.5-0.224-0.5-0.5s0.224-0.5,0.5-0.5h9c0.276,0,0.5,0.224,0.5,0.5 S31.776,23,31.5,23z"/><path fill="#1f212b" d="M77.5,23h-41c-0.276,0-0.5-0.224-0.5-0.5s0.224-0.5,0.5-0.5h41c0.276,0,0.5,0.224,0.5,0.5 S77.776,23,77.5,23z"/><path fill="#1f212b" d="M77.5,78h-2c-0.276,0-0.5-0.224-0.5-0.5s0.224-0.5,0.5-0.5h2c0.276,0,0.5,0.224,0.5,0.5 S77.776,78,77.5,78z"/><path fill="#1f212b" d="M72.5,78h-4c-0.276,0-0.5-0.224-0.5-0.5s0.224-0.5,0.5-0.5h4c0.276,0,0.5,0.224,0.5,0.5 S72.776,78,72.5,78z"/></svg>