<svg width="1080" height="1080" viewBox="0 0 1080 1080" fill="none" xmlns="http://www.w3.org/2000/svg">
<path d="M340 717C340 661.772 384.772 617 440 617H540V717C540 772.228 495.228 817 440 817C384.772 817 340 772.228 340 717Z" fill="#24CB71"/>
<path d="M540 217V417H640C695.228 417 740 372.228 740 317C740 261.772 695.228 217 640 217H540Z" fill="#FF7237"/>
<path d="M639.167 617C694.395 617 739.167 572.228 739.167 517C739.167 461.772 694.395 417 639.167 417C583.939 417 539.167 461.772 539.167 517C539.167 572.228 583.939 617 639.167 617Z" fill="#00B6FF"/>
<path d="M340 317C340 372.228 384.772 417 440 417H540V217H440C384.772 217 340 261.772 340 317Z" fill="#FF3737"/>
<path d="M340 517C340 572.228 384.772 617 440 617H540V417H440C384.772 417 340 461.772 340 517Z" fill="#874FFF"/>
</svg>
