<svg xmlns="http://www.w3.org/2000/svg" xml:space="preserve" viewBox="0 0 1010 1002.578" id="market">
  <path fill="#545454" d="m1004.52 925.548-71.598 71.6c-7.264 7.24-19.1 7.24-26.363 0L695.17 785.714c-7.308-7.24-7.308-19.032 0-26.295l18.874-18.898-39.362-39.43-7.846 7.846c-5.022 5.02-13.18 5.02-18.247 0l-21.565-21.654c-151.581 121.52-373.46 112.082-514.012-28.447-150.684-150.73-150.684-395.092 0-545.798 150.73-150.707 395.07-150.73 545.843 0 137.906 137.95 149.52 354.36 34.882 505.65l22.593 22.528c5.023 5.022 5.023 13.204 0 18.225l-7.8 7.8 21.789 21.789 17.574 17.642L766.77 687.8c7.263-7.286 19.097-7.286 26.361 0l197.58 197.557 13.81 13.83c7.305 7.286 7.305 19.076 0 26.362zM609.45 163.544c-122.843-122.867-321.991-122.867-444.834 0-122.843 122.797-122.798 321.968 0 444.81 122.843 122.753 321.991 122.798 444.834.045 122.843-122.932 122.843-322.058 0-444.855z"></path>
  <g fill="#DAB466">
    <path d="M262.173 480.357v87.715c0 4.371-3.587 7.935-7.935 7.935h-45.282c-4.349 0-7.935-3.564-7.935-7.935v-87.715c0-4.372 3.586-7.936 7.935-7.936h45.282c4.348 0 7.935 3.564 7.935 7.936zM439.084 435.456h-45.282c-4.348 0-7.89 3.587-7.89 7.936v124.68c0 4.371 3.542 7.935 7.89 7.935h45.282c4.349 0 7.936-3.564 7.936-7.935v-124.68c0-4.35-3.587-7.936-7.936-7.936zM346.639 395.644h-45.282c-4.349 0-7.89 3.564-7.89 7.935v164.493c0 4.371 3.541 7.935 7.89 7.935h45.282a7.935 7.935 0 0 0 7.935-7.935V403.579a7.935 7.935 0 0 0-7.935-7.935zM531.486 357.267h-45.237a7.935 7.935 0 0 0-7.935 7.936v202.869a7.935 7.935 0 0 0 7.935 7.934h45.237a7.936 7.936 0 0 0 7.936-7.934v-202.87a7.937 7.937 0 0 0-7.936-7.935z"></path>
  </g>
  <path fill="#545454" d="M585.734 181.79 453.52 218.015c-4.214 1.121-5.11 4.595-2.017 7.69l34.88 34.946-72.853 72.832c-3.094 3.093-8.16 3.093-11.209 0l-69.85-69.805a7.929 7.929 0 0 0-11.209 0L204.518 380.4c-3.094 3.093-3.094 8.16 0 11.23l14.032 14.01a7.928 7.928 0 0 0 11.208 0l91.504-91.459a7.929 7.929 0 0 1 11.21 0l69.85 69.805c3.048 3.116 8.114 3.116 11.208 0l98.094-98.117 33.131 33.132c3.139 3.093 6.638 2.174 7.893-1.995l38.51-129.725c1.255-4.193-1.21-6.657-5.424-5.492z"></path>
</svg>
