<svg version="1.1" id="Layer_1" xmlns="http://www.w3.org/2000/svg" xmlns:xlink="http://www.w3.org/1999/xlink" x="0px" y="0px"
	 width="100%" viewBox="0 0 886 886" enable-background="new 0 0 886 886" xml:space="preserve">
<path fill="#FFFFFF" opacity="1.000000" stroke="none" 
	d="
M447.000000,1.000002 
	C593.649414,1.000000 740.298767,1.000000 886.974121,1.000000 
	C886.974121,296.281281 886.974121,591.562561 886.974121,886.921875 
	C591.753540,886.921875 296.507019,886.921875 1.130263,886.921875 
	C1.130263,591.788330 1.130263,296.576599 1.130263,1.000000 
	C145.361160,1.000000 289.722626,1.000000 434.304199,1.298117 
	C412.512299,5.475572 399.545166,18.936567 395.818756,41.352856 
	C395.587158,42.746044 393.243164,44.508453 391.623871,44.840584 
	C372.760712,48.709576 353.811523,52.165234 334.978790,56.170826 
	C331.165344,56.981915 329.572601,56.325382 327.591766,53.038799 
	C319.254608,39.205933 306.714661,31.650333 290.633636,31.097378 
	C260.278717,30.053610 237.917694,57.779343 245.187439,87.266357 
	C246.157761,91.202057 245.144852,92.696693 241.952118,94.652672 
	C230.043198,101.948524 218.292313,109.512138 206.646866,117.224045 
	C201.144760,120.867683 196.015656,125.074554 190.765045,128.990799 
	C179.524216,119.376144 166.974091,114.930183 152.590225,117.804245 
	C118.468010,124.622261 103.957542,161.395676 124.169800,189.654404 
	C126.173126,192.455246 125.928551,194.116013 123.945694,196.951111 
	C113.656998,211.661835 103.627296,226.558136 93.742638,241.544937 
	C89.468925,248.024582 89.733192,248.159470 81.917152,246.514160 
	C80.138351,246.139725 78.256828,245.772995 76.479492,245.955811 
	C69.136497,246.711166 61.815365,247.679062 53.991096,248.628967 
	C53.991096,227.553635 53.991096,205.673431 53.991096,183.294647 
	C40.285831,183.294647 27.156521,183.264343 14.027444,183.306259 
	C6.404549,183.330597 5.996318,183.803696 5.996310,191.588501 
	C5.996140,356.407562 5.996184,521.226624 5.996196,686.045715 
	C5.996196,686.878967 6.093997,687.725952 5.979835,688.543213 
	C5.419988,692.551270 7.474527,693.920288 11.135307,693.890320 
	C16.967739,693.842651 22.800856,693.879395 28.633684,693.879639 
	C36.917179,693.880066 45.200672,693.879761 54.001015,693.879761 
	C54.001015,674.403625 54.001015,655.500122 54.001015,636.159424 
	C55.689350,636.649109 56.803574,636.881714 57.849308,637.289795 
	C66.663643,640.729248 75.753662,641.102722 84.757317,638.741577 
	C88.666023,637.716553 90.125267,638.785156 92.165665,641.923096 
	C102.487915,657.797485 113.084885,673.495667 123.768311,689.130676 
	C125.592178,691.799866 126.086449,693.532043 123.916008,696.394165 
	C115.661713,707.279053 112.494278,719.620911 115.629158,733.021729 
	C123.293945,765.786621 159.612335,779.480164 186.928635,759.886108 
	C190.098862,757.612061 191.907364,758.123779 194.642288,760.087219 
	C205.439392,767.838379 216.292892,775.518188 227.298767,782.968445 
	C233.318939,787.043762 239.685791,790.606873 245.827255,794.358826 
	C237.095886,823.316223 253.168427,842.906311 268.511108,850.364868 
	C286.360992,859.042175 314.258636,857.831421 329.712158,829.838928 
	C348.122467,833.487915 366.235901,837.706116 384.572449,840.412842 
	C392.231750,841.543518 395.555450,843.502686 397.044037,851.627808 
	C400.411530,870.008789 418.658417,886.341125 443.937683,885.097229 
	C462.816345,884.168335 480.833466,869.089783 484.789978,849.850769 
	C485.314850,847.298767 485.716919,844.721436 486.043365,842.896362 
	C508.305176,838.469360 529.875549,834.179810 551.562317,829.867188 
	C564.390930,854.467285 589.608704,859.703735 609.600708,851.778015 
	C631.672913,843.027588 641.008118,822.441772 635.585571,795.566345 
	C653.393677,783.226929 670.904907,771.192017 688.273499,758.954651 
	C690.958008,757.063171 692.068420,758.765930 693.755676,760.050903 
	C712.633240,774.428223 739.082092,771.779785 754.359680,754.573486 
	C770.368225,736.543884 770.708923,715.460571 756.539551,695.737366 
	C755.888611,694.831299 755.426453,693.789612 755.396606,693.736450 
	C767.983276,674.925049 780.165527,656.718079 792.612122,638.116028 
	C806.121643,643.078979 819.586487,640.561584 833.188843,633.260437 
	C833.188843,654.125977 833.188843,673.879761 833.188843,694.003601 
	C847.642212,694.003601 861.612610,694.027222 875.582886,693.991882 
	C881.127869,693.977905 882.995178,692.076721 882.995483,686.452881 
	C883.005798,521.467163 883.005432,356.481445 882.997070,191.495712 
	C882.996765,185.865112 881.206848,184.030807 875.584778,184.011169 
	C862.586121,183.965744 849.587097,183.987000 836.588318,184.015930 
	C835.486084,184.018387 834.384399,184.280594 832.759521,184.489288 
	C832.759521,207.411774 832.759521,230.100006 832.759521,253.478867 
	C821.023987,246.549011 809.200623,244.039505 796.697571,247.504532 
	C792.864929,248.566696 791.156433,247.687973 789.181824,244.446655 
	C782.434387,233.370682 775.468445,222.420425 768.306519,211.607208 
	C764.188538,205.389771 759.531921,199.529022 755.156616,193.560715 
	C770.781860,169.306442 770.527649,148.606125 754.499451,132.027344 
	C736.980652,113.906944 717.153442,112.918747 690.436584,128.966431 
	C689.190186,128.029572 687.907532,126.982658 686.544495,126.053627 
	C672.523682,116.497314 658.634216,106.737724 644.403992,97.503494 
	C636.282349,92.233284 636.031067,92.623116 637.752808,82.954628 
	C637.840210,82.463791 637.872070,81.962662 637.921204,81.465477 
	C640.075073,59.643463 627.628174,40.534649 606.742798,33.598270 
	C586.185120,26.770729 564.995972,34.732178 553.906860,53.652660 
	C552.177490,56.603371 550.648376,57.071205 547.203796,56.338417 
	C528.213623,52.298557 509.138641,48.648376 490.052032,45.082420 
	C487.323395,44.572628 486.217743,43.900124 485.822235,40.922832 
	C483.245392,21.525640 470.783051,7.538033 452.075745,2.575906 
	C450.364838,2.122094 448.691040,1.528628 447.000000,1.000002 
z"/>
<path fill="#B09877" opacity="1.000000" stroke="none" 
	d="
M446.539368,1.000002 
	C448.691040,1.528628 450.364838,2.122094 452.075745,2.575906 
	C470.783051,7.538033 483.245392,21.525640 485.822235,40.922832 
	C486.217743,43.900124 487.323395,44.572628 490.052032,45.082420 
	C509.138641,48.648376 528.213623,52.298557 547.203796,56.338417 
	C550.648376,57.071205 552.177490,56.603371 553.906860,53.652660 
	C564.995972,34.732178 586.185120,26.770729 606.742798,33.598270 
	C627.628174,40.534649 640.075073,59.643463 637.921204,81.465477 
	C637.872070,81.962662 637.840210,82.463791 637.752808,82.954628 
	C636.031067,92.623116 636.282349,92.233284 644.403992,97.503494 
	C658.634216,106.737724 672.523682,116.497314 686.544495,126.053627 
	C687.907532,126.982658 689.190186,128.029572 690.436584,128.966431 
	C717.153442,112.918747 736.980652,113.906944 754.499451,132.027344 
	C770.527649,148.606125 770.781860,169.306442 755.156616,193.560715 
	C759.531921,199.529022 764.188538,205.389771 768.306519,211.607208 
	C775.468445,222.420425 782.434387,233.370682 789.181824,244.446655 
	C791.156433,247.687973 792.864929,248.566696 796.697571,247.504532 
	C809.200623,244.039505 821.023987,246.549011 832.759521,253.478867 
	C832.759521,230.100006 832.759521,207.411774 832.759521,184.489288 
	C834.384399,184.280594 835.486084,184.018387 836.588318,184.015930 
	C849.587097,183.987000 862.586121,183.965744 875.584778,184.011169 
	C881.206848,184.030807 882.996765,185.865112 882.997070,191.495712 
	C883.005432,356.481445 883.005798,521.467163 882.995483,686.452881 
	C882.995178,692.076721 881.127869,693.977905 875.582886,693.991882 
	C861.612610,694.027222 847.642212,694.003601 833.188843,694.003601 
	C833.188843,673.879761 833.188843,654.125977 833.188843,633.260437 
	C819.586487,640.561584 806.121643,643.078979 792.612122,638.116028 
	C780.165527,656.718079 767.983276,674.925049 755.396606,693.736450 
	C755.426453,693.789612 755.888611,694.831299 756.539551,695.737366 
	C770.708923,715.460571 770.368225,736.543884 754.359680,754.573486 
	C739.082092,771.779785 712.633240,774.428223 693.755676,760.050903 
	C692.068420,758.765930 690.958008,757.063171 688.273499,758.954651 
	C670.904907,771.192017 653.393677,783.226929 635.585571,795.566345 
	C641.008118,822.441772 631.672913,843.027588 609.600708,851.778015 
	C589.608704,859.703735 564.390930,854.467285 551.562317,829.867188 
	C529.875549,834.179810 508.305176,838.469360 486.043365,842.896362 
	C485.716919,844.721436 485.314850,847.298767 484.789978,849.850769 
	C480.833466,869.089783 462.816345,884.168335 443.937683,885.097229 
	C418.658417,886.341125 400.411530,870.008789 397.044037,851.627808 
	C395.555450,843.502686 392.231750,841.543518 384.572449,840.412842 
	C366.235901,837.706116 348.122467,833.487915 329.712158,829.838928 
	C314.258636,857.831421 286.360992,859.042175 268.511108,850.364868 
	C253.168427,842.906311 237.095886,823.316223 245.827255,794.358826 
	C239.685791,790.606873 233.318939,787.043762 227.298767,782.968445 
	C216.292892,775.518188 205.439392,767.838379 194.642288,760.087219 
	C191.907364,758.123779 190.098862,757.612061 186.928635,759.886108 
	C159.612335,779.480164 123.293945,765.786621 115.629158,733.021729 
	C112.494278,719.620911 115.661713,707.279053 123.916008,696.394165 
	C126.086449,693.532043 125.592178,691.799866 123.768311,689.130676 
	C113.084885,673.495667 102.487915,657.797485 92.165665,641.923096 
	C90.125267,638.785156 88.666023,637.716553 84.757317,638.741577 
	C75.753662,641.102722 66.663643,640.729248 57.849308,637.289795 
	C56.803574,636.881714 55.689350,636.649109 54.001015,636.159424 
	C54.001015,655.500122 54.001015,674.403625 54.001015,693.879761 
	C45.200672,693.879761 36.917179,693.880066 28.633684,693.879639 
	C22.800856,693.879395 16.967739,693.842651 11.135307,693.890320 
	C7.474527,693.920288 5.419988,692.551270 5.979835,688.543213 
	C6.093997,687.725952 5.996196,686.878967 5.996196,686.045715 
	C5.996184,521.226624 5.996140,356.407562 5.996310,191.588501 
	C5.996318,183.803696 6.404549,183.330597 14.027444,183.306259 
	C27.156521,183.264343 40.285831,183.294647 53.991096,183.294647 
	C53.991096,205.673431 53.991096,227.553635 53.991096,248.628967 
	C61.815365,247.679062 69.136497,246.711166 76.479492,245.955811 
	C78.256828,245.772995 80.138351,246.139725 81.917152,246.514160 
	C89.733192,248.159470 89.468925,248.024582 93.742638,241.544937 
	C103.627296,226.558136 113.656998,211.661835 123.945694,196.951111 
	C125.928551,194.116013 126.173126,192.455246 124.169800,189.654404 
	C103.957542,161.395676 118.468010,124.622261 152.590225,117.804245 
	C166.974091,114.930183 179.524216,119.376144 190.765045,128.990799 
	C196.015656,125.074554 201.144760,120.867683 206.646866,117.224045 
	C218.292313,109.512138 230.043198,101.948524 241.952118,94.652672 
	C245.144852,92.696693 246.157761,91.202057 245.187439,87.266357 
	C237.917694,57.779343 260.278717,30.053610 290.633636,31.097378 
	C306.714661,31.650333 319.254608,39.205933 327.591766,53.038799 
	C329.572601,56.325382 331.165344,56.981915 334.978790,56.170826 
	C353.811523,52.165234 372.760712,48.709576 391.623871,44.840584 
	C393.243164,44.508453 395.587158,42.746044 395.818756,41.352856 
	C399.545166,18.936567 412.512299,5.475572 434.762146,1.298117 
	C438.692902,1.000000 442.385834,1.000000 446.539368,1.000002 
M17.023346,256.993713 
	C15.183835,324.928436 15.415177,392.858765 17.608540,460.786530 
	C20.879469,392.584839 20.516836,324.359924 18.948469,255.206894 
	C18.644241,250.848145 18.340014,246.489395 18.035786,242.130646 
	C17.727522,242.153168 17.419256,242.175690 17.110992,242.198212 
	C17.110992,246.822723 17.110992,251.447250 17.023346,256.993713 
M758.580872,225.917191 
	C735.727905,192.550186 708.329346,163.487732 676.337646,138.723602 
	C618.753113,94.148537 553.649475,67.958565 481.373627,60.360989 
	C460.633606,58.180813 439.539673,58.805054 418.619049,59.057667 
	C395.960815,59.331268 373.640381,63.181984 351.644836,68.445610 
	C287.057312,83.901642 230.089905,114.055885 181.079025,158.802734 
	C137.111771,198.944748 104.038849,246.795639 82.256447,302.313751 
	C66.938789,341.354767 58.234097,381.861816 56.229126,423.715210 
	C55.145233,446.341217 55.938301,468.939545 58.784569,491.496307 
	C63.186203,526.379333 72.001236,560.036804 85.628342,592.391663 
	C111.288872,653.317627 150.292313,704.198669 201.978378,745.338867 
	C239.765961,775.416382 281.858154,797.491394 328.042389,811.516174 
	C355.916901,819.980774 384.401855,825.359314 413.589325,827.214478 
	C440.268311,828.910217 466.834412,828.393066 493.259796,824.755920 
	C519.297241,821.172241 544.769531,815.004456 569.572510,806.090698 
	C642.570679,779.856628 702.290649,735.630798 749.023987,673.851135 
	C777.129761,636.696350 797.407959,595.560181 810.429749,550.837402 
	C818.505493,523.101257 823.726929,494.802704 824.854736,465.968658 
	C825.581055,447.401184 824.837708,428.741699 824.006470,410.156830 
	C823.030090,388.327209 818.790833,366.917999 813.269165,345.826660 
	C802.046753,302.960175 784.139893,263.071045 758.580872,225.917191 
M871.116028,375.548279 
	C871.116028,354.589783 871.235168,333.630402 871.082397,312.673004 
	C870.929688,291.718872 870.504944,270.766693 870.199463,249.813660 
	C869.726685,249.818604 869.253967,249.823532 868.781189,249.828461 
	C866.301880,316.075897 866.807495,382.326263 868.288757,448.577576 
	C868.976746,448.584351 869.664734,448.591095 870.352722,448.597870 
	C870.607178,424.576904 870.861694,400.555939 871.116028,375.548279 
M23.347862,308.866394 
	C23.680334,351.771698 24.012806,394.677002 24.345276,437.582306 
	C24.794821,437.578278 25.244366,437.574280 25.693911,437.570251 
	C28.307640,375.948822 28.520557,314.328644 25.596315,252.702850 
	C24.950428,258.474640 24.516157,264.250031 24.343977,270.033234 
	C23.967907,282.664764 23.725046,295.300232 23.347862,308.866394 
M863.866821,340.500000 
	C863.393311,309.747345 862.919861,278.994659 862.446350,248.242004 
	C858.999451,309.218567 858.693359,370.177704 861.095520,431.135437 
	C861.607422,431.141815 862.119263,431.148193 862.631104,431.154572 
	C863.042969,401.269714 863.454773,371.384857 863.866821,340.500000 
M30.981573,347.500000 
	C31.033091,354.826355 31.006910,362.154327 31.157999,369.478607 
	C31.308830,376.790558 31.611027,384.099792 31.895233,391.408356 
	C32.167965,398.421906 32.502728,405.433014 32.810230,412.445190 
	C33.325123,412.427094 33.840012,412.409027 34.354900,412.390930 
	C34.354900,360.361389 34.354900,308.331818 34.354900,256.302277 
	C33.665764,256.294373 32.976627,256.286438 32.287491,256.278534 
	C31.852177,286.352356 31.416866,316.426178 30.981573,347.500000 
M851.984009,323.500000 
	C851.984009,349.719879 851.984009,375.939758 851.984009,402.159637 
	C852.916077,402.160858 853.848206,402.162109 854.780273,402.163330 
	C856.863831,356.322540 856.487976,310.470673 854.800354,264.612885 
	C854.229675,264.603088 853.658997,264.593262 853.088379,264.583435 
	C852.720215,283.888947 852.352112,303.194489 851.984009,323.500000 
M838.981323,587.500061 
	C838.981323,614.207764 838.981323,640.915466 838.981323,667.623108 
	C839.453491,667.623413 839.925720,667.623657 840.397888,667.623901 
	C844.026367,651.773926 843.939209,554.721619 838.981506,547.593811 
	C838.981506,560.562561 838.981506,573.531250 838.981323,587.500061 
M48.001354,630.499329 
	C48.038754,621.185303 48.123680,611.871094 48.100178,602.557251 
	C48.076679,593.244324 48.073856,583.928284 47.823532,574.619995 
	C47.579620,565.550110 47.033894,556.488281 46.620678,547.422852 
	C43.455818,584.397888 43.327675,621.350220 45.071342,658.309326 
	C45.671410,658.335327 46.271477,658.361389 46.871544,658.387451 
	C47.228977,649.423889 47.586414,640.460388 48.001354,630.499329 
M849.107971,546.534668 
	C846.530457,580.602478 846.433350,614.657104 849.446594,648.697815 
	C850.087341,643.731689 850.778442,638.765747 850.801208,633.796814 
	C850.914795,609.015259 850.933350,584.232361 850.779297,559.451172 
	C850.751160,554.919922 849.768860,550.394592 849.107971,546.534668 
M38.877556,560.625244 
	C38.480682,555.158264 38.083813,549.691284 37.686943,544.224243 
	C34.580986,578.756409 34.424492,613.272339 37.151627,647.785217 
	C37.743286,647.785706 38.334942,647.786255 38.926601,647.786804 
	C38.926601,619.056213 38.926601,590.325684 38.877556,560.625244 
M31.017891,596.497986 
	C30.954416,579.725098 31.439730,562.923279 29.145969,546.268127 
	C28.691051,546.281799 28.236134,546.295471 27.781216,546.309143 
	C27.781216,573.405518 27.781216,600.501953 27.781216,627.598328 
	C28.385471,627.619751 28.989725,627.641113 29.593981,627.662537 
	C30.067640,617.607117 30.541300,607.551758 31.017891,596.497986 
M856.964355,554.658447 
	C855.293518,578.841858 855.513245,602.999512 858.007629,627.130737 
	C860.519104,601.864563 860.817505,576.602173 858.841248,551.339661 
	C858.400696,551.290588 857.960205,551.241516 857.519653,551.192505 
	C857.340759,552.056946 857.161926,552.921387 856.964355,554.658447 
z"/>
<path fill="#FEFDFD" opacity="1.000000" stroke="none" 
	d="
M758.791199,226.209717 
	C784.139893,263.071045 802.046753,302.960175 813.269165,345.826660 
	C818.790833,366.917999 823.030090,388.327209 824.006470,410.156830 
	C824.837708,428.741699 825.581055,447.401184 824.854736,465.968658 
	C823.726929,494.802704 818.505493,523.101257 810.429749,550.837402 
	C797.407959,595.560181 777.129761,636.696350 749.023987,673.851135 
	C702.290649,735.630798 642.570679,779.856628 569.572510,806.090698 
	C544.769531,815.004456 519.297241,821.172241 493.259796,824.755920 
	C466.834412,828.393066 440.268311,828.910217 413.589325,827.214478 
	C384.401855,825.359314 355.916901,819.980774 328.042389,811.516174 
	C281.858154,797.491394 239.765961,775.416382 201.978378,745.338867 
	C150.292313,704.198669 111.288872,653.317627 85.628342,592.391663 
	C72.001236,560.036804 63.186203,526.379333 58.784569,491.496307 
	C55.938301,468.939545 55.145233,446.341217 56.229126,423.715210 
	C58.234097,381.861816 66.938789,341.354767 82.256447,302.313751 
	C104.038849,246.795639 137.111771,198.944748 181.079025,158.802734 
	C230.089905,114.055885 287.057312,83.901642 351.644836,68.445610 
	C373.640381,63.181984 395.960815,59.331268 418.619049,59.057667 
	C439.539673,58.805054 460.633606,58.180813 481.373627,60.360989 
	C553.649475,67.958565 618.753113,94.148537 676.337646,138.723602 
	C708.329346,163.487732 735.727905,192.550186 758.791199,226.209717 
M64.994141,442.500000 
	C66.300255,461.050171 66.778305,479.703918 69.083603,498.129059 
	C73.994209,537.377258 86.131523,574.572998 103.753059,609.941345 
	C127.704491,658.014404 160.270294,699.299194 201.852097,733.386353 
	C265.865387,785.861938 339.361816,814.139526 421.862152,818.702759 
	C450.495331,820.286560 479.038727,818.375061 507.372650,813.203613 
	C579.559509,800.028198 642.516663,768.464172 696.377014,718.815002 
	C731.421997,686.510010 759.009766,648.612915 779.767456,605.674683 
	C804.272888,554.984131 816.108704,501.363617 816.669922,445.271820 
	C816.834045,428.863800 815.707703,412.329987 813.692871,396.036865 
	C809.663452,363.451935 801.607727,331.793915 788.917664,301.400543 
	C754.403076,218.736435 698.021057,155.456100 619.471497,112.582321 
	C560.569885,80.432785 497.201599,65.739098 429.934906,67.704620 
	C401.327576,68.540520 373.187012,72.197212 345.641235,79.553787 
	C264.664764,101.179955 197.599091,144.691910 145.711380,210.477493 
	C92.421402,278.040894 65.512352,355.272858 64.994141,442.500000 
z"/>
<path fill="#FBF9F7" opacity="1.000000" stroke="none" 
	d="
M871.116089,376.041626 
	C870.861694,400.555939 870.607178,424.576904 870.352722,448.597870 
	C869.664734,448.591095 868.976746,448.584351 868.288757,448.577576 
	C866.807495,382.326263 866.301880,316.075897 868.781189,249.828461 
	C869.253967,249.823532 869.726685,249.818604 870.199463,249.813660 
	C870.504944,270.766693 870.929688,291.718872 871.082397,312.673004 
	C871.235168,333.630402 871.116028,354.589783 871.116089,376.041626 
z"/>
<path fill="#FBFAF8" opacity="1.000000" stroke="none" 
	d="
M18.784973,256.126129 
	C20.516836,324.359924 20.879469,392.584839 17.608540,460.786530 
	C15.415177,392.858765 15.183835,324.928436 17.346523,256.510956 
	C18.041456,256.060852 18.413216,256.093475 18.784973,256.126129 
z"/>
<path fill="#FBFAF9" opacity="1.000000" stroke="none" 
	d="
M23.387814,308.400269 
	C23.725046,295.300232 23.967907,282.664764 24.343977,270.033234 
	C24.516157,264.250031 24.950428,258.474640 25.596315,252.702850 
	C28.520557,314.328644 28.307640,375.948822 25.693911,437.570251 
	C25.244366,437.574280 24.794821,437.578278 24.345276,437.582306 
	C24.012806,394.677002 23.680334,351.771698 23.387814,308.400269 
z"/>
<path fill="#FAF9F7" opacity="1.000000" stroke="none" 
	d="
M863.866699,341.000000 
	C863.454773,371.384857 863.042969,401.269714 862.631104,431.154572 
	C862.119263,431.148193 861.607422,431.141815 861.095520,431.135437 
	C858.693359,370.177704 858.999451,309.218567 862.446350,248.242004 
	C862.919861,278.994659 863.393311,309.747345 863.866699,341.000000 
z"/>
<path fill="#FBF9F7" opacity="1.000000" stroke="none" 
	d="
M30.981564,347.000000 
	C31.416866,316.426178 31.852177,286.352356 32.287491,256.278534 
	C32.976627,256.286438 33.665764,256.294373 34.354900,256.302277 
	C34.354900,308.331818 34.354900,360.361389 34.354900,412.390930 
	C33.840012,412.409027 33.325123,412.427094 32.810230,412.445190 
	C32.502728,405.433014 32.167965,398.421906 31.895233,391.408356 
	C31.611027,384.099792 31.308830,376.790558 31.157999,369.478607 
	C31.006910,362.154327 31.033091,354.826355 30.981564,347.000000 
z"/>
<path fill="#FBFAF8" opacity="1.000000" stroke="none" 
	d="
M851.984009,323.000000 
	C852.352112,303.194489 852.720215,283.888947 853.088379,264.583435 
	C853.658997,264.593262 854.229675,264.603088 854.800354,264.612885 
	C856.487976,310.470673 856.863831,356.322540 854.780273,402.163330 
	C853.848206,402.162109 852.916077,402.160858 851.984009,402.159637 
	C851.984009,375.939758 851.984009,349.719879 851.984009,323.000000 
z"/>
<path fill="#FBF9F7" opacity="1.000000" stroke="none" 
	d="
M838.981445,587.000000 
	C838.981506,573.531250 838.981506,560.562561 838.981506,547.593811 
	C843.939209,554.721619 844.026367,651.773926 840.397888,667.623901 
	C839.925720,667.623657 839.453491,667.623413 838.981323,667.623108 
	C838.981323,640.915466 838.981323,614.207764 838.981445,587.000000 
z"/>
<path fill="#FBFAF8" opacity="1.000000" stroke="none" 
	d="
M47.972603,630.998108 
	C47.586414,640.460388 47.228977,649.423889 46.871544,658.387451 
	C46.271477,658.361389 45.671410,658.335327 45.071342,658.309326 
	C43.327675,621.350220 43.455818,584.397888 46.620678,547.422852 
	C47.033894,556.488281 47.579620,565.550110 47.823532,574.619995 
	C48.073856,583.928284 48.076679,593.244324 48.100178,602.557251 
	C48.123680,611.871094 48.038754,621.185303 47.972603,630.998108 
z"/>
<path fill="#FBFAF8" opacity="1.000000" stroke="none" 
	d="
M849.167480,546.200562 
	C849.768860,550.394592 850.751160,554.919922 850.779297,559.451172 
	C850.933350,584.232361 850.914795,609.015259 850.801208,633.796814 
	C850.778442,638.765747 850.087341,643.731689 849.446594,648.697815 
	C846.433350,614.657104 846.530457,580.602478 849.167480,546.200562 
z"/>
<path fill="#FBFAF8" opacity="1.000000" stroke="none" 
	d="
M38.902077,561.110168 
	C38.926601,590.325684 38.926601,619.056213 38.926601,647.786804 
	C38.334942,647.786255 37.743286,647.785706 37.151627,647.785217 
	C34.424492,613.272339 34.580986,578.756409 37.686943,544.224243 
	C38.083813,549.691284 38.480682,555.158264 38.902077,561.110168 
z"/>
<path fill="#FBF9F7" opacity="1.000000" stroke="none" 
	d="
M31.016426,596.997192 
	C30.541300,607.551758 30.067640,617.607117 29.593981,627.662537 
	C28.989725,627.641113 28.385471,627.619751 27.781216,627.598328 
	C27.781216,600.501953 27.781216,573.405518 27.781216,546.309143 
	C28.236134,546.295471 28.691051,546.281799 29.145969,546.268127 
	C31.439730,562.923279 30.954416,579.725098 31.016426,596.997192 
z"/>
<path fill="#FBFAF8" opacity="1.000000" stroke="none" 
	d="
M856.973755,554.222168 
	C857.161926,552.921387 857.340759,552.056946 857.519653,551.192505 
	C857.960205,551.241516 858.400696,551.290588 858.841248,551.339661 
	C860.817505,576.602173 860.519104,601.864563 858.007629,627.130737 
	C855.513245,602.999512 855.293518,578.841858 856.973755,554.222168 
z"/>
<path fill="#DCD2C2" opacity="1.000000" stroke="none" 
	d="
M18.866722,255.666504 
	C18.413216,256.093475 18.041456,256.060852 17.390347,256.049988 
	C17.110992,251.447250 17.110992,246.822723 17.110992,242.198212 
	C17.419256,242.175690 17.727522,242.153168 18.035786,242.130646 
	C18.340014,246.489395 18.644241,250.848145 18.866722,255.666504 
z"/>
<path fill="#B29A7A" opacity="1.000000" stroke="none" 
	d="
M64.994141,442.000061 
	C65.512352,355.272858 92.421402,278.040894 145.711380,210.477493 
	C197.599091,144.691910 264.664764,101.179955 345.641235,79.553787 
	C373.187012,72.197212 401.327576,68.540520 429.934906,67.704620 
	C497.201599,65.739098 560.569885,80.432785 619.471497,112.582321 
	C698.021057,155.456100 754.403076,218.736435 788.917664,301.400543 
	C801.607727,331.793915 809.663452,363.451935 813.692871,396.036865 
	C815.707703,412.329987 816.834045,428.863800 816.669922,445.271820 
	C816.108704,501.363617 804.272888,554.984131 779.767456,605.674683 
	C759.009766,648.612915 731.421997,686.510010 696.377014,718.815002 
	C642.516663,768.464172 579.559509,800.028198 507.372650,813.203613 
	C479.038727,818.375061 450.495331,820.286560 421.862152,818.702759 
	C339.361816,814.139526 265.865387,785.861938 201.852097,733.386353 
	C160.270294,699.299194 127.704491,658.014404 103.753059,609.941345 
	C86.131523,574.572998 73.994209,537.377258 69.083603,498.129059 
	C66.778305,479.703918 66.300255,461.050171 64.994141,442.000061 
M223.975662,148.453629 
	C212.957275,157.497147 201.370880,165.938309 191.024597,175.694565 
	C156.881989,207.890106 129.557755,245.171722 109.490746,287.699005 
	C88.730492,331.695404 77.440292,378.079742 75.156372,426.557343 
	C73.767944,456.027618 76.059776,485.321594 81.826431,514.361328 
	C96.105446,586.267578 129.348785,648.175476 180.414566,700.386475 
	C215.407654,736.164246 256.520721,763.227417 302.865601,782.351746 
	C339.498596,797.468506 377.739227,805.912170 417.047668,808.678467 
	C440.234741,810.310303 463.586334,809.333862 486.812805,806.325928 
	C528.472656,800.930725 568.074829,789.040466 605.502319,770.060364 
	C652.599976,746.176392 692.795044,713.634521 725.888855,672.480652 
	C746.777710,646.504272 763.562744,618.001587 776.933167,587.461060 
	C794.035706,548.395691 803.338684,507.429596 805.804932,465.010468 
	C806.746521,448.816284 805.880737,432.453491 804.865173,416.228455 
	C803.999512,402.399780 802.411377,388.537933 799.970154,374.900696 
	C792.089966,330.879883 775.829773,289.957642 752.529785,251.858612 
	C732.932739,219.814240 708.892761,191.491776 680.470703,166.867416 
	C646.300537,137.262985 607.947266,114.840553 565.535645,99.313332 
	C530.768311,86.584770 494.840118,79.251511 457.871246,77.988853 
	C439.981934,77.377846 421.959778,77.771812 404.121826,79.229019 
	C378.333313,81.335693 353.047760,86.737488 328.412262,94.808868 
	C290.994812,107.068031 256.291687,124.667564 223.975662,148.453629 
z"/>
<path fill="#FDFDFC" opacity="1.000000" stroke="none" 
	d="
M224.253906,148.225128 
	C256.291687,124.667564 290.994812,107.068031 328.412262,94.808868 
	C353.047760,86.737488 378.333313,81.335693 404.121826,79.229019 
	C421.959778,77.771812 439.981934,77.377846 457.871246,77.988853 
	C494.840118,79.251511 530.768311,86.584770 565.535645,99.313332 
	C607.947266,114.840553 646.300537,137.262985 680.470703,166.867416 
	C708.892761,191.491776 732.932739,219.814240 752.529785,251.858612 
	C775.829773,289.957642 792.089966,330.879883 799.970154,374.900696 
	C802.411377,388.537933 803.999512,402.399780 804.865173,416.228455 
	C805.880737,432.453491 806.746521,448.816284 805.804932,465.010468 
	C803.338684,507.429596 794.035706,548.395691 776.933167,587.461060 
	C763.562744,618.001587 746.777710,646.504272 725.888855,672.480652 
	C692.795044,713.634521 652.599976,746.176392 605.502319,770.060364 
	C568.074829,789.040466 528.472656,800.930725 486.812805,806.325928 
	C463.586334,809.333862 440.234741,810.310303 417.047668,808.678467 
	C377.739227,805.912170 339.498596,797.468506 302.865601,782.351746 
	C256.520721,763.227417 215.407654,736.164246 180.414566,700.386475 
	C129.348785,648.175476 96.105446,586.267578 81.826431,514.361328 
	C76.059776,485.321594 73.767944,456.027618 75.156372,426.557343 
	C77.440292,378.079742 88.730492,331.695404 109.490746,287.699005 
	C129.557755,245.171722 156.881989,207.890106 191.024597,175.694565 
	C201.370880,165.938309 212.957275,157.497147 224.253906,148.225128 
M92.603218,355.043671 
	C86.883522,376.860687 83.529732,399.123596 82.286583,421.556122 
	C81.398132,437.588257 82.096634,453.775482 83.130440,469.826294 
	C83.993721,483.229340 85.990852,496.596802 88.153084,509.871368 
	C93.736076,544.147034 105.647858,576.387878 121.325523,607.194946 
	C135.271805,634.599731 152.612000,659.901306 173.337738,682.606079 
	C191.842178,702.877380 212.061844,721.362366 234.674835,737.183289 
	C269.846710,761.790833 308.074127,779.625244 349.523163,790.642151 
	C371.702881,796.537354 394.313782,800.023071 417.137817,801.854553 
	C427.259674,802.666809 437.509094,802.255188 447.685303,801.925720 
	C458.892365,801.562927 470.164886,801.288330 481.258514,799.830627 
	C495.959167,797.898987 510.644623,795.436768 525.105103,792.175720 
	C558.002686,784.756775 588.819580,771.866028 618.194336,755.366821 
	C645.362488,740.107117 670.349487,721.833313 692.215271,699.719788 
	C705.292358,686.494446 717.226746,672.047607 728.828857,657.476318 
	C747.277527,634.306152 761.284973,608.368286 772.734131,581.157715 
	C782.650818,557.589294 790.437073,533.258545 793.999268,507.808380 
	C796.227295,491.889313 799.147949,475.946869 799.694885,459.944427 
	C800.321533,441.610260 799.557190,423.109070 797.737549,404.845825 
	C796.056396,387.972931 792.787415,371.184753 789.128357,354.599609 
	C783.664124,329.832611 774.312561,306.324768 763.063232,283.648376 
	C743.721130,244.658707 718.471558,209.936600 686.065613,180.752808 
	C673.695801,169.612930 660.844177,158.880341 647.375549,149.116058 
	C622.570129,131.132965 595.427734,117.239960 566.720703,106.522682 
	C546.653076,99.030800 526.170898,92.864746 504.877045,90.021790 
	C487.958618,87.762978 471.005035,85.476608 453.991058,84.325249 
	C442.457489,83.544762 430.740479,84.123558 419.198456,85.144859 
	C402.990631,86.579025 386.770996,88.404274 370.730377,91.098221 
	C333.649567,97.325790 299.031494,110.758705 266.323029,129.057632 
	C235.220520,146.458099 206.775452,167.445343 182.565903,193.801071 
	C173.957306,203.172806 165.121719,212.417221 157.358139,222.467789 
	C138.896820,246.367416 122.896599,271.907532 111.704857,300.036804 
	C104.640221,317.793060 99.141808,336.172485 92.603218,355.043671 
z"/>
<path fill="#444343" opacity="1.000000" stroke="none" 
	d="
M92.772034,354.658020 
	C99.141808,336.172485 104.640221,317.793060 111.704857,300.036804 
	C122.896599,271.907532 138.896820,246.367416 157.358139,222.467789 
	C165.121719,212.417221 173.957306,203.172806 182.565903,193.801071 
	C206.775452,167.445343 235.220520,146.458099 266.323029,129.057632 
	C299.031494,110.758705 333.649567,97.325790 370.730377,91.098221 
	C386.770996,88.404274 402.990631,86.579025 419.198456,85.144859 
	C430.740479,84.123558 442.457489,83.544762 453.991058,84.325249 
	C471.005035,85.476608 487.958618,87.762978 504.877045,90.021790 
	C526.170898,92.864746 546.653076,99.030800 566.720703,106.522682 
	C595.427734,117.239960 622.570129,131.132965 647.375549,149.116058 
	C660.844177,158.880341 673.695801,169.612930 686.065613,180.752808 
	C718.471558,209.936600 743.721130,244.658707 763.063232,283.648376 
	C774.312561,306.324768 783.664124,329.832611 789.128357,354.599609 
	C792.787415,371.184753 796.056396,387.972931 797.737549,404.845825 
	C799.557190,423.109070 800.321533,441.610260 799.694885,459.944427 
	C799.147949,475.946869 796.227295,491.889313 793.999268,507.808380 
	C790.437073,533.258545 782.650818,557.589294 772.734131,581.157715 
	C761.284973,608.368286 747.277527,634.306152 728.828857,657.476318 
	C717.226746,672.047607 705.292358,686.494446 692.215271,699.719788 
	C670.349487,721.833313 645.362488,740.107117 618.194336,755.366821 
	C588.819580,771.866028 558.002686,784.756775 525.105103,792.175720 
	C510.644623,795.436768 495.959167,797.898987 481.258514,799.830627 
	C470.164886,801.288330 458.892365,801.562927 447.685303,801.925720 
	C437.509094,802.255188 427.259674,802.666809 417.137817,801.854553 
	C394.313782,800.023071 371.702881,796.537354 349.523163,790.642151 
	C308.074127,779.625244 269.846710,761.790833 234.674835,737.183289 
	C212.061844,721.362366 191.842178,702.877380 173.337738,682.606079 
	C152.612000,659.901306 135.271805,634.599731 121.325523,607.194946 
	C105.647858,576.387878 93.736076,544.147034 88.153084,509.871368 
	C85.990852,496.596802 83.993721,483.229340 83.130440,469.826294 
	C82.096634,453.775482 81.398132,437.588257 82.286583,421.556122 
	C83.529732,399.123596 86.883522,376.860687 92.772034,354.658020 
M328.904022,421.429871 
	C328.623718,421.266968 328.343445,421.104034 327.904327,420.278290 
	C323.376709,414.764740 317.773743,411.392639 310.485718,413.111877 
	C307.188110,413.889801 304.048584,415.754883 301.110840,417.569550 
	C288.043427,425.641510 274.213196,431.533508 258.640747,431.936890 
	C225.831940,432.786804 203.466812,414.193329 183.018372,391.192749 
	C197.681580,371.318817 216.418396,358.871002 240.642990,355.138702 
	C238.940369,356.699280 236.969955,357.844360 235.095917,359.129944 
	C233.169083,360.451721 231.336288,361.910583 228.440598,364.072235 
	C254.552673,360.198029 258.864685,360.299530 263.733032,364.650208 
	C241.042358,371.259247 228.198639,377.409973 221.772980,384.744415 
	C247.887802,379.165619 264.064270,379.960724 274.987640,387.471771 
	C271.478027,394.196716 265.230713,395.597900 258.337708,395.792145 
	C258.338593,396.290100 258.339508,396.788055 258.340393,397.286011 
	C263.169800,397.850861 267.999176,398.415680 272.866913,398.984985 
	C268.526794,409.288818 259.376129,411.340149 248.321503,411.077759 
	C260.177032,416.274475 272.460327,413.684570 281.347504,404.290863 
	C284.530060,400.926880 287.055969,396.948364 289.960144,393.313080 
	C299.465881,381.414124 307.063904,381.476929 316.193970,393.471436 
	C316.369446,393.701935 316.729187,393.792175 317.185150,394.231995 
	C317.308105,394.372711 317.431061,394.513428 317.554016,394.654144 
	C317.342407,394.445587 317.130829,394.237030 317.086334,393.260986 
	C314.407349,381.320526 305.623810,376.064240 294.734314,374.137726 
	C287.338531,372.829285 279.664276,373.095032 272.114532,372.656799 
	C272.008392,372.298737 271.902222,371.940643 271.796082,371.582550 
	C277.506653,370.487183 283.217224,369.391785 289.272003,368.230408 
	C281.778168,359.839722 272.946320,353.949951 262.154724,350.900665 
	C281.283844,347.500549 299.736664,350.111542 318.707825,355.852264 
	C280.302124,329.445587 204.738693,340.394470 166.900787,389.006012 
	C180.237778,406.646179 195.636337,422.010864 215.669220,432.249634 
	C233.052078,441.134003 250.940445,443.035004 269.811035,437.437866 
	C283.332764,433.427246 296.173157,428.165039 307.566772,419.834900 
	C313.202820,415.714325 318.483307,415.601318 324.096405,419.435577 
	C325.194611,420.185791 326.348450,420.854614 327.989777,421.951324 
	C328.386200,421.892609 328.782593,421.833893 329.279022,422.015350 
	C329.279022,422.015350 329.375153,422.189270 329.375153,422.189270 
	C329.375153,422.189270 329.086823,421.893127 328.904022,421.429871 
M443.919678,628.747009 
	C439.654205,630.441406 437.514801,633.893311 438.005890,638.148621 
	C438.566833,643.009277 439.735504,647.908630 441.420288,652.505188 
	C443.947662,659.400696 447.541534,665.987549 444.953033,673.931763 
	C446.960876,671.044617 449.302734,667.782104 448.892975,664.912537 
	C447.947266,658.289673 445.949707,651.764099 443.843384,645.375549 
	C441.947754,639.626099 440.492950,634.190857 445.639465,628.958191 
	C445.682159,628.723999 445.724854,628.489868 445.767548,628.255676 
	C445.385651,628.388184 445.003754,628.520752 443.919678,628.747009 
M386.139954,535.025146 
	C386.139954,535.025146 386.256531,535.172913 386.256531,535.172913 
	C386.256531,535.172913 386.095367,534.884155 385.842743,534.262024 
	C370.864075,517.935425 365.706909,497.575714 362.167572,476.455505 
	C362.095062,484.716278 362.226074,492.883606 363.190308,500.951385 
	C364.277527,510.048309 366.167175,519.088013 371.844849,526.655457 
	C375.368896,531.352417 379.419586,535.562927 386.139954,535.025146 
M551.029846,558.748901 
	C551.218750,558.333862 551.407715,557.918823 551.358704,556.802429 
	C550.487488,554.473450 549.609497,552.146973 548.746216,549.815125 
	C540.784180,528.306702 538.512390,507.140991 550.138123,485.817352 
	C555.526001,475.935059 556.729309,464.586670 555.911194,453.309082 
	C555.373108,445.892242 554.220093,438.516937 550.226196,431.928497 
	C552.669006,451.160126 550.292175,469.629974 540.797424,486.543579 
	C526.688660,511.676239 537.535278,542.333252 551.029846,558.748901 
M336.779053,557.889709 
	C353.160583,534.291382 359.254272,509.995483 344.455475,482.828644 
	C336.600342,468.408600 334.696533,452.224792 336.770294,435.780518 
	C336.853516,435.120605 336.997894,434.462860 337.013977,433.801666 
	C337.029663,433.155731 336.917389,432.506683 336.861267,431.859009 
	C328.305359,451.715668 329.304901,471.237793 338.782593,490.147003 
	C344.785950,502.124481 346.669708,514.586609 344.059113,527.428101 
	C341.986420,537.623718 338.425293,547.516785 335.152466,557.956787 
	C335.193542,558.215027 335.234650,558.473206 335.275757,558.731445 
	C335.568787,558.540710 335.861786,558.350037 336.779053,557.889709 
M559.471497,421.567596 
	C567.561951,414.776947 574.882874,416.272766 583.310547,421.997681 
	C591.173523,427.338928 600.142517,431.344147 609.077271,434.750061 
	C624.221436,440.522980 639.843384,443.017029 655.958496,438.260712 
	C683.699402,430.073059 702.944763,410.990723 720.138428,389.219208 
	C687.251770,345.248840 613.732239,327.251343 569.611877,354.673309 
	C578.490479,353.137085 587.555237,351.024963 596.739685,350.095337 
	C614.557007,348.291901 619.412537,348.900970 623.209290,351.821625 
	C612.974304,354.585327 604.767883,360.348572 597.731506,368.542236 
	C612.794739,370.813080 612.794739,370.813080 614.770081,373.178162 
	C585.014587,373.055939 571.641235,379.184723 570.178589,394.013397 
	C571.304688,392.610535 572.193970,391.454163 573.133545,390.340240 
	C579.128174,383.232971 585.516479,382.486694 592.503113,388.610016 
	C595.586853,391.312775 597.812012,394.971100 600.630676,398.006439 
	C604.227539,401.879822 607.577759,406.210297 611.841919,409.186676 
	C619.880493,414.797607 628.820618,415.046173 637.877014,411.368927 
	C627.446716,411.475616 618.538940,409.071472 614.099121,398.981964 
	C619.151611,398.372009 623.930359,397.795105 628.709045,397.218201 
	C628.666077,396.739899 628.623047,396.261597 628.580017,395.783295 
	C621.773987,395.498657 615.460999,394.297882 611.927917,386.953583 
	C629.661011,378.408997 647.447021,379.487274 666.792542,385.439026 
	C653.377441,373.761566 638.400391,368.853394 623.162659,363.666718 
	C628.681946,362.243469 634.181091,361.147766 639.651184,361.277527 
	C645.079407,361.406281 650.478394,362.768738 655.890198,363.590149 
	C656.103394,363.224640 656.316528,362.859131 656.529724,362.493622 
	C653.118958,360.111389 649.708252,357.729187 646.297485,355.346954 
	C670.776611,358.939209 689.549561,371.400879 703.936951,391.088867 
	C694.810791,401.975159 684.997498,411.409851 673.416321,418.839325 
	C654.942200,430.690735 634.889709,435.810516 613.479675,429.531586 
	C603.272034,426.537964 593.609497,421.276367 584.175293,416.165009 
	C573.976440,410.639404 565.497498,411.830139 558.450012,421.194000 
	C558.531738,421.410736 558.613464,421.627472 558.695251,421.844238 
	C558.823425,421.791382 559.064575,421.729645 559.061157,421.687164 
	C559.041321,421.435913 558.964783,421.189117 559.471497,421.567596 
M454.383423,510.075867 
	C452.676025,512.771729 450.413208,513.770386 447.216248,512.815918 
	C445.660278,512.351257 443.682800,511.825104 442.336334,512.385132 
	C436.215546,514.930969 433.126984,511.311676 430.138580,507.018066 
	C428.524139,504.698517 426.833282,502.411804 424.974335,500.287506 
	C422.023041,496.915039 419.176910,493.367096 415.782135,490.487762 
	C411.725189,487.046783 408.646942,488.264893 406.750763,493.334839 
	C404.657013,498.932739 406.671570,503.755646 409.493317,508.424713 
	C412.483765,513.372925 417.774414,516.938782 418.055359,523.566711 
	C418.120239,525.098450 419.775696,526.808777 421.096771,527.993774 
	C424.676636,531.204956 428.270142,534.470825 432.227844,537.173767 
	C437.551941,540.809937 443.642761,543.595825 443.654205,551.807983 
	C443.623108,545.034119 447.506073,541.795349 452.530792,538.719666 
	C457.439728,535.714905 461.855316,531.773254 466.039581,527.774231 
	C467.946411,525.951782 468.818756,523.023743 470.079163,520.555725 
	C471.071106,518.613342 471.619568,516.361145 472.920898,514.675842 
	C476.904846,509.516479 481.488220,504.502289 480.920898,497.524658 
	C480.680603,494.569153 479.021240,490.956757 476.781738,489.258423 
	C475.644135,488.395721 471.085907,490.451874 469.295319,492.344147 
	C464.167419,497.763214 459.663696,503.772919 454.383423,510.075867 
M425.013123,564.057861 
	C427.019226,564.830200 429.069763,565.504639 431.023682,566.391907 
	C438.862732,569.951721 446.706665,569.951660 454.764648,567.016418 
	C459.083252,565.443420 463.539978,563.983826 468.060120,563.275513 
	C488.529236,560.068054 499.151917,536.608582 497.299408,518.898010 
	C497.064270,519.484619 497.013184,520.097168 496.917023,520.702515 
	C492.407684,549.097412 475.422821,561.455322 446.909454,557.263611 
	C444.177612,556.862000 441.261169,557.134644 438.505371,557.569336 
	C414.875549,561.296875 398.480225,551.079895 391.754547,528.338806 
	C391.399078,527.136780 390.837677,525.995667 390.372131,524.826172 
	C392.080231,548.765137 403.369568,561.412720 425.013123,564.057861 
M559.647522,321.287598 
	C558.327515,318.831787 557.598328,315.512329 555.554749,314.114410 
	C552.145935,311.782623 551.703430,308.710876 551.098267,305.296936 
	C549.664429,297.208557 545.113403,291.536835 537.812012,287.720978 
	C535.772705,286.655151 533.878784,284.463745 532.913513,282.336975 
	C528.777771,273.224731 522.741272,266.231171 512.643311,264.078156 
	C508.435669,263.181000 505.038269,261.560791 501.715790,258.890259 
	C496.048706,254.335251 489.839386,251.015869 482.001343,252.799637 
	C479.792725,253.302277 477.141205,253.192856 475.006134,252.456192 
	C465.246216,249.088776 456.042084,250.131531 448.155609,256.297974 
	C449.902710,255.772186 451.003723,255.516052 452.048676,255.114105 
	C458.765289,252.530487 465.456909,252.800262 471.894318,255.788773 
	C475.929413,257.662018 479.475983,259.981354 484.321533,257.547699 
	C485.913300,256.748260 489.012543,257.810791 490.876099,258.930908 
	C494.681122,261.217896 498.103729,264.137848 501.709320,266.762085 
	C502.858154,267.598175 504.042145,268.912567 505.287140,269.008606 
	C517.986755,269.988464 524.929260,277.430542 528.557678,288.975342 
	C528.953064,290.233398 530.468079,291.660248 531.749146,292.036255 
	C541.437622,294.879852 546.209045,301.402344 547.076111,311.267914 
	C547.193420,312.603210 548.245483,314.534851 549.356445,314.989960 
	C554.960754,317.285950 556.878540,321.737762 557.128235,327.233307 
	C557.303101,331.082123 557.162048,334.945312 557.162048,338.802063 
	C557.654236,338.843140 558.146362,338.884186 558.638550,338.925232 
	C559.042908,333.322693 559.447205,327.720154 559.647522,321.287598 
M434.174652,254.868835 
	C435.352203,255.240173 436.529755,255.611526 437.707306,255.982880 
	C429.820160,249.580017 421.134918,249.425461 412.027740,252.561966 
	C410.507324,253.085587 408.608643,254.096954 407.375732,253.618301 
	C397.551208,249.804138 390.440552,254.977264 383.257324,260.351532 
	C381.607513,261.585876 379.691223,262.895020 377.738556,263.223145 
	C365.727722,265.241241 358.152313,272.256165 353.840912,283.374176 
	C353.265289,284.858490 351.941956,286.512726 350.540161,287.141876 
	C341.696930,291.110748 336.837921,297.798370 335.561127,307.365814 
	C335.325928,309.128387 334.392761,311.192993 333.096802,312.352814 
	C326.252197,318.478271 324.646881,330.528076 329.943665,338.306824 
	C329.943665,334.443268 329.835052,330.626373 329.970642,326.818207 
	C330.147369,321.853790 331.824707,317.441040 336.781860,315.616241 
	C339.578522,314.586792 339.994507,313.154358 340.112793,310.535950 
	C340.505219,301.849457 345.741577,294.968689 354.139587,292.574005 
	C357.220886,291.695312 358.280121,290.126007 359.156891,287.352448 
	C361.802094,278.984772 366.774750,272.186249 375.660461,270.277161 
	C381.083160,269.112091 385.237061,266.922791 389.305573,263.321991 
	C394.333801,258.871857 399.976715,255.102158 407.368073,258.779297 
	C408.205841,259.196045 409.880829,258.434235 410.938690,257.822876 
	C418.013794,253.734207 425.409821,252.127869 434.174652,254.868835 
M397.391357,567.001648 
	C397.139496,567.496643 396.558685,568.102234 396.682648,568.470764 
	C404.861481,592.786743 420.644104,604.136963 446.176025,604.130615 
	C468.262665,604.125122 489.234650,584.970642 491.772217,562.232605 
	C489.076538,567.208618 486.745148,572.105408 483.886047,576.671692 
	C477.032257,587.618103 467.648804,595.142334 454.379791,596.465393 
	C449.799957,596.922058 445.090515,596.027893 440.498657,596.425293 
	C431.347443,597.217407 423.043304,595.352356 415.516388,590.026428 
	C407.376709,584.266907 402.242157,576.203552 397.391357,567.001648 
M563.839050,360.604858 
	C563.285034,360.061096 562.827332,359.291870 562.162354,359.007782 
	C553.911194,355.482452 546.568176,357.738617 539.807617,362.820770 
	C530.980347,369.456543 525.049561,378.479401 519.723206,388.031067 
	C522.999084,385.180786 525.737488,381.800385 528.837891,378.793152 
	C534.816406,372.994446 536.458801,373.055603 542.209290,378.531097 
	C546.940918,383.036438 551.214905,382.782043 554.347168,377.138947 
	C556.482666,373.291626 557.374268,368.772552 559.241882,364.748718 
	C559.985901,363.145782 561.861267,362.067963 563.839050,360.604858 
M357.085052,372.420654 
	C351.915527,368.069031 347.155365,363.051147 341.461792,359.552338 
	C335.720001,356.023926 329.179260,356.302979 324.029022,359.515991 
	C325.487701,361.639771 327.028748,363.310181 327.899353,365.277344 
	C329.434448,368.745880 330.182892,372.593933 331.935669,375.928284 
	C335.671661,383.035553 341.164642,383.804749 345.839325,377.343109 
	C349.385162,372.441833 352.414703,373.796753 355.569733,376.655640 
	C359.587128,380.295898 363.153168,384.434265 366.913788,388.357941 
	C367.231903,388.162231 367.550018,387.966522 367.868134,387.770813 
	C364.429260,382.832001 360.990356,377.893219 357.085052,372.420654 
M376.365143,590.156311 
	C360.101624,571.305542 358.678864,549.013550 361.842896,525.634338 
	C353.595337,547.960022 351.528625,569.457947 368.671661,588.852051 
	C374.985291,595.994629 381.009369,603.412842 380.307770,613.983948 
	C383.772736,605.401611 381.360718,597.899170 376.365143,590.156311 
M525.868591,556.013855 
	C525.200623,565.002563 522.135376,573.107849 517.048706,580.527161 
	C514.142029,584.766785 511.306366,589.069519 508.702301,593.498779 
	C504.930664,599.914062 503.656738,606.697327 506.804504,613.975708 
	C506.131012,603.901245 511.571503,596.637939 517.707397,589.757507 
	C528.636108,577.502686 533.404663,563.287598 530.985229,547.008545 
	C529.905396,539.743225 527.926025,532.611511 526.354919,525.419189 
	C526.204285,525.531311 526.053711,525.643433 525.903137,525.755493 
	C525.903137,535.534302 525.903137,545.313110 525.868591,556.013855 
M382.381134,296.018066 
	C379.470062,297.504395 376.558990,298.990692 373.146698,300.732910 
	C372.939972,301.751923 372.956696,303.727234 372.142761,305.262085 
	C370.343048,308.655792 368.228943,311.899536 366.039124,315.063263 
	C364.761169,316.909546 362.561829,318.250519 361.691650,320.222473 
	C358.790192,326.797333 355.090393,329.294434 348.706177,328.288696 
	C354.098511,331.512085 359.094452,330.030975 363.270874,324.050629 
	C364.466034,322.339233 365.506744,319.909821 367.182739,319.255554 
	C372.834412,317.049194 374.933899,312.355347 376.983368,307.360138 
	C377.526184,306.037140 378.568176,304.788696 379.673859,303.851501 
	C382.915649,301.103729 386.277954,298.494751 389.652313,295.908722 
	C390.706848,295.100555 391.961792,293.942017 393.104706,293.964691 
	C398.671295,294.075165 403.249512,291.989655 406.757111,287.905609 
	C408.768219,285.563934 410.541107,285.234528 413.529755,285.863953 
	C418.567566,286.924988 423.351532,285.830200 426.853546,281.052032 
	C420.455627,284.078003 414.323761,284.378815 408.780243,279.418091 
	C403.141113,285.848541 397.722778,291.754120 388.911407,287.201202 
	C386.768921,290.175781 384.846954,292.844177 382.381134,296.018066 
M527.042725,323.307861 
	C525.251465,319.569489 524.265747,315.413300 519.364929,313.875031 
	C517.811523,313.387360 516.697266,310.607605 515.950073,308.658997 
	C514.892883,305.902161 514.362671,302.943268 513.771912,300.696960 
	C510.392059,298.922485 506.957886,297.794678 504.442383,295.609375 
	C501.915466,293.414124 500.303589,290.165558 498.112488,287.131866 
	C489.148529,291.883118 483.905090,285.490479 478.134552,279.395538 
	C472.432556,285.262268 465.890686,283.023621 459.359039,281.059906 
	C463.982117,285.623291 469.215332,287.195007 475.350433,285.595703 
	C476.266113,285.356964 477.797180,285.496796 478.332428,286.096344 
	C482.358246,290.605713 486.954834,293.692505 493.265381,294.032471 
	C499.621002,294.374847 500.620209,302.529694 506.733704,303.715271 
	C508.107208,303.981659 509.156952,306.213013 510.238953,307.629028 
	C512.981445,311.218170 515.568237,314.929871 518.399109,318.446320 
	C519.765381,320.143463 521.882812,321.284271 523.067627,323.070099 
	C526.838745,328.754181 530.162231,330.500549 535.306213,329.657196 
	C533.065735,328.039337 530.240051,325.998932 527.042725,323.307861 
M401.324982,624.161072 
	C410.987579,632.638184 421.542999,640.459961 423.433868,655.981873 
	C426.446564,644.780457 422.342712,636.905640 416.393524,629.899719 
	C412.649719,625.490967 407.992004,621.861145 403.769104,617.855713 
	C396.257965,610.731323 389.816650,603.100098 391.084076,591.482544 
	C389.782806,594.953064 388.608032,598.529785 388.757751,602.050293 
	C389.144073,611.136414 394.485229,617.760315 401.324982,624.161072 
M492.918457,616.352661 
	C499.373474,606.439026 500.231873,598.298523 495.123566,591.093384 
	C496.558899,598.525696 494.722656,604.704651 490.405487,609.965759 
	C487.371735,613.662781 483.631897,616.770752 480.420319,620.333740 
	C475.341553,625.968201 469.945282,631.416931 465.624329,637.601685 
	C462.239105,642.447021 461.410583,648.411682 463.732574,655.511475 
	C465.028748,644.134583 471.357635,637.017822 478.513214,630.368530 
	C483.245667,625.970947 487.829651,621.413513 492.918457,616.352661 
M331.717285,394.583496 
	C330.974701,392.353577 330.232117,390.123688 329.489532,387.893768 
	C328.971283,387.999420 328.453064,388.105103 327.934814,388.210754 
	C328.283936,390.938751 328.532166,393.684174 329.000488,396.391541 
	C330.602600,405.653076 333.035583,414.446045 339.855865,421.619019 
	C343.448792,425.397736 346.858307,429.802185 348.847443,434.553436 
	C352.201874,442.565674 354.360474,451.078522 357.022003,459.380829 
	C356.333649,450.971313 355.215149,442.530670 353.344788,434.260101 
	C352.495209,430.503387 350.868591,426.449493 348.358978,423.630157 
	C340.910370,415.262177 335.671539,405.787201 331.717285,394.583496 
M547.841370,411.234131 
	C545.546997,414.490021 543.653015,418.143646 540.885681,420.929810 
	C531.188416,430.692902 532.329041,443.475098 530.661133,455.507141 
	C531.915161,453.415039 532.435242,451.098175 533.080566,448.816742 
	C535.755493,439.358978 538.418823,429.801025 545.879578,422.794800 
	C552.109253,416.944580 555.493225,409.755005 557.025513,401.589508 
	C557.930359,396.767578 558.353760,391.855286 558.993652,386.983643 
	C558.807739,387.027130 558.621826,387.070587 558.435913,387.114044 
	C555.006287,394.931152 551.576660,402.748260 547.841370,411.234131 
M525.005676,476.508453 
	C524.912537,475.852112 524.819458,475.195740 524.537476,473.208160 
	C521.911133,496.532410 516.427673,517.495911 501.298798,535.005432 
	C503.455475,534.810364 505.524445,534.507080 507.301025,533.618835 
	C515.256409,529.641663 519.441528,522.366882 520.867798,514.295959 
	C523.023438,502.096863 523.708313,489.637909 525.005676,476.508453 
M464.243225,310.141663 
	C462.117798,310.416016 459.998627,310.825317 457.865051,310.924530 
	C455.955902,311.013367 454.030853,310.760406 451.230194,310.611267 
	C458.445312,314.458557 464.889893,314.390839 469.554169,312.033997 
	C475.688965,314.749176 480.368225,317.508453 485.421814,318.780182 
	C488.142944,319.464935 490.450684,319.471161 492.510712,321.928162 
	C495.369080,325.337280 499.421722,326.460510 502.886780,325.932037 
	C499.061493,322.497223 494.937103,318.793854 490.192719,314.533752 
	C482.590485,316.739349 476.993988,312.027557 472.845886,305.497375 
	C469.904968,307.171021 467.468140,308.557800 464.243225,310.141663 
M393.518555,323.040497 
	C395.238831,321.647064 397.027557,318.989716 398.667603,319.078491 
	C405.860443,319.467896 411.160461,316.513855 415.505890,311.124237 
	C422.282318,314.238037 428.863647,314.816315 435.882690,310.250641 
	C427.507782,312.033051 420.446960,310.866241 414.298187,304.954926 
	C409.965515,312.804413 403.865356,316.447449 394.735779,314.119507 
	C393.402161,320.506256 388.679840,323.329620 382.934113,325.082672 
	C383.234436,325.589539 383.534760,326.096375 383.835052,326.603241 
	C386.862030,325.572968 389.888977,324.542725 393.518555,323.040497 
M524.518494,523.466919 
	C524.518494,523.466919 524.532715,523.544922 524.518494,523.466919 
M362.589264,523.573303 
	C362.589264,523.573303 362.453827,523.467590 362.453827,523.467590 
	C362.453827,523.467590 362.456482,523.696411 362.589264,523.573303 
M552.399719,560.358276 
	C552.399719,560.358276 552.544678,560.464233 552.544678,560.464233 
	C552.544678,560.464233 552.530579,560.212097 552.399719,560.358276 
z"/>
<path fill="#FAFAFA" opacity="1.000000" stroke="none" 
	d="
M317.002960,393.947845 
	C316.729187,393.792175 316.369446,393.701935 316.193970,393.471436 
	C307.063904,381.476929 299.465881,381.414124 289.960144,393.313080 
	C287.055969,396.948364 284.530060,400.926880 281.347504,404.290863 
	C272.460327,413.684570 260.177032,416.274475 248.321503,411.077759 
	C259.376129,411.340149 268.526794,409.288818 272.866913,398.984985 
	C267.999176,398.415680 263.169800,397.850861 258.340393,397.286011 
	C258.339508,396.788055 258.338593,396.290100 258.337708,395.792145 
	C265.230713,395.597900 271.478027,394.196716 274.987640,387.471771 
	C264.064270,379.960724 247.887802,379.165619 221.772980,384.744415 
	C228.198639,377.409973 241.042358,371.259247 263.733032,364.650208 
	C258.864685,360.299530 254.552673,360.198029 228.440598,364.072235 
	C231.336288,361.910583 233.169083,360.451721 235.095917,359.129944 
	C236.969955,357.844360 238.940369,356.699280 240.642990,355.138702 
	C216.418396,358.871002 197.681580,371.318817 183.018372,391.192749 
	C203.466812,414.193329 225.831940,432.786804 258.640747,431.936890 
	C274.213196,431.533508 288.043427,425.641510 301.110840,417.569550 
	C304.048584,415.754883 307.188110,413.889801 310.485718,413.111877 
	C317.773743,411.392639 323.376709,414.764740 327.831238,420.759125 
	C327.758179,421.239960 327.476624,421.560974 327.476624,421.560974 
	C326.348450,420.854614 325.194611,420.185791 324.096405,419.435577 
	C318.483307,415.601318 313.202820,415.714325 307.566772,419.834900 
	C296.173157,428.165039 283.332764,433.427246 269.811035,437.437866 
	C250.940445,443.035004 233.052078,441.134003 215.669220,432.249634 
	C195.636337,422.010864 180.237778,406.646179 166.900787,389.006012 
	C204.738693,340.394470 280.302124,329.445587 318.707825,355.852264 
	C299.736664,350.111542 281.283844,347.500549 262.154724,350.900665 
	C272.946320,353.949951 281.778168,359.839722 289.272003,368.230408 
	C283.217224,369.391785 277.506653,370.487183 271.796082,371.582550 
	C271.902222,371.940643 272.008392,372.298737 272.114532,372.656799 
	C279.664276,373.095032 287.338531,372.829285 294.734314,374.137726 
	C305.623810,376.064240 314.407349,381.320526 317.029541,393.630615 
	C316.972778,394.000275 317.002960,393.947845 317.002960,393.947845 
z"/>
<path fill="#FAFAFA" opacity="1.000000" stroke="none" 
	d="
M559.008301,421.006653 
	C565.497498,411.830139 573.976440,410.639404 584.175293,416.165009 
	C593.609497,421.276367 603.272034,426.537964 613.479675,429.531586 
	C634.889709,435.810516 654.942200,430.690735 673.416321,418.839325 
	C684.997498,411.409851 694.810791,401.975159 703.936951,391.088867 
	C689.549561,371.400879 670.776611,358.939209 646.297485,355.346954 
	C649.708252,357.729187 653.118958,360.111389 656.529724,362.493622 
	C656.316528,362.859131 656.103394,363.224640 655.890198,363.590149 
	C650.478394,362.768738 645.079407,361.406281 639.651184,361.277527 
	C634.181091,361.147766 628.681946,362.243469 623.162659,363.666718 
	C638.400391,368.853394 653.377441,373.761566 666.792542,385.439026 
	C647.447021,379.487274 629.661011,378.408997 611.927917,386.953583 
	C615.460999,394.297882 621.773987,395.498657 628.580017,395.783295 
	C628.623047,396.261597 628.666077,396.739899 628.709045,397.218201 
	C623.930359,397.795105 619.151611,398.372009 614.099121,398.981964 
	C618.538940,409.071472 627.446716,411.475616 637.877014,411.368927 
	C628.820618,415.046173 619.880493,414.797607 611.841919,409.186676 
	C607.577759,406.210297 604.227539,401.879822 600.630676,398.006439 
	C597.812012,394.971100 595.586853,391.312775 592.503113,388.610016 
	C585.516479,382.486694 579.128174,383.232971 573.133545,390.340240 
	C572.193970,391.454163 571.304688,392.610535 570.178589,394.013397 
	C571.641235,379.184723 585.014587,373.055939 614.770081,373.178162 
	C612.794739,370.813080 612.794739,370.813080 597.731506,368.542236 
	C604.767883,360.348572 612.974304,354.585327 623.209290,351.821625 
	C619.412537,348.900970 614.557007,348.291901 596.739685,350.095337 
	C587.555237,351.024963 578.490479,353.137085 569.611877,354.673309 
	C613.732239,327.251343 687.251770,345.248840 720.138428,389.219208 
	C702.944763,410.990723 683.699402,430.073059 655.958496,438.260712 
	C639.843384,443.017029 624.221436,440.522980 609.077271,434.750061 
	C600.142517,431.344147 591.173523,427.338928 583.310547,421.997681 
	C574.882874,416.272766 567.561951,414.776947 559.215515,421.269287 
	C558.959534,420.971008 559.008301,421.006653 559.008301,421.006653 
z"/>
<path fill="#FDFCFC" opacity="1.000000" stroke="none" 
	d="
M454.648987,509.813141 
	C459.663696,503.772919 464.167419,497.763214 469.295319,492.344147 
	C471.085907,490.451874 475.644135,488.395721 476.781738,489.258423 
	C479.021240,490.956757 480.680603,494.569153 480.920898,497.524658 
	C481.488220,504.502289 476.904846,509.516479 472.920898,514.675842 
	C471.619568,516.361145 471.071106,518.613342 470.079163,520.555725 
	C468.818756,523.023743 467.946411,525.951782 466.039581,527.774231 
	C461.855316,531.773254 457.439728,535.714905 452.530792,538.719666 
	C447.506073,541.795349 443.623108,545.034119 443.654205,551.807983 
	C443.642761,543.595825 437.551941,540.809937 432.227844,537.173767 
	C428.270142,534.470825 424.676636,531.204956 421.096771,527.993774 
	C419.775696,526.808777 418.120239,525.098450 418.055359,523.566711 
	C417.774414,516.938782 412.483765,513.372925 409.493317,508.424713 
	C406.671570,503.755646 404.657013,498.932739 406.750763,493.334839 
	C408.646942,488.264893 411.725189,487.046783 415.782135,490.487762 
	C419.176910,493.367096 422.023041,496.915039 424.974335,500.287506 
	C426.833282,502.411804 428.524139,504.698517 430.138580,507.018066 
	C433.126984,511.311676 436.215546,514.930969 442.336334,512.385132 
	C443.682800,511.825104 445.660278,512.351257 447.216248,512.815918 
	C450.413208,513.770386 452.676025,512.771729 454.648987,509.813141 
z"/>
<path fill="#F8F8F8" opacity="1.000000" stroke="none" 
	d="
M424.596985,564.012390 
	C403.369568,561.412720 392.080231,548.765137 390.372131,524.826172 
	C390.837677,525.995667 391.399078,527.136780 391.754547,528.338806 
	C398.480225,551.079895 414.875549,561.296875 438.505371,557.569336 
	C441.261169,557.134644 444.177612,556.862000 446.909454,557.263611 
	C475.422821,561.455322 492.407684,549.097412 496.917023,520.702515 
	C497.013184,520.097168 497.064270,519.484619 497.299408,518.898010 
	C499.151917,536.608582 488.529236,560.068054 468.060120,563.275513 
	C463.539978,563.983826 459.083252,565.443420 454.764648,567.016418 
	C446.706665,569.951660 438.862732,569.951721 431.023682,566.391907 
	C429.069763,565.504639 427.019226,564.830200 424.596985,564.012390 
z"/>
<path fill="#F6F5F5" opacity="1.000000" stroke="none" 
	d="
M559.749512,321.702606 
	C559.447205,327.720154 559.042908,333.322693 558.638550,338.925232 
	C558.146362,338.884186 557.654236,338.843140 557.162048,338.802063 
	C557.162048,334.945312 557.303101,331.082123 557.128235,327.233307 
	C556.878540,321.737762 554.960754,317.285950 549.356445,314.989960 
	C548.245483,314.534851 547.193420,312.603210 547.076111,311.267914 
	C546.209045,301.402344 541.437622,294.879852 531.749146,292.036255 
	C530.468079,291.660248 528.953064,290.233398 528.557678,288.975342 
	C524.929260,277.430542 517.986755,269.988464 505.287140,269.008606 
	C504.042145,268.912567 502.858154,267.598175 501.709320,266.762085 
	C498.103729,264.137848 494.681122,261.217896 490.876099,258.930908 
	C489.012543,257.810791 485.913300,256.748260 484.321533,257.547699 
	C479.475983,259.981354 475.929413,257.662018 471.894318,255.788773 
	C465.456909,252.800262 458.765289,252.530487 452.048676,255.114105 
	C451.003723,255.516052 449.902710,255.772186 448.155609,256.297974 
	C456.042084,250.131531 465.246216,249.088776 475.006134,252.456192 
	C477.141205,253.192856 479.792725,253.302277 482.001343,252.799637 
	C489.839386,251.015869 496.048706,254.335251 501.715790,258.890259 
	C505.038269,261.560791 508.435669,263.181000 512.643311,264.078156 
	C522.741272,266.231171 528.777771,273.224731 532.913513,282.336975 
	C533.878784,284.463745 535.772705,286.655151 537.812012,287.720978 
	C545.113403,291.536835 549.664429,297.208557 551.098267,305.296936 
	C551.703430,308.710876 552.145935,311.782623 555.554749,314.114410 
	C557.598328,315.512329 558.327515,318.831787 559.749512,321.702606 
z"/>
<path fill="#F6F6F6" opacity="1.000000" stroke="none" 
	d="
M433.794861,254.704529 
	C425.409821,252.127869 418.013794,253.734207 410.938690,257.822876 
	C409.880829,258.434235 408.205841,259.196045 407.368073,258.779297 
	C399.976715,255.102158 394.333801,258.871857 389.305573,263.321991 
	C385.237061,266.922791 381.083160,269.112091 375.660461,270.277161 
	C366.774750,272.186249 361.802094,278.984772 359.156891,287.352448 
	C358.280121,290.126007 357.220886,291.695312 354.139587,292.574005 
	C345.741577,294.968689 340.505219,301.849457 340.112793,310.535950 
	C339.994507,313.154358 339.578522,314.586792 336.781860,315.616241 
	C331.824707,317.441040 330.147369,321.853790 329.970642,326.818207 
	C329.835052,330.626373 329.943665,334.443268 329.943665,338.306824 
	C324.646881,330.528076 326.252197,318.478271 333.096802,312.352814 
	C334.392761,311.192993 335.325928,309.128387 335.561127,307.365814 
	C336.837921,297.798370 341.696930,291.110748 350.540161,287.141876 
	C351.941956,286.512726 353.265289,284.858490 353.840912,283.374176 
	C358.152313,272.256165 365.727722,265.241241 377.738556,263.223145 
	C379.691223,262.895020 381.607513,261.585876 383.257324,260.351532 
	C390.440552,254.977264 397.551208,249.804138 407.375732,253.618301 
	C408.608643,254.096954 410.507324,253.085587 412.027740,252.561966 
	C421.134918,249.425461 429.820160,249.580017 437.707306,255.982880 
	C436.529755,255.611526 435.352203,255.240173 433.794861,254.704529 
z"/>
<path fill="#F8F8F8" opacity="1.000000" stroke="none" 
	d="
M335.525024,557.544189 
	C338.425293,547.516785 341.986420,537.623718 344.059113,527.428101 
	C346.669708,514.586609 344.785950,502.124481 338.782593,490.147003 
	C329.304901,471.237793 328.305359,451.715668 336.861267,431.859009 
	C336.917389,432.506683 337.029663,433.155731 337.013977,433.801666 
	C336.997894,434.462860 336.853516,435.120605 336.770294,435.780518 
	C334.696533,452.224792 336.600342,468.408600 344.455475,482.828644 
	C359.254272,509.995483 353.160583,534.291382 336.311829,557.868347 
	C335.844574,557.846985 335.525024,557.544189 335.525024,557.544189 
z"/>
<path fill="#F8F8F8" opacity="1.000000" stroke="none" 
	d="
M550.858765,558.145325 
	C537.535278,542.333252 526.688660,511.676239 540.797424,486.543579 
	C550.292175,469.629974 552.669006,451.160126 550.226196,431.928497 
	C554.220093,438.516937 555.373108,445.892242 555.911194,453.309082 
	C556.729309,464.586670 555.526001,475.935059 550.138123,485.817352 
	C538.512390,507.140991 540.784180,528.306702 548.746216,549.815125 
	C549.609497,552.146973 550.487488,554.473450 551.287231,557.306641 
	C551.215759,557.810913 550.858765,558.145325 550.858765,558.145325 
z"/>
<path fill="#F6F6F6" opacity="1.000000" stroke="none" 
	d="
M397.686768,567.224243 
	C402.242157,576.203552 407.376709,584.266907 415.516388,590.026428 
	C423.043304,595.352356 431.347443,597.217407 440.498657,596.425293 
	C445.090515,596.027893 449.799957,596.922058 454.379791,596.465393 
	C467.648804,595.142334 477.032257,587.618103 483.886047,576.671692 
	C486.745148,572.105408 489.076538,567.208618 491.772217,562.232605 
	C489.234650,584.970642 468.262665,604.125122 446.176025,604.130615 
	C420.644104,604.136963 404.861481,592.786743 396.682648,568.470764 
	C396.558685,568.102234 397.139496,567.496643 397.686768,567.224243 
z"/>
<path fill="#F9F9F9" opacity="1.000000" stroke="none" 
	d="
M563.530334,360.677979 
	C561.861267,362.067963 559.985901,363.145782 559.241882,364.748718 
	C557.374268,368.772552 556.482666,373.291626 554.347168,377.138947 
	C551.214905,382.782043 546.940918,383.036438 542.209290,378.531097 
	C536.458801,373.055603 534.816406,372.994446 528.837891,378.793152 
	C525.737488,381.800385 522.999084,385.180786 519.723206,388.031067 
	C525.049561,378.479401 530.980347,369.456543 539.807617,362.820770 
	C546.568176,357.738617 553.911194,355.482452 562.162354,359.007782 
	C562.827332,359.291870 563.285034,360.061096 563.530334,360.677979 
z"/>
<path fill="#F9F9F9" opacity="1.000000" stroke="none" 
	d="
M357.318268,372.687531 
	C360.990356,377.893219 364.429260,382.832001 367.868134,387.770813 
	C367.550018,387.966522 367.231903,388.162231 366.913788,388.357941 
	C363.153168,384.434265 359.587128,380.295898 355.569733,376.655640 
	C352.414703,373.796753 349.385162,372.441833 345.839325,377.343109 
	C341.164642,383.804749 335.671661,383.035553 331.935669,375.928284 
	C330.182892,372.593933 329.434448,368.745880 327.899353,365.277344 
	C327.028748,363.310181 325.487701,361.639771 324.029022,359.515991 
	C329.179260,356.302979 335.720001,356.023926 341.461792,359.552338 
	C347.155365,363.051147 351.915527,368.069031 357.318268,372.687531 
z"/>
<path fill="#F7F7F7" opacity="1.000000" stroke="none" 
	d="
M376.578247,590.455200 
	C381.360718,597.899170 383.772736,605.401611 380.307770,613.983948 
	C381.009369,603.412842 374.985291,595.994629 368.671661,588.852051 
	C351.528625,569.457947 353.595337,547.960022 361.842896,525.634338 
	C358.678864,549.013550 360.101624,571.305542 376.578247,590.455200 
z"/>
<path fill="#F8F8F8" opacity="1.000000" stroke="none" 
	d="
M525.885864,555.552856 
	C525.903137,545.313110 525.903137,535.534302 525.903137,525.755493 
	C526.053711,525.643433 526.204285,525.531311 526.354919,525.419189 
	C527.926025,532.611511 529.905396,539.743225 530.985229,547.008545 
	C533.404663,563.287598 528.636108,577.502686 517.707397,589.757507 
	C511.571503,596.637939 506.131012,603.901245 506.804504,613.975708 
	C503.656738,606.697327 504.930664,599.914062 508.702301,593.498779 
	C511.306366,589.069519 514.142029,584.766785 517.048706,580.527161 
	C522.135376,573.107849 525.200623,565.002563 525.885864,555.552856 
z"/>
<path fill="#F5F5F5" opacity="1.000000" stroke="none" 
	d="
M382.653076,295.765320 
	C384.846954,292.844177 386.768921,290.175781 388.911407,287.201202 
	C397.722778,291.754120 403.141113,285.848541 408.780243,279.418091 
	C414.323761,284.378815 420.455627,284.078003 426.853546,281.052032 
	C423.351532,285.830200 418.567566,286.924988 413.529755,285.863953 
	C410.541107,285.234528 408.768219,285.563934 406.757111,287.905609 
	C403.249512,291.989655 398.671295,294.075165 393.104706,293.964691 
	C391.961792,293.942017 390.706848,295.100555 389.652313,295.908722 
	C386.277954,298.494751 382.915649,301.103729 379.673859,303.851501 
	C378.568176,304.788696 377.526184,306.037140 376.983368,307.360138 
	C374.933899,312.355347 372.834412,317.049194 367.182739,319.255554 
	C365.506744,319.909821 364.466034,322.339233 363.270874,324.050629 
	C359.094452,330.030975 354.098511,331.512085 348.706177,328.288696 
	C355.090393,329.294434 358.790192,326.797333 361.691650,320.222473 
	C362.561829,318.250519 364.761169,316.909546 366.039124,315.063263 
	C368.228943,311.899536 370.343048,308.655792 372.142761,305.262085 
	C372.956696,303.727234 372.939972,301.751923 373.146698,300.732910 
	C376.558990,298.990692 379.470062,297.504395 382.653076,295.765320 
z"/>
<path fill="#F5F4F4" opacity="1.000000" stroke="none" 
	d="
M527.228516,323.633179 
	C530.240051,325.998932 533.065735,328.039337 535.306213,329.657196 
	C530.162231,330.500549 526.838745,328.754181 523.067627,323.070099 
	C521.882812,321.284271 519.765381,320.143463 518.399109,318.446320 
	C515.568237,314.929871 512.981445,311.218170 510.238953,307.629028 
	C509.156952,306.213013 508.107208,303.981659 506.733704,303.715271 
	C500.620209,302.529694 499.621002,294.374847 493.265381,294.032471 
	C486.954834,293.692505 482.358246,290.605713 478.332428,286.096344 
	C477.797180,285.496796 476.266113,285.356964 475.350433,285.595703 
	C469.215332,287.195007 463.982117,285.623291 459.359039,281.059906 
	C465.890686,283.023621 472.432556,285.262268 478.134552,279.395538 
	C483.905090,285.490479 489.148529,291.883118 498.112488,287.131866 
	C500.303589,290.165558 501.915466,293.414124 504.442383,295.609375 
	C506.957886,297.794678 510.392059,298.922485 513.771912,300.696960 
	C514.362671,302.943268 514.892883,305.902161 515.950073,308.658997 
	C516.697266,310.607605 517.811523,313.387360 519.364929,313.875031 
	C524.265747,315.413300 525.251465,319.569489 527.228516,323.633179 
z"/>
<path fill="#F6F6F6" opacity="1.000000" stroke="none" 
	d="
M401.033936,623.956787 
	C394.485229,617.760315 389.144073,611.136414 388.757751,602.050293 
	C388.608032,598.529785 389.782806,594.953064 391.084076,591.482544 
	C389.816650,603.100098 396.257965,610.731323 403.769104,617.855713 
	C407.992004,621.861145 412.649719,625.490967 416.393524,629.899719 
	C422.342712,636.905640 426.446564,644.780457 423.433868,655.981873 
	C421.542999,640.459961 410.987579,632.638184 401.033936,623.956787 
z"/>
<path fill="#F7F7F7" opacity="1.000000" stroke="none" 
	d="
M492.699280,616.640137 
	C487.829651,621.413513 483.245667,625.970947 478.513214,630.368530 
	C471.357635,637.017822 465.028748,644.134583 463.732574,655.511475 
	C461.410583,648.411682 462.239105,642.447021 465.624329,637.601685 
	C469.945282,631.416931 475.341553,625.968201 480.420319,620.333740 
	C483.631897,616.770752 487.371735,613.662781 490.405487,609.965759 
	C494.722656,604.704651 496.558899,598.525696 495.123566,591.093384 
	C500.231873,598.298523 499.373474,606.439026 492.699280,616.640137 
z"/>
<path fill="#F6F5F5" opacity="1.000000" stroke="none" 
	d="
M331.853333,394.955536 
	C335.671539,405.787201 340.910370,415.262177 348.358978,423.630157 
	C350.868591,426.449493 352.495209,430.503387 353.344788,434.260101 
	C355.215149,442.530670 356.333649,450.971313 357.022003,459.380829 
	C354.360474,451.078522 352.201874,442.565674 348.847443,434.553436 
	C346.858307,429.802185 343.448792,425.397736 339.855865,421.619019 
	C333.035583,414.446045 330.602600,405.653076 329.000488,396.391541 
	C328.532166,393.684174 328.283936,390.938751 327.934814,388.210754 
	C328.453064,388.105103 328.971283,387.999420 329.489532,387.893768 
	C330.232117,390.123688 330.974701,392.353577 331.853333,394.955536 
z"/>
<path fill="#F4F3F3" opacity="1.000000" stroke="none" 
	d="
M547.994141,410.899719 
	C551.576660,402.748260 555.006287,394.931152 558.435913,387.114044 
	C558.621826,387.070587 558.807739,387.027130 558.993652,386.983643 
	C558.353760,391.855286 557.930359,396.767578 557.025513,401.589508 
	C555.493225,409.755005 552.109253,416.944580 545.879578,422.794800 
	C538.418823,429.801025 535.755493,439.358978 533.080566,448.816742 
	C532.435242,451.098175 531.915161,453.415039 530.661133,455.507141 
	C532.329041,443.475098 531.188416,430.692902 540.885681,420.929810 
	C543.653015,418.143646 545.546997,414.490021 547.994141,410.899719 
z"/>
<path fill="#F6F5F5" opacity="1.000000" stroke="none" 
	d="
M386.164551,534.804810 
	C379.419586,535.562927 375.368896,531.352417 371.844849,526.655457 
	C366.167175,519.088013 364.277527,510.048309 363.190308,500.951385 
	C362.226074,492.883606 362.095062,484.716278 362.167572,476.455505 
	C365.706909,497.575714 370.864075,517.935425 385.988098,534.554810 
	C386.133484,534.847534 386.164551,534.804810 386.164551,534.804810 
z"/>
<path fill="#F7F7F7" opacity="1.000000" stroke="none" 
	d="
M525.011963,476.898926 
	C523.708313,489.637909 523.023438,502.096863 520.867798,514.295959 
	C519.441528,522.366882 515.256409,529.641663 507.301025,533.618835 
	C505.524445,534.507080 503.455475,534.810364 501.298798,535.005432 
	C516.427673,517.495911 521.911133,496.532410 524.537476,473.208160 
	C524.819458,475.195740 524.912537,475.852112 525.011963,476.898926 
z"/>
<path fill="#F2F1F1" opacity="1.000000" stroke="none" 
	d="
M464.637268,310.043121 
	C467.468140,308.557800 469.904968,307.171021 472.845886,305.497375 
	C476.993988,312.027557 482.590485,316.739349 490.192719,314.533752 
	C494.937103,318.793854 499.061493,322.497223 502.886780,325.932037 
	C499.421722,326.460510 495.369080,325.337280 492.510712,321.928162 
	C490.450684,319.471161 488.142944,319.464935 485.421814,318.780182 
	C480.368225,317.508453 475.688965,314.749176 469.554169,312.033997 
	C464.889893,314.390839 458.445312,314.458557 451.230194,310.611267 
	C454.030853,310.760406 455.955902,311.013367 457.865051,310.924530 
	C459.998627,310.825317 462.117798,310.416016 464.637268,310.043121 
z"/>
<path fill="#F2F1F1" opacity="1.000000" stroke="none" 
	d="
M393.217224,323.276489 
	C389.888977,324.542725 386.862030,325.572968 383.835052,326.603241 
	C383.534760,326.096375 383.234436,325.589539 382.934113,325.082672 
	C388.679840,323.329620 393.402161,320.506256 394.735779,314.119507 
	C403.865356,316.447449 409.965515,312.804413 414.298187,304.954926 
	C420.446960,310.866241 427.507782,312.033051 435.882690,310.250641 
	C428.863647,314.816315 422.282318,314.238037 415.505890,311.124237 
	C411.160461,316.513855 405.860443,319.467896 398.667603,319.078491 
	C397.027557,318.989716 395.238831,321.647064 393.217224,323.276489 
z"/>
<path fill="#F5F5F5" opacity="1.000000" stroke="none" 
	d="
M445.045227,629.042114 
	C440.492950,634.190857 441.947754,639.626099 443.843384,645.375549 
	C445.949707,651.764099 447.947266,658.289673 448.892975,664.912537 
	C449.302734,667.782104 446.960876,671.044617 444.953033,673.931763 
	C447.541534,665.987549 443.947662,659.400696 441.420288,652.505188 
	C439.735504,647.908630 438.566833,643.009277 438.005890,638.148621 
	C437.514801,633.893311 439.654205,630.441406 444.377014,628.796936 
	C444.834320,628.846863 445.045227,629.042114 445.045227,629.042114 
z"/>
<path fill="#FAFAFA" opacity="1.000000" stroke="none" 
	d="
M316.946014,394.014374 
	C317.130829,394.237030 317.342407,394.445587 317.554016,394.654144 
	C317.431061,394.513428 317.308105,394.372711 317.094055,394.089905 
	C317.002960,393.947845 316.972778,394.000275 316.946014,394.014374 
z"/>
<path fill="#F6F5F5" opacity="1.000000" stroke="none" 
	d="
M386.114441,534.865845 
	C386.095367,534.884155 386.256531,535.172913 386.256531,535.172913 
	C386.256531,535.172913 386.139954,535.025146 386.152252,534.914978 
	C386.164551,534.804810 386.133484,534.847534 386.114441,534.865845 
z"/>
<path fill="#F8F8F8" opacity="1.000000" stroke="none" 
	d="
M524.525635,523.505920 
	C524.532715,523.544922 524.518494,523.466919 524.525635,523.505920 
z"/>
<path fill="#F7F7F7" opacity="1.000000" stroke="none" 
	d="
M362.522888,523.634888 
	C362.456482,523.696411 362.453827,523.467590 362.453827,523.467590 
	C362.453827,523.467590 362.589264,523.573303 362.522888,523.634888 
z"/>
<path fill="#FAFAFA" opacity="1.000000" stroke="none" 
	d="
M329.086823,421.893127 
	C329.086823,421.893127 329.375153,422.189270 329.375153,422.189270 
	C329.375153,422.189270 329.279022,422.015350 329.206940,421.925507 
	C329.134857,421.835663 329.086823,421.893127 329.086823,421.893127 
z"/>
<path fill="#F8F8F8" opacity="1.000000" stroke="none" 
	d="
M335.999695,558.003174 
	C335.861786,558.350037 335.568787,558.540710 335.275757,558.731445 
	C335.234650,558.473206 335.193542,558.215027 335.338745,557.750488 
	C335.525024,557.544189 335.844574,557.846985 335.999695,558.003174 
z"/>
<path fill="#F8F8F8" opacity="1.000000" stroke="none" 
	d="
M551.406189,557.657349 
	C551.407715,557.918823 551.218750,558.333862 550.944336,558.447144 
	C550.858765,558.145325 551.215759,557.810913 551.406189,557.657349 
z"/>
<path fill="#F8F8F8" opacity="1.000000" stroke="none" 
	d="
M552.465149,560.285156 
	C552.530579,560.212097 552.544678,560.464233 552.544678,560.464233 
	C552.544678,560.464233 552.399719,560.358276 552.465149,560.285156 
z"/>
<path fill="#FAFAFA" opacity="1.000000" stroke="none" 
	d="
M558.933350,420.955933 
	C558.964783,421.189117 559.041321,421.435913 559.061157,421.687164 
	C559.064575,421.729645 558.823425,421.791382 558.695251,421.844238 
	C558.613464,421.627472 558.531738,421.410736 558.729126,421.100342 
	C559.008301,421.006653 558.959534,420.971008 558.933350,420.955933 
z"/>
<path fill="#FAFAFA" opacity="1.000000" stroke="none" 
	d="
M329.156921,421.805420 
	C328.782593,421.833893 328.386200,421.892609 327.733215,421.756165 
	C327.476624,421.560974 327.758179,421.239960 327.910645,421.090546 
	C328.343445,421.104034 328.623718,421.266968 328.995422,421.661499 
	C329.086823,421.893127 329.134857,421.835663 329.156921,421.805420 
z"/>
<path fill="#F5F5F5" opacity="1.000000" stroke="none" 
	d="
M444.728088,628.750061 
	C445.003754,628.520752 445.385651,628.388184 445.767548,628.255676 
	C445.724854,628.489868 445.682159,628.723999 445.342346,629.000122 
	C445.045227,629.042114 444.834320,628.846863 444.728088,628.750061 
z"/>
</svg>