<svg version="1.1" id="Layer_1" xmlns="http://www.w3.org/2000/svg" xmlns:xlink="http://www.w3.org/1999/xlink" x="0px" y="0px"
	 width="100%" viewBox="0 0 1080 1080" enable-background="new 0 0 1080 1080" xml:space="preserve">
<path fill="#282828" opacity="1.000000" stroke="none" 
	d="
M953.000000,1081.000000 
	C635.333313,1081.000000 318.166656,1081.000000 1.000000,1081.000000 
	C1.000000,721.000000 1.000000,361.000000 1.000000,1.000000 
	C361.000000,1.000000 721.000000,1.000000 1081.000000,1.000000 
	C1081.000000,361.000000 1081.000000,721.000000 1081.000000,1081.000000 
	C1038.500000,1081.000000 996.000000,1081.000000 953.000000,1081.000000 
M149.500000,492.993439 
	C135.500763,492.999664 121.500069,493.119263 107.503220,492.939514 
	C103.560570,492.888885 102.376633,494.191864 102.392761,498.116943 
	C102.528305,531.114624 102.544815,564.113525 102.390404,597.110962 
	C102.369560,601.565247 103.883308,602.798462 108.177208,602.780823 
	C141.008224,602.645996 173.840530,602.629517 206.671143,602.810181 
	C211.352097,602.835938 212.666946,601.260681 212.647552,596.763306 
	C212.507446,564.265625 212.467300,531.766418 212.681305,499.269501 
	C212.715775,494.036316 210.875488,492.832672 205.995758,492.897095 
	C187.499969,493.141235 168.999023,492.994202 149.500000,492.993439 
M498.374634,520.540955 
	C495.592651,532.022034 492.810669,543.503113 490.028687,554.984192 
	C489.668213,554.903137 489.307739,554.822021 488.947266,554.740906 
	C486.207367,539.185242 483.467438,523.629578 480.728912,508.081848 
	C474.835022,508.081848 469.429474,508.081848 463.689880,508.081848 
	C464.076416,510.199066 464.361786,511.981750 464.730347,513.747070 
	C469.152985,534.930115 473.619629,556.104065 478.007233,577.294373 
	C480.474731,589.211487 480.425323,589.322083 492.384583,588.468567 
	C493.795288,588.367920 495.876709,586.697449 496.281403,585.345764 
	C498.141296,579.133911 499.521667,572.778137 501.063782,566.471497 
	C503.338470,557.168701 505.604370,547.863770 508.177856,537.314148 
	C509.016449,539.611450 509.500000,540.613770 509.750305,541.671204 
	C512.626343,553.820984 515.470337,565.978394 518.316040,578.135376 
	C520.773499,588.633911 520.773621,588.454590 531.683350,588.698181 
	C535.531433,588.784119 537.202454,587.775452 537.990173,583.833130 
	C542.589111,560.817078 547.460022,537.855347 552.228027,514.872986 
	C552.686035,512.665466 553.068054,510.442139 553.522278,508.030151 
	C547.653503,508.030151 542.381287,508.030151 536.801941,508.030151 
	C533.977844,523.605957 531.185669,539.005981 528.393433,554.406067 
	C528.003174,554.383606 527.612976,554.361206 527.222778,554.338806 
	C523.455627,538.914307 519.688538,523.489807 515.907410,508.007935 
	C510.910400,508.007935 506.306244,508.007935 501.470245,508.007935 
	C500.475555,512.018738 499.518555,515.877563 498.374634,520.540955 
M247.641846,588.598328 
	C259.619873,588.396729 271.659119,588.880127 283.560028,587.815918 
	C297.672302,586.553894 305.671631,576.474243 305.622040,562.302979 
	C305.594757,554.488953 302.127930,548.726685 296.800049,545.664673 
	C299.044342,540.040405 302.098114,535.368958 302.653809,530.417053 
	C304.121735,517.336121 294.907196,508.217712 280.606049,507.851105 
	C270.787262,507.599396 260.957031,507.792755 251.131912,507.788269 
	C247.533997,507.786591 243.936081,507.787994 240.434128,507.787994 
	C240.434128,535.017517 240.434128,561.571899 240.434128,588.598328 
	C242.757126,588.598328 244.721725,588.598328 247.641846,588.598328 
M315.518616,584.997925 
	C316.454163,586.195129 317.307343,588.335754 318.339539,588.425842 
	C322.746277,588.810547 327.205841,588.589600 332.079773,588.589600 
	C332.079773,578.758240 332.079773,569.491333 332.079773,559.597534 
	C336.299164,559.597534 340.098511,559.806519 343.862762,559.532959 
	C347.011932,559.304138 348.628815,560.532898 349.940094,563.326294 
	C353.403259,570.703918 357.130707,577.959473 360.859253,585.208923 
	C361.501678,586.458008 362.617523,588.341675 363.597412,588.394348 
	C369.267914,588.699280 374.963196,588.543274 381.315826,588.543274 
	C375.906311,577.497803 371.020477,567.521667 366.118286,557.512085 
	C366.943604,556.947266 367.465942,556.535950 368.036011,556.207520 
	C378.677277,550.077209 383.070282,540.327209 380.764557,527.930542 
	C378.752533,517.112793 371.404510,509.169586 359.735748,508.361267 
	C345.202087,507.354462 330.545654,508.119659 315.517761,508.119659 
	C315.517761,533.570496 315.517761,558.833191 315.518616,584.997925 
M925.826233,520.528870 
	C925.826233,532.370056 925.826233,544.211243 925.826233,557.490173 
	C924.067200,554.999634 923.197876,553.823486 922.385010,552.609558 
	C913.114136,538.764160 903.886108,524.889771 894.533508,511.099854 
	C893.609985,509.738159 892.009521,508.067902 890.600403,507.944458 
	C886.020081,507.543274 881.382690,507.794373 876.905945,507.794373 
	C876.905945,535.006531 876.905945,561.587219 876.905945,588.217285 
	C882.374207,588.217285 887.442200,588.217285 893.000793,588.217285 
	C893.000793,571.511780 893.000793,555.186035 893.000793,537.695007 
	C894.517395,539.687439 895.335327,540.655029 896.037415,541.700500 
	C905.698059,556.086670 915.305359,570.509033 925.046631,584.840210 
	C926.076660,586.355652 927.762146,588.221741 929.332275,588.418396 
	C933.381714,588.925720 937.537048,588.588257 941.884277,588.588257 
	C941.884277,561.434631 941.884277,534.853821 941.884277,508.179138 
	C936.433655,508.179138 931.219543,508.179138 925.826355,508.179138 
	C925.826355,512.227661 925.826355,515.886230 925.826233,520.528870 
M613.078125,533.500000 
	C613.078125,541.057739 613.078125,548.615417 613.078125,557.581299 
	C611.483154,555.419556 610.712036,554.456604 610.028137,553.435242 
	C600.572510,539.313965 591.162659,525.161804 581.628601,511.093658 
	C580.707031,509.733826 579.105530,508.068237 577.697510,507.945465 
	C573.111084,507.545654 568.468018,507.795776 563.874512,507.795776 
	C563.874512,534.946655 563.874512,561.520569 563.874512,588.245239 
	C569.302368,588.245239 574.365295,588.245239 580.092529,588.245239 
	C580.092529,571.475159 580.092529,555.045715 580.092529,537.319153 
	C581.768066,539.753174 582.622131,540.970032 583.452148,542.203003 
	C593.035278,556.439575 602.588196,570.696777 612.236511,584.889038 
	C613.202087,586.309326 614.643005,588.231689 616.032227,588.384338 
	C620.233459,588.846130 624.517822,588.551270 628.812378,588.551270 
	C628.812378,561.261658 628.812378,534.692627 628.812378,508.162659 
	C623.430664,508.162659 618.373840,508.162659 613.077942,508.162659 
	C613.077942,516.523865 613.077942,524.511963 613.078125,533.500000 
M458.905212,551.931091 
	C458.123779,544.864136 458.252960,537.544434 456.375885,530.781555 
	C452.161041,515.595825 440.274536,506.820435 425.318298,506.543854 
	C408.199249,506.227356 396.174194,514.192261 390.679047,529.617065 
	C387.182037,539.433228 386.899323,549.556335 388.803436,559.663086 
	C392.371368,578.601196 405.148376,589.695190 423.035797,589.819153 
	C440.852631,589.942627 453.860565,578.910461 457.838104,560.218994 
	C458.355988,557.785278 458.537476,555.279907 458.905212,551.931091 
M803.499756,588.598328 
	C813.929443,588.598328 824.359131,588.598328 835.004272,588.598328 
	C835.004272,583.005066 835.004272,577.940063 835.004272,572.385498 
	C821.303284,572.385498 807.898132,572.385498 794.212402,572.385498 
	C794.212402,565.839172 794.212402,559.784729 794.212402,553.151489 
	C801.923279,553.151489 809.328674,553.151489 817.005066,553.151489 
	C817.589233,547.594055 818.115601,542.586548 818.698425,537.041931 
	C810.016174,537.041931 802.257080,537.041931 794.203979,537.041931 
	C794.203979,532.528992 794.203979,528.471252 794.203979,523.881104 
	C807.225220,523.881104 820.117249,523.881104 833.287354,523.881104 
	C833.287354,518.301147 833.287354,513.247925 833.287354,508.081268 
	C814.629395,508.081268 796.234253,508.081268 777.847534,508.081268 
	C777.847534,534.927246 777.847534,561.478638 777.847534,588.598328 
	C786.279053,588.598328 794.389343,588.598328 803.499756,588.598328 
M701.583435,566.231812 
	C702.157837,554.046509 697.841492,547.025757 686.602234,542.565186 
	C682.605591,540.979004 678.336792,540.085571 674.209595,538.819031 
	C670.245483,537.602600 666.118103,536.692078 662.434875,534.887146 
	C660.716736,534.045166 658.806946,531.338196 658.920715,529.603638 
	C659.053223,527.583069 660.896423,524.812500 662.732849,523.968994 
	C665.449829,522.721069 669.069214,521.916931 671.851135,522.648132 
	C677.626831,524.166138 683.104553,526.817688 689.762695,529.416077 
	C692.330566,526.695862 695.921997,522.891418 699.505676,519.095154 
	C689.339111,506.259155 667.426575,502.325958 653.062805,510.698944 
	C644.955017,515.425171 641.168030,522.537354 641.586548,531.863708 
	C642.015808,541.430847 647.048035,547.696106 655.858826,550.973022 
	C659.433044,552.302368 663.165649,553.205261 666.824036,554.309387 
	C671.115295,555.604492 675.457703,556.756775 679.677673,558.253723 
	C683.156311,559.487732 685.096313,562.065918 684.667053,565.948242 
	C684.248962,569.730591 681.970703,572.165100 678.369629,572.742310 
	C674.637695,573.340698 670.518066,574.224060 667.062073,573.242798 
	C661.019226,571.527100 655.354492,568.479919 648.798462,565.677429 
	C646.030273,568.155273 642.355591,571.444397 638.321838,575.054993 
	C639.911377,576.848816 641.064026,578.458313 642.510986,579.733826 
	C654.480408,590.284485 668.457825,591.730225 683.261230,588.102905 
	C694.499329,585.349243 699.982788,578.696167 701.583435,566.231812 
M746.304321,539.501221 
	C746.304321,534.405151 746.304321,529.309143 746.304321,523.740601 
	C754.265991,523.740601 761.674133,523.740601 769.247803,523.740601 
	C769.247803,518.207031 769.247803,513.163818 769.247803,508.086761 
	C748.355774,508.086761 727.792419,508.086761 707.202576,508.086761 
	C707.202576,513.434570 707.202576,518.479126 707.202576,524.029663 
	C714.976685,524.029663 722.386353,524.029663 730.301147,524.029663 
	C730.301147,545.746643 730.301147,566.951050 730.301147,588.232788 
	C735.874512,588.232788 740.911743,588.232788 746.304321,588.232788 
	C746.304321,572.082214 746.304321,556.291504 746.304321,539.501221 
M861.920837,580.313110 
	C861.920837,556.248596 861.920837,532.184143 861.920837,508.144928 
	C855.914001,508.144928 850.685181,508.144928 845.629883,508.144928 
	C845.629883,535.078979 845.629883,561.639709 845.629883,588.357910 
	C851.099731,588.357910 856.186768,588.357910 861.919983,588.357910 
	C861.919983,585.817932 861.919983,583.533569 861.920837,580.313110 
z"/>
<path fill="#E02A44" opacity="1.000000" stroke="none" 
	d="
M150.000000,492.993469 
	C168.999023,492.994202 187.499969,493.141235 205.995758,492.897095 
	C210.875488,492.832672 212.715775,494.036316 212.681305,499.269501 
	C212.467300,531.766418 212.507446,564.265625 212.647552,596.763306 
	C212.666946,601.260681 211.352097,602.835938 206.671143,602.810181 
	C173.840530,602.629517 141.008224,602.645996 108.177208,602.780823 
	C103.883308,602.798462 102.369560,601.565247 102.390404,597.110962 
	C102.544815,564.113525 102.528305,531.114624 102.392761,498.116943 
	C102.376633,494.191864 103.560570,492.888885 107.503220,492.939514 
	C121.500069,493.119263 135.500763,492.999664 150.000000,492.993469 
M163.479355,529.791809 
	C156.824249,529.795410 150.167862,529.877502 143.514618,529.768127 
	C140.381760,529.716675 139.032150,530.814453 139.087311,534.123230 
	C139.239868,543.271484 139.231567,552.425232 139.092636,561.573914 
	C139.044693,564.730713 140.041672,566.082825 143.352631,566.033813 
	C152.501343,565.898376 161.654816,565.900330 170.803391,566.042358 
	C174.012238,566.092224 175.279037,564.964539 175.213715,561.712402 
	C175.073441,554.727539 175.247116,547.737000 175.176208,540.749939 
	C175.046768,527.994873 176.800781,530.000000 163.479355,529.791809 
M156.500931,575.165588 
	C155.003677,575.165466 153.506409,575.165222 152.009155,575.165222 
	C138.727509,575.165588 138.834946,575.164062 139.020569,588.388672 
	C139.068375,591.795105 140.042816,593.171936 143.569962,593.061584 
	C149.885452,592.863953 156.211685,593.011353 162.533417,593.011841 
	C175.778793,593.012817 175.662094,593.015503 175.277405,579.606445 
	C175.174667,576.025940 173.803619,574.984192 170.473404,575.130737 
	C166.156540,575.320679 161.824692,575.170288 156.500931,575.165588 
M125.277092,566.026001 
	C128.643890,566.408936 130.122040,565.086121 130.014633,561.529236 
	C129.823761,555.209106 130.069229,548.876892 129.940826,542.553589 
	C129.636612,527.572876 132.809387,530.048157 116.504433,529.750488 
	C113.321541,529.692322 112.008766,530.840637 112.087418,534.111450 
	C112.243446,540.599976 112.126793,547.095032 112.126083,553.587402 
	C112.124718,566.038391 112.125656,566.038391 125.277092,566.026001 
M196.326599,529.771179 
	C194.495422,529.771973 192.644318,529.946655 190.837006,529.739380 
	C186.309738,529.220093 184.582291,530.944519 184.868362,535.622681 
	C185.233475,541.593140 184.952408,547.603088 184.951965,553.596008 
	C184.951019,566.399780 184.949936,566.248291 197.699356,566.109253 
	C201.787659,566.064636 202.885513,564.328979 202.842300,560.690552 
	C202.741470,552.201782 202.716629,543.709534 202.849991,535.221680 
	C202.912918,531.215820 201.433350,529.228577 196.326599,529.771179 
M155.501740,502.799561 
	C151.337646,502.809998 147.170944,502.917755 143.010132,502.805878 
	C137.954086,502.669983 138.613907,506.551453 139.289978,509.055359 
	C140.284363,512.738098 135.334473,519.234558 142.826843,519.858521 
	C152.255798,520.643677 161.850571,520.657471 171.277664,519.863098 
	C178.956894,519.216003 173.993393,512.538025 175.037476,508.734283 
	C175.786774,506.004517 175.896515,502.526337 170.989471,502.765747 
	C166.170868,503.000885 161.331268,502.805481 155.501740,502.799561 
M112.181137,577.955566 
	C112.164406,580.941589 112.403496,583.956238 112.072556,586.907043 
	C111.541084,591.645996 113.214745,593.229309 118.103416,593.122803 
	C130.155502,592.860107 130.000092,593.091614 130.053436,580.835327 
	C130.072220,576.519348 128.722870,574.699097 124.329697,575.129150 
	C121.700180,575.386536 119.001984,574.974060 116.380547,575.269653 
	C114.963005,575.429443 113.641861,576.444275 112.181137,577.955566 
M184.985229,590.166504 
	C185.563293,591.048706 186.104172,592.664612 186.725372,592.696106 
	C191.344208,592.930298 195.985931,592.981873 200.601883,592.738525 
	C201.367477,592.698120 202.499435,591.021484 202.689865,589.962219 
	C205.040863,576.885254 203.448624,575.006775 190.469513,575.182556 
	C189.807098,575.191528 188.920135,574.928101 188.523514,575.256836 
	C187.241440,576.319641 185.319214,577.482971 185.128891,578.819153 
	C184.643250,582.228638 184.961166,585.752502 184.985229,590.166504 
M129.802155,518.050354 
	C129.850739,514.245728 130.096497,510.427643 129.838806,506.643829 
	C129.750992,505.354706 128.475876,503.146973 127.607750,503.078552 
	C123.172249,502.728943 118.670349,502.718567 114.247711,503.155945 
	C113.416443,503.238220 112.178558,505.935211 112.269638,507.352264 
	C112.539787,511.555389 113.379982,515.721924 113.997307,519.902710 
	C119.164978,519.569885 124.332649,519.237122 129.802155,518.050354 
M188.276566,520.410522 
	C191.930313,520.421997 195.584045,520.443665 199.237793,520.441772 
	C202.101105,520.440369 203.237717,518.643311 202.731720,516.200684 
	C201.790268,511.655884 205.459000,506.302856 200.364639,502.519745 
	C200.136108,502.350067 199.715958,502.445465 199.386917,502.403107 
	C185.657211,500.636200 183.313416,502.780121 184.705231,516.304993 
	C184.849686,517.708618 186.495270,518.957764 188.276566,520.410522 
z"/>
<path fill="#F9F9F9" opacity="1.000000" stroke="none" 
	d="
M498.468109,520.138672 
	C499.518555,515.877563 500.475555,512.018738 501.470245,508.007935 
	C506.306244,508.007935 510.910400,508.007935 515.907410,508.007935 
	C519.688538,523.489807 523.455627,538.914307 527.222778,554.338806 
	C527.612976,554.361206 528.003174,554.383606 528.393433,554.406067 
	C531.185669,539.005981 533.977844,523.605957 536.801941,508.030151 
	C542.381287,508.030151 547.653503,508.030151 553.522278,508.030151 
	C553.068054,510.442139 552.686035,512.665466 552.228027,514.872986 
	C547.460022,537.855347 542.589111,560.817078 537.990173,583.833130 
	C537.202454,587.775452 535.531433,588.784119 531.683350,588.698181 
	C520.773621,588.454590 520.773499,588.633911 518.316040,578.135376 
	C515.470337,565.978394 512.626343,553.820984 509.750305,541.671204 
	C509.500000,540.613770 509.016449,539.611450 508.177856,537.314148 
	C505.604370,547.863770 503.338470,557.168701 501.063782,566.471497 
	C499.521667,572.778137 498.141296,579.133911 496.281403,585.345764 
	C495.876709,586.697449 493.795288,588.367920 492.384583,588.468567 
	C480.425323,589.322083 480.474731,589.211487 478.007233,577.294373 
	C473.619629,556.104065 469.152985,534.930115 464.730347,513.747070 
	C464.361786,511.981750 464.076416,510.199066 463.689880,508.081848 
	C469.429474,508.081848 474.835022,508.081848 480.728912,508.081848 
	C483.467438,523.629578 486.207367,539.185242 488.947266,554.740906 
	C489.307739,554.822021 489.668213,554.903137 490.028687,554.984192 
	C492.810669,543.503113 495.592651,532.022034 498.468109,520.138672 
z"/>
<path fill="#F9F9F9" opacity="1.000000" stroke="none" 
	d="
M247.164093,588.598328 
	C244.721725,588.598328 242.757126,588.598328 240.434128,588.598328 
	C240.434128,561.571899 240.434128,535.017517 240.434128,507.787994 
	C243.936081,507.787994 247.533997,507.786591 251.131912,507.788269 
	C260.957031,507.792755 270.787262,507.599396 280.606049,507.851105 
	C294.907196,508.217712 304.121735,517.336121 302.653809,530.417053 
	C302.098114,535.368958 299.044342,540.040405 296.800049,545.664673 
	C302.127930,548.726685 305.594757,554.488953 305.622040,562.302979 
	C305.671631,576.474243 297.672302,586.553894 283.560028,587.815918 
	C271.659119,588.880127 259.619873,588.396729 247.164093,588.598328 
M287.650940,557.112793 
	C285.697784,555.695312 283.805939,553.166016 281.780792,553.054321 
	C273.392578,552.591858 264.964020,552.860291 256.466309,552.860291 
	C256.466309,559.491516 256.466309,566.044983 256.466309,572.568604 
	C257.301849,572.746399 257.778168,572.934021 258.255341,572.936218 
	C264.251801,572.963989 270.249298,573.035156 276.244720,572.957214 
	C286.517303,572.823730 290.375549,567.808655 287.650940,557.112793 
M278.084412,522.838562 
	C270.865234,522.838562 263.646057,522.838562 256.539368,522.838562 
	C256.539368,528.221375 256.539368,532.905945 256.539368,537.811951 
	C263.766235,537.811951 270.551697,537.872131 277.335541,537.793274 
	C282.933990,537.728210 285.790802,535.518188 286.243927,531.150085 
	C286.705536,526.700195 284.679291,524.399170 278.084412,522.838562 
z"/>
<path fill="#FAFAFA" opacity="1.000000" stroke="none" 
	d="
M315.518188,584.546875 
	C315.517761,558.833191 315.517761,533.570496 315.517761,508.119659 
	C330.545654,508.119659 345.202087,507.354462 359.735748,508.361267 
	C371.404510,509.169586 378.752533,517.112793 380.764557,527.930542 
	C383.070282,540.327209 378.677277,550.077209 368.036011,556.207520 
	C367.465942,556.535950 366.943604,556.947266 366.118286,557.512085 
	C371.020477,567.521667 375.906311,577.497803 381.315826,588.543274 
	C374.963196,588.543274 369.267914,588.699280 363.597412,588.394348 
	C362.617523,588.341675 361.501678,586.458008 360.859253,585.208923 
	C357.130707,577.959473 353.403259,570.703918 349.940094,563.326294 
	C348.628815,560.532898 347.011932,559.304138 343.862762,559.532959 
	C340.098511,559.806519 336.299164,559.597534 332.079773,559.597534 
	C332.079773,569.491333 332.079773,578.758240 332.079773,588.589600 
	C327.205841,588.589600 322.746277,588.810547 318.339539,588.425842 
	C317.307343,588.335754 316.454163,586.195129 315.518188,584.546875 
M358.963867,538.146973 
	C360.704132,529.996643 358.557068,524.765381 352.271118,524.109436 
	C345.758728,523.429871 339.120300,523.958252 332.405823,523.958252 
	C332.405823,530.666992 332.405823,537.062927 332.405823,543.804321 
	C338.989685,543.804321 345.322083,544.267944 351.526245,543.578125 
	C354.038788,543.298767 356.271606,540.503540 358.963867,538.146973 
z"/>
<path fill="#F9F9F9" opacity="1.000000" stroke="none" 
	d="
M925.826294,520.036865 
	C925.826355,515.886230 925.826355,512.227661 925.826355,508.179138 
	C931.219543,508.179138 936.433655,508.179138 941.884277,508.179138 
	C941.884277,534.853821 941.884277,561.434631 941.884277,588.588257 
	C937.537048,588.588257 933.381714,588.925720 929.332275,588.418396 
	C927.762146,588.221741 926.076660,586.355652 925.046631,584.840210 
	C915.305359,570.509033 905.698059,556.086670 896.037415,541.700500 
	C895.335327,540.655029 894.517395,539.687439 893.000793,537.695007 
	C893.000793,555.186035 893.000793,571.511780 893.000793,588.217285 
	C887.442200,588.217285 882.374207,588.217285 876.905945,588.217285 
	C876.905945,561.587219 876.905945,535.006531 876.905945,507.794373 
	C881.382690,507.794373 886.020081,507.543274 890.600403,507.944458 
	C892.009521,508.067902 893.609985,509.738159 894.533508,511.099854 
	C903.886108,524.889771 913.114136,538.764160 922.385010,552.609558 
	C923.197876,553.823486 924.067200,554.999634 925.826233,557.490173 
	C925.826233,544.211243 925.826233,532.370056 925.826294,520.036865 
z"/>
<path fill="#F9F9F9" opacity="1.000000" stroke="none" 
	d="
M613.078003,533.000000 
	C613.077942,524.511963 613.077942,516.523865 613.077942,508.162659 
	C618.373840,508.162659 623.430664,508.162659 628.812378,508.162659 
	C628.812378,534.692627 628.812378,561.261658 628.812378,588.551270 
	C624.517822,588.551270 620.233459,588.846130 616.032227,588.384338 
	C614.643005,588.231689 613.202087,586.309326 612.236511,584.889038 
	C602.588196,570.696777 593.035278,556.439575 583.452148,542.203003 
	C582.622131,540.970032 581.768066,539.753174 580.092529,537.319153 
	C580.092529,555.045715 580.092529,571.475159 580.092529,588.245239 
	C574.365295,588.245239 569.302368,588.245239 563.874512,588.245239 
	C563.874512,561.520569 563.874512,534.946655 563.874512,507.795776 
	C568.468018,507.795776 573.111084,507.545654 577.697510,507.945465 
	C579.105530,508.068237 580.707031,509.733826 581.628601,511.093658 
	C591.162659,525.161804 600.572510,539.313965 610.028137,553.435242 
	C610.712036,554.456604 611.483154,555.419556 613.078125,557.581299 
	C613.078125,548.615417 613.078125,541.057739 613.078003,533.000000 
z"/>
<path fill="#F9F9F9" opacity="1.000000" stroke="none" 
	d="
M458.889984,552.369385 
	C458.537476,555.279907 458.355988,557.785278 457.838104,560.218994 
	C453.860565,578.910461 440.852631,589.942627 423.035797,589.819153 
	C405.148376,589.695190 392.371368,578.601196 388.803436,559.663086 
	C386.899323,549.556335 387.182037,539.433228 390.679047,529.617065 
	C396.174194,514.192261 408.199249,506.227356 425.318298,506.543854 
	C440.274536,506.820435 452.161041,515.595825 456.375885,530.781555 
	C458.252960,537.544434 458.123779,544.864136 458.889984,552.369385 
M435.613495,527.885254 
	C426.633453,520.104736 414.364655,521.026062 408.960602,530.588074 
	C402.534393,541.958679 402.464386,554.058594 409.106201,565.303955 
	C416.091034,577.130127 432.909851,576.361023 438.680054,563.931335 
	C444.250275,551.932312 443.994781,539.750916 435.613495,527.885254 
z"/>
<path fill="#F9F9F9" opacity="1.000000" stroke="none" 
	d="
M802.999695,588.598328 
	C794.389343,588.598328 786.279053,588.598328 777.847534,588.598328 
	C777.847534,561.478638 777.847534,534.927246 777.847534,508.081268 
	C796.234253,508.081268 814.629395,508.081268 833.287354,508.081268 
	C833.287354,513.247925 833.287354,518.301147 833.287354,523.881104 
	C820.117249,523.881104 807.225220,523.881104 794.203979,523.881104 
	C794.203979,528.471252 794.203979,532.528992 794.203979,537.041931 
	C802.257080,537.041931 810.016174,537.041931 818.698425,537.041931 
	C818.115601,542.586548 817.589233,547.594055 817.005066,553.151489 
	C809.328674,553.151489 801.923279,553.151489 794.212402,553.151489 
	C794.212402,559.784729 794.212402,565.839172 794.212402,572.385498 
	C807.898132,572.385498 821.303284,572.385498 835.004272,572.385498 
	C835.004272,577.940063 835.004272,583.005066 835.004272,588.598328 
	C824.359131,588.598328 813.929443,588.598328 802.999695,588.598328 
z"/>
<path fill="#F9F9F9" opacity="1.000000" stroke="none" 
	d="
M701.562012,566.675293 
	C699.982788,578.696167 694.499329,585.349243 683.261230,588.102905 
	C668.457825,591.730225 654.480408,590.284485 642.510986,579.733826 
	C641.064026,578.458313 639.911377,576.848816 638.321838,575.054993 
	C642.355591,571.444397 646.030273,568.155273 648.798462,565.677429 
	C655.354492,568.479919 661.019226,571.527100 667.062073,573.242798 
	C670.518066,574.224060 674.637695,573.340698 678.369629,572.742310 
	C681.970703,572.165100 684.248962,569.730591 684.667053,565.948242 
	C685.096313,562.065918 683.156311,559.487732 679.677673,558.253723 
	C675.457703,556.756775 671.115295,555.604492 666.824036,554.309387 
	C663.165649,553.205261 659.433044,552.302368 655.858826,550.973022 
	C647.048035,547.696106 642.015808,541.430847 641.586548,531.863708 
	C641.168030,522.537354 644.955017,515.425171 653.062805,510.698944 
	C667.426575,502.325958 689.339111,506.259155 699.505676,519.095154 
	C695.921997,522.891418 692.330566,526.695862 689.762695,529.416077 
	C683.104553,526.817688 677.626831,524.166138 671.851135,522.648132 
	C669.069214,521.916931 665.449829,522.721069 662.732849,523.968994 
	C660.896423,524.812500 659.053223,527.583069 658.920715,529.603638 
	C658.806946,531.338196 660.716736,534.045166 662.434875,534.887146 
	C666.118103,536.692078 670.245483,537.602600 674.209595,538.819031 
	C678.336792,540.085571 682.605591,540.979004 686.602234,542.565186 
	C697.841492,547.025757 702.157837,554.046509 701.562012,566.675293 
z"/>
<path fill="#FAFAFA" opacity="1.000000" stroke="none" 
	d="
M746.304321,540.000977 
	C746.304321,556.291504 746.304321,572.082214 746.304321,588.232788 
	C740.911743,588.232788 735.874512,588.232788 730.301147,588.232788 
	C730.301147,566.951050 730.301147,545.746643 730.301147,524.029663 
	C722.386353,524.029663 714.976685,524.029663 707.202576,524.029663 
	C707.202576,518.479126 707.202576,513.434570 707.202576,508.086761 
	C727.792419,508.086761 748.355774,508.086761 769.247803,508.086761 
	C769.247803,513.163818 769.247803,518.207031 769.247803,523.740601 
	C761.674133,523.740601 754.265991,523.740601 746.304321,523.740601 
	C746.304321,529.309143 746.304321,534.405151 746.304321,540.000977 
z"/>
<path fill="#F5F5F5" opacity="1.000000" stroke="none" 
	d="
M861.920410,580.781128 
	C861.919983,583.533569 861.919983,585.817932 861.919983,588.357910 
	C856.186768,588.357910 851.099731,588.357910 845.629883,588.357910 
	C845.629883,561.639709 845.629883,535.078979 845.629883,508.144928 
	C850.685181,508.144928 855.914001,508.144928 861.920837,508.144928 
	C861.920837,532.184143 861.920837,556.248596 861.920410,580.781128 
z"/>
<path fill="#312527" opacity="1.000000" stroke="none" 
	d="
M163.975342,529.791992 
	C176.800781,530.000000 175.046768,527.994873 175.176208,540.749939 
	C175.247116,547.737000 175.073441,554.727539 175.213715,561.712402 
	C175.279037,564.964539 174.012238,566.092224 170.803391,566.042358 
	C161.654816,565.900330 152.501343,565.898376 143.352631,566.033813 
	C140.041672,566.082825 139.044693,564.730713 139.092636,561.573914 
	C139.231567,552.425232 139.239868,543.271484 139.087311,534.123230 
	C139.032150,530.814453 140.381760,529.716675 143.514618,529.768127 
	C150.167862,529.877502 156.824249,529.795410 163.975342,529.791992 
z"/>
<path fill="#382427" opacity="1.000000" stroke="none" 
	d="
M157.000122,575.166016 
	C161.824692,575.170288 166.156540,575.320679 170.473404,575.130737 
	C173.803619,574.984192 175.174667,576.025940 175.277405,579.606445 
	C175.662094,593.015503 175.778793,593.012817 162.533417,593.011841 
	C156.211685,593.011353 149.885452,592.863953 143.569962,593.061584 
	C140.042816,593.171936 139.068375,591.795105 139.020569,588.388672 
	C138.834946,575.164062 138.727509,575.165588 152.009155,575.165222 
	C153.506409,575.165222 155.003677,575.165466 157.000122,575.166016 
z"/>
<path fill="#382427" opacity="1.000000" stroke="none" 
	d="
M124.803818,566.027832 
	C112.125656,566.038391 112.124718,566.038391 112.126083,553.587402 
	C112.126793,547.095032 112.243446,540.599976 112.087418,534.111450 
	C112.008766,530.840637 113.321541,529.692322 116.504433,529.750488 
	C132.809387,530.048157 129.636612,527.572876 129.940826,542.553589 
	C130.069229,548.876892 129.823761,555.209106 130.014633,561.529236 
	C130.122040,565.086121 128.643890,566.408936 124.803818,566.027832 
z"/>
<path fill="#382427" opacity="1.000000" stroke="none" 
	d="
M196.796127,529.772217 
	C201.433350,529.228577 202.912918,531.215820 202.849991,535.221680 
	C202.716629,543.709534 202.741470,552.201782 202.842300,560.690552 
	C202.885513,564.328979 201.787659,566.064636 197.699356,566.109253 
	C184.949936,566.248291 184.951019,566.399780 184.951965,553.596008 
	C184.952408,547.603088 185.233475,541.593140 184.868362,535.622681 
	C184.582291,530.944519 186.309738,529.220093 190.837006,529.739380 
	C192.644318,529.946655 194.495422,529.771973 196.796127,529.772217 
z"/>
<path fill="#312527" opacity="1.000000" stroke="none" 
	d="
M156.001312,502.799316 
	C161.331268,502.805481 166.170868,503.000885 170.989471,502.765747 
	C175.896515,502.526337 175.786774,506.004517 175.037476,508.734283 
	C173.993393,512.538025 178.956894,519.216003 171.277664,519.863098 
	C161.850571,520.657471 152.255798,520.643677 142.826843,519.858521 
	C135.334473,519.234558 140.284363,512.738098 139.289978,509.055359 
	C138.613907,506.551453 137.954086,502.669983 143.010132,502.805878 
	C147.170944,502.917755 151.337646,502.809998 156.001312,502.799316 
z"/>
<path fill="#382427" opacity="1.000000" stroke="none" 
	d="
M112.229187,577.514465 
	C113.641861,576.444275 114.963005,575.429443 116.380547,575.269653 
	C119.001984,574.974060 121.700180,575.386536 124.329697,575.129150 
	C128.722870,574.699097 130.072220,576.519348 130.053436,580.835327 
	C130.000092,593.091614 130.155502,592.860107 118.103416,593.122803 
	C113.214745,593.229309 111.541084,591.645996 112.072556,586.907043 
	C112.403496,583.956238 112.164406,580.941589 112.229187,577.514465 
z"/>
<path fill="#382427" opacity="1.000000" stroke="none" 
	d="
M184.971405,589.698608 
	C184.961166,585.752502 184.643250,582.228638 185.128891,578.819153 
	C185.319214,577.482971 187.241440,576.319641 188.523514,575.256836 
	C188.920135,574.928101 189.807098,575.191528 190.469513,575.182556 
	C203.448624,575.006775 205.040863,576.885254 202.689865,589.962219 
	C202.499435,591.021484 201.367477,592.698120 200.601883,592.738525 
	C195.985931,592.981873 191.344208,592.930298 186.725372,592.696106 
	C186.104172,592.664612 185.563293,591.048706 184.971405,589.698608 
z"/>
<path fill="#382427" opacity="1.000000" stroke="none" 
	d="
M129.651245,518.477295 
	C124.332649,519.237122 119.164978,519.569885 113.997307,519.902710 
	C113.379982,515.721924 112.539787,511.555389 112.269638,507.352264 
	C112.178558,505.935211 113.416443,503.238220 114.247711,503.155945 
	C118.670349,502.718567 123.172249,502.728943 127.607750,503.078552 
	C128.475876,503.146973 129.750992,505.354706 129.838806,506.643829 
	C130.096497,510.427643 129.850739,514.245728 129.651245,518.477295 
z"/>
<path fill="#382427" opacity="1.000000" stroke="none" 
	d="
M187.860474,520.344604 
	C186.495270,518.957764 184.849686,517.708618 184.705231,516.304993 
	C183.313416,502.780121 185.657211,500.636200 199.386917,502.403107 
	C199.715958,502.445465 200.136108,502.350067 200.364639,502.519745 
	C205.459000,506.302856 201.790268,511.655884 202.731720,516.200684 
	C203.237717,518.643311 202.101105,520.440369 199.237793,520.441772 
	C195.584045,520.443665 191.930313,520.421997 187.860474,520.344604 
M198.045059,504.096710 
	C196.052719,504.071747 194.037872,503.854187 192.075272,504.083527 
	C190.540649,504.262878 187.879868,504.814301 187.772690,505.514557 
	C187.229584,509.063690 186.870361,512.812866 187.562668,516.268372 
	C187.756104,517.233887 191.731613,517.799561 193.998184,517.889038 
	C196.172379,517.974854 198.779083,517.792358 200.463745,516.649170 
	C202.223770,515.454834 200.717316,506.393646 198.045059,504.096710 
z"/>
<path fill="#2F2F2F" opacity="1.000000" stroke="none" 
	d="
M287.824585,557.467468 
	C290.375549,567.808655 286.517303,572.823730 276.244720,572.957214 
	C270.249298,573.035156 264.251801,572.963989 258.255341,572.936218 
	C257.778168,572.934021 257.301849,572.746399 256.466309,572.568604 
	C256.466309,566.044983 256.466309,559.491516 256.466309,552.860291 
	C264.964020,552.860291 273.392578,552.591858 281.780792,553.054321 
	C283.805939,553.166016 285.697784,555.695312 287.824585,557.467468 
z"/>
<path fill="#2F2F2F" opacity="1.000000" stroke="none" 
	d="
M278.530823,522.868286 
	C284.679291,524.399170 286.705536,526.700195 286.243927,531.150085 
	C285.790802,535.518188 282.933990,537.728210 277.335541,537.793274 
	C270.551697,537.872131 263.766235,537.811951 256.539368,537.811951 
	C256.539368,532.905945 256.539368,528.221375 256.539368,522.838562 
	C263.646057,522.838562 270.865234,522.838562 278.530823,522.868286 
z"/>
<path fill="#2F2F2F" opacity="1.000000" stroke="none" 
	d="
M358.797791,538.500061 
	C356.271606,540.503540 354.038788,543.298767 351.526245,543.578125 
	C345.322083,544.267944 338.989685,543.804321 332.405823,543.804321 
	C332.405823,537.062927 332.405823,530.666992 332.405823,523.958252 
	C339.120300,523.958252 345.758728,523.429871 352.271118,524.109436 
	C358.557068,524.765381 360.704132,529.996643 358.797791,538.500061 
z"/>
<path fill="#2C2C2C" opacity="1.000000" stroke="none" 
	d="
M435.858978,528.156738 
	C443.994781,539.750916 444.250275,551.932312 438.680054,563.931335 
	C432.909851,576.361023 416.091034,577.130127 409.106201,565.303955 
	C402.464386,554.058594 402.534393,541.958679 408.960602,530.588074 
	C414.364655,521.026062 426.633453,520.104736 435.858978,528.156738 
z"/>
<path fill="#282828" opacity="1.000000" stroke="none" 
	d="
M198.479797,504.186371 
	C200.717316,506.393646 202.223770,515.454834 200.463745,516.649170 
	C198.779083,517.792358 196.172379,517.974854 193.998184,517.889038 
	C191.731613,517.799561 187.756104,517.233887 187.562668,516.268372 
	C186.870361,512.812866 187.229584,509.063690 187.772690,505.514557 
	C187.879868,504.814301 190.540649,504.262878 192.075272,504.083527 
	C194.037872,503.854187 196.052719,504.071747 198.479797,504.186371 
z"/>
</svg>