<?xml version="1.0" encoding="utf-8"?>
<svg version="1.1" id="IKEA_logo" xmlns="http://www.w3.org/2000/svg" xmlns:xlink="http://www.w3.org/1999/xlink" x="0px" y="0px"
	 viewBox="0 0 100 40" style="enable-background:new 0 0 100 40;" xml:space="preserve">
<style type="text/css">
	.st0{fill-rule:evenodd;clip-rule:evenodd;fill:#0058AB;}
	.st1{fill-rule:evenodd;clip-rule:evenodd;fill:#FBD914;}
	.st2{fill:#0058A3;}
</style>
<g id="logo">
	<g id="IKEA_Color">
		<polygon id="Shape" class="st0" points="100,40 0,40 0,0 100,0 100,40 		"/>
		<path id="path7" class="st1" d="M2,20c0,9.8,20.1,18,48,18c27.9,0,48-8.2,48-18S77.9,2,50,2C22.1,2,2,10.2,2,20z"/>
		<path id="path9" class="st2" d="M46.4,26c0.3,0.4,0.7,0.9,1.1,1.2H36.7c0-0.4-0.4-1.3-0.9-1.9c-0.5-0.7-2.9-4.4-2.9-4.4V26
			c0,0.4,0,0.8,0.2,1.2h-9c0.2-0.4,0.2-0.8,0.2-1.2V14c0-0.4,0-0.8-0.2-1.2h9c-0.2,0.4-0.2,0.8-0.2,1.2v5.2c0,0,2.9-3.7,3.5-4.5
			c0.5-0.6,1.1-1.6,1.1-2h9.4c-0.6,0.4-1.4,1.2-1.9,1.9c-0.5,0.6-3.4,4.1-3.4,4.1S45.9,25.2,46.4,26L46.4,26z M49.3,14v12
			c0,0.4,0,0.8-0.2,1.2h17.4v-4c-0.4,0.2-0.8,0.2-1.3,0.2h-7.3v-1.9h7v-3h-7v-1.9h7.3c0.4,0,0.8,0,1.3,0.2v-4H49.1
			C49.3,13.2,49.3,13.6,49.3,14z M90.6,26c0.1,0.5,0.4,0.9,0.7,1.2h-9.4c0-0.4-0.1-0.8-0.3-1.2c0,0-0.1-0.3-0.3-0.8L81.1,25h-5.4
			l-0.1,0.2c0,0-0.2,0.4-0.3,0.8s-0.3,0.8-0.2,1.2h-7.4c0.3-0.4,0.5-0.8,0.7-1.2l4.5-12c0.2-0.4,0.3-0.8,0.3-1.2h12.6
			c-0.1,0.4,0.1,0.8,0.3,1.2C86.2,14.9,90.3,25.2,90.6,26z M79.9,21.9l-1.3-3.4c-0.1-0.3-0.2-0.6-0.3-1c-0.1,0.3-0.1,0.6-0.3,1
			c0,0.1-0.6,1.6-1.2,3.4C76.8,21.9,79.9,21.9,79.9,21.9z M19.8,12.8H10c0.2,0.4,0.2,0.8,0.2,1.2v12c0,0.4,0,0.8-0.2,1.2h9.8
			c-0.2-0.4-0.2-0.8-0.2-1.2V14C19.6,13.6,19.6,13.2,19.8,12.8z M87.6,13.9c0-1,0.8-1.9,1.8-1.9h0.1c1.1,0,1.9,0.8,1.9,1.8v0.1
			c0,1-0.8,1.9-1.9,2C88.5,15.9,87.6,15.1,87.6,13.9C87.6,14,87.6,13.9,87.6,13.9L87.6,13.9z M88,13.9c0,0.8,0.7,1.5,1.6,1.5
			s1.6-0.7,1.6-1.5c0-0.8-0.7-1.5-1.6-1.5c-0.8,0-1.5,0.6-1.6,1.4C88,13.8,88,13.9,88,13.9z M89.1,15h-0.3v-2.3h0.9
			c0.4,0,0.7,0.3,0.7,0.7c0,0.3-0.2,0.5-0.4,0.7l0.5,0.9h-0.4l-0.5-0.8h-0.5C89.1,14.2,89.1,15,89.1,15z M89.1,13.9h0.5
			c0.2,0,0.4-0.2,0.4-0.4s-0.2-0.4-0.4-0.4h-0.5V13.9z"/>
	</g>
</g>
</svg>
