<svg version="1.1" id="Layer_1" xmlns="http://www.w3.org/2000/svg" xmlns:xlink="http://www.w3.org/1999/xlink" x="0px" y="0px"
	 width="100%" viewBox="0 0 200 200" enable-background="new 0 0 200 200" xml:space="preserve">
<path fill="#28344A" opacity="1.000000" stroke="none" 
	d="
M121.000000,201.000000 
	C80.691574,201.000000 40.883148,201.000000 1.037362,201.000000 
	C1.037362,134.399948 1.037362,67.799866 1.037362,1.099894 
	C67.558250,1.099894 134.116699,1.099894 200.837585,1.099894 
	C200.837585,67.666344 200.837585,134.333145 200.837585,201.000000 
	C174.466812,201.000000 147.983414,201.000000 121.000000,201.000000 
M184.253647,47.720978 
	C184.004578,45.913193 183.942932,44.055340 183.475586,42.305866 
	C180.747604,32.094082 172.047592,24.911730 161.528885,24.064924 
	C151.014908,23.218500 141.682297,28.675306 137.049133,38.695518 
	C125.962303,62.673164 114.989372,86.703453 103.952530,110.704239 
	C103.382263,111.944382 102.644745,113.107605 101.719780,114.788910 
	C100.895119,113.000656 100.408569,111.948334 99.924278,110.894974 
	C88.958351,87.043747 77.960182,63.207241 67.043190,39.333626 
	C62.781712,30.014494 55.710545,24.597029 45.461517,24.085493 
	C30.541906,23.340849 19.458118,34.378567 19.396820,49.985229 
	C19.283627,78.805000 19.357254,107.625519 19.371590,136.445724 
	C19.372150,137.576096 19.563786,138.706390 19.683538,140.025650 
	C28.461437,140.025650 37.025635,140.025650 46.059093,140.025650 
	C46.059093,112.926109 46.059093,86.083694 46.059093,59.241272 
	C47.572456,60.696148 48.340641,62.281960 49.075047,63.883266 
	C61.124924,90.156929 73.057335,116.485710 85.344749,142.647781 
	C87.095795,146.376053 89.972641,150.195160 93.350830,152.419464 
	C102.246025,158.276337 113.167534,154.210037 118.010643,143.739227 
	C130.356308,117.047882 142.591766,90.305565 154.882385,63.588722 
	C155.589539,62.051517 156.395187,60.559612 157.154999,59.046627 
	C157.436844,59.152603 157.718674,59.258579 158.000519,59.364555 
	C158.000519,98.447845 158.000519,137.531128 158.000519,176.812469 
	C166.847015,176.812469 175.401550,176.812469 184.281067,176.812469 
	C184.281067,133.903625 184.281067,91.286774 184.253647,47.720978 
M17.901213,164.282547 
	C19.633896,176.196213 31.114883,182.019379 40.727921,175.860245 
	C46.862263,171.929962 49.335251,164.336105 46.682636,157.575027 
	C44.269886,151.425308 37.219883,147.283875 30.700451,148.186493 
	C23.098232,149.239014 18.369257,154.858047 17.901213,164.282547 
z"/>
<path fill="#FDFDFD" opacity="1.000000" stroke="none" 
	d="
M184.267365,48.195454 
	C184.281067,91.286774 184.281067,133.903625 184.281067,176.812469 
	C175.401550,176.812469 166.847015,176.812469 158.000519,176.812469 
	C158.000519,137.531128 158.000519,98.447845 158.000519,59.364555 
	C157.718674,59.258579 157.436844,59.152603 157.154999,59.046627 
	C156.395187,60.559612 155.589539,62.051517 154.882385,63.588722 
	C142.591766,90.305565 130.356308,117.047882 118.010643,143.739227 
	C113.167534,154.210037 102.246025,158.276337 93.350830,152.419464 
	C89.972641,150.195160 87.095795,146.376053 85.344749,142.647781 
	C73.057335,116.485710 61.124924,90.156929 49.075047,63.883266 
	C48.340641,62.281960 47.572456,60.696148 46.059093,59.241272 
	C46.059093,86.083694 46.059093,112.926109 46.059093,140.025650 
	C37.025635,140.025650 28.461437,140.025650 19.683538,140.025650 
	C19.563786,138.706390 19.372150,137.576096 19.371590,136.445724 
	C19.357254,107.625519 19.283627,78.805000 19.396820,49.985229 
	C19.458118,34.378567 30.541906,23.340849 45.461517,24.085493 
	C55.710545,24.597029 62.781712,30.014494 67.043190,39.333626 
	C77.960182,63.207241 88.958351,87.043747 99.924278,110.894974 
	C100.408569,111.948334 100.895119,113.000656 101.719780,114.788910 
	C102.644745,113.107605 103.382263,111.944382 103.952530,110.704239 
	C114.989372,86.703453 125.962303,62.673164 137.049133,38.695518 
	C141.682297,28.675306 151.014908,23.218500 161.528885,24.064924 
	C172.047592,24.911730 180.747604,32.094082 183.475586,42.305866 
	C183.942932,44.055340 184.004578,45.913193 184.267365,48.195454 
z"/>
<path fill="#61A215" opacity="1.000000" stroke="none" 
	d="
M17.887115,163.855377 
	C18.369257,154.858047 23.098232,149.239014 30.700451,148.186493 
	C37.219883,147.283875 44.269886,151.425308 46.682636,157.575027 
	C49.335251,164.336105 46.862263,171.929962 40.727921,175.860245 
	C31.114883,182.019379 19.633896,176.196213 17.887115,163.855377 
z"/>
</svg>