<?xml version="1.0" encoding="utf-8"?>
<svg version="1.1" id="layer" xmlns="http://www.w3.org/2000/svg" xmlns:xlink="http://www.w3.org/1999/xlink"
     viewBox="13 18 200 200" width="256" height="256" xml:space="preserve" style="background-color:#449942" >
  <path fill="#FED203" d="M128,140.9c-7.5,5.5-19.4,6.6-27.8,2.3c-11-5.7-15.4-17.8-14.1-29.2c1.1-7.9,6.2-14.6,12.9-18.7
    c7.5-4.3,18.3-4.5,26.2-0.7c8.7,4.7,14.8,14,14.7,24.2C139.4,127.5,136.1,135.9,128,140.9z M202.3,122.6l-44.2-44.5l20.1-20
    l-60.1-0.2v-31.1l-44.4,44.1l-19.3-19.3l-0.1,60.7H21.8l43.7,43.9l-22.6,22.9h64.4l0.2,28.2l42.6-42.4l21.7,21.9l0.1-64.2H202.3z"/>
</svg>
