<svg version="1.2" xmlns="http://www.w3.org/2000/svg" viewBox="-40 0 1531 1223" width="1600" height="1600" style="background-color:#000">
	<path fill="#fff" fill-rule="evenodd" d="m482.9 496.5c-7.1 13.6-51.1 94.4-202.9 94.4-55.6 0-106.6-16.2-149.9-43.9l-2.6-2c-4.5-2.6-7.1-7.1-11.7-9-1.9-2.6-4.5-2.6-7.1-5.2-4.5-4.5-9-6.5-13.5-11l-2.6-2.6c-53-48.5-87.3-117.6-91.8-193.9v-16.1-4.6c2-4.5 2-10.9 2-16.1 4.5-53 23.2-101.5 52.9-140.3 25.9-39.4 60.1-73.6 106.7-98.8 142.8-80.8 412.9-42.1 567.4 1.9l76.2 18.7c202.9 50.4 484 165.5 708.3 110.6l16.1 62c-120.2 55.6-353.5 76.3-526 48.5-4.5 25.2-143.5 705.1-143.5 705.1-32.3 170.6-9 145.4 106.7 157.1l-14.3 71.1h-493.7l14.2-71.1c119.6-9.7 142.9-20.7 170.6-154.5l151.9-737.5-13.6-5.1c-170.6-57.5-454.3-170-602.2-87.3-45.9 32.3-76.3 85.3-76.3 145.4 0 98.9 78.8 177.1 175.8 177.1h11c-4.6-13.5-6.5-25.2-6.5-38.7 0-58.2 45.9-104.1 103.4-104.1 23.3 0 43.9 7.1 60.1 18.7 25.8 18.1 43.9 50.5 43.9 85.4 0 6.4 0 16.1-1.9 22.6 0 7.1-5.2 14.2-7.1 23.2z"/>
</svg>