<?xml version="1.0" encoding="utf-8"?>
<!-- Generator: Adobe Illustrator 14.0.0, SVG Export Plug-In . SVG Version: 6.00 Build 43363)  -->
<!DOCTYPE svg PUBLIC "-//W3C//DTD SVG 1.1//EN" "http://www.w3.org/Graphics/SVG/1.1/DTD/svg11.dtd">
<svg version="1.1" id="Layer_1" xmlns="http://www.w3.org/2000/svg" xmlns:xlink="http://www.w3.org/1999/xlink" x="0px" y="0px"
	 width="250px" height="39px" viewBox="0 0 250 39" enable-background="new 0 0 250 39" xml:space="preserve">
<g>
	<path fill-rule="evenodd" clip-rule="evenodd" d="M39.804,14.854c-1.315,0.184-3.021,0.629-4.334,1.368
		c-4.336,2.369-6.111,6.18-6.501,10.399c-0.179,1.962,0.319,4.663,2.202,6.255c2.096,1.774,6.643,1.739,8.775,1.072
		c4.156-1.369,7.248-4.811,8.49-9.362c0.569-2.184,0.214-5.513-1.243-7.253C45.132,14.854,41.58,14.594,39.804,14.854
		 M33.765,29.063c-0.178-2.294,1.314-9.769,4.902-11.361c1.102-0.518,2.771-0.739,3.909,0.112c1.42,1.072,1.457,2.774,1.42,3.478
		c-0.176,2.517-1.456,8.216-4.618,10.251c-0.958,0.592-3.02,0.852-3.979,0.334C34.333,31.284,33.871,30.321,33.765,29.063z"/>
	<path fill-rule="evenodd" clip-rule="evenodd" d="M59.767,8.209l-1.633,0.004l-5.954,2.713l-0.327,1.492
		c2.414-0.006,2.416,0.03,1.969,2.017l-3.28,16.103c-0.292,1.492-0.358,1.599-2.687,1.925l-0.323,1.562L56.796,34l0.324-1.563
		c-2.182-0.348-2.22-0.42-1.869-2.16L59.767,8.209"/>
	<path fill-rule="evenodd" clip-rule="evenodd" d="M127.436,16.935l0.484-2.13h-1.599l-6.009,2.664l-0.391,1.524
		c2.448,0,2.419,1.102,1.899,3.125l-1.939,8.446c-0.321,1.455-0.461,1.526-2.797,1.845l-0.355,1.563h9.299l0.355-1.563
		c-2.208-0.354-2.247-0.461-1.824-2.164l1.45-6.53c0.574-2.875,1.297-4.616,2.11-4.792c0.563-0.177,1.517-0.355,3.138,0.709
		c2.377,1.527,4.674-0.533,4.335-2.946c-0.125-0.851-0.783-1.667-1.428-1.953C131.979,13.847,129.173,15.265,127.436,16.935"/>
	<path fill-rule="evenodd" clip-rule="evenodd" d="M164.619,9.725h-1.523l-0.478,0.958c0,0-3.112,4.577-6.999,5.216l-0.253,2.12
		h2.681l-2.449,9.036c-0.548,2.448-1.323,4.78-0.444,5.951c1.099,1.526,4.975,1.495,6.241,0.963
		c1.406-0.568,2.743-1.214,3.991-2.563l-0.996-0.949c-1.103,1.325-3.599,1.414-4.04,0.704c-0.332-0.533-0.276-1.242,0.306-3.727
		l2.094-9.406h4.26l0.378-2.129h-2.592c-0.78,0-1.63,0.143-1.144-1.917L164.619,9.725"/>
	<path fill-rule="evenodd" clip-rule="evenodd" d="M181.176,24.879l-1.089,5.609c-0.371,1.738-0.378,1.596-2.703,1.914l-0.31,1.563
		h9.3l0.308-1.563c-2.219-0.354-2.224-0.46-1.888-2.163l1.383-7.454c0.384-2.129,0.935-4.47-0.559-5.855
		c-2.277-2.166-6.718-1.562-9.697,0.497l1.856-10.128h-1.633l-5.927,2.698l-0.312,1.491c2.216-0.344,2.434-0.742,2.216,1.179
		l-1.437,7.777l-1.956,10.046c-0.275,1.525-0.342,1.596-2.668,1.914l-0.31,1.563h9.265l0.309-1.563
		c-2.185-0.354-2.223-0.425-1.889-2.163l1.885-10.045c2.863-2.235,5.196-1.739,5.944-1.027
		C182.274,20.123,181.813,21.473,181.176,24.879"/>
	<g>
		<path fill-rule="evenodd" clip-rule="evenodd" d="M205.172,27.943l-1.421-0.742c-2.13,5.671-8.13,6.041-9.728,2.817
			c-0.71-1.445-0.71-4.188,0.354-6.893l12.069,0.04c0.563-4.21-0.992-6.601-3.051-7.64c-2.556-1.296-6.709-0.999-9.339,1.001
			c-4.152,3.15-5.628,7.784-5.628,10.415C188.429,36.209,201.728,37.061,205.172,27.943 M201.89,20.521h-6.284
			c1.101-2.002,2.38-2.745,3.019-2.966c0.817-0.295,1.775-0.295,2.45,0.222C201.569,18.186,202.211,18.853,201.89,20.521z"/>
	</g>
	<g>
		<path fill-rule="evenodd" clip-rule="evenodd" d="M23.844,10.667l-4.541,17.836c-0.818,3.195-1.385,3.48-4.26,3.728l-0.425,1.74
			h12.067l0.425-1.74c-2.732-0.247-3.336,0.32-2.343-3.761c0,0,4.176-16.566,4.25-16.954c5.212,0.89,8.521-0.959,11.284-3.171
			c0.591-0.472,0.603-1.423-0.031-1.474c-1.24-0.1-0.641,1.303-1.01,1.394c-5.471,1.365-9.765-0.874-14.615-2.081l-1.79-0.435
			C19.2,4.737,12.807,3.828,9.23,5.779c-2.822,1.518-4.055,4.408-4.214,6.144c-0.119,1.662,0.358,4.228,2.782,5.853
			c1.83,1.194,3.519,1.265,5.793,0.981c1.282-0.161,2.275-0.975,2.804-1.922c0.38-0.684,0.818-1.934-0.135-2.837
			c-0.636-0.649-1.392-0.76-2.027-0.687c-1.353,0.218-1.816,1.319-2.403,2.323c-0.775,0.677-2.129,0.682-2.884,0.32
			c-1.557-0.746-1.722-2.396-1.842-3.444c-0.16-1.302,0.656-3.043,2.008-3.803C12.171,7.008,19.789,9.294,23.844,10.667"/>
	</g>
	<path fill-rule="evenodd" clip-rule="evenodd" d="M70.938,8.182l-1.634,0.004l-5.952,2.713l-0.325,1.492
		c2.413-0.007,2.414,0.028,1.966,2.016l-3.279,16.104c-0.292,1.491-0.358,1.598-2.686,1.924l-0.323,1.562l9.263-0.023l0.323-1.563
		c-2.18-0.349-2.218-0.42-1.867-2.16L70.938,8.182"/>
	<path fill-rule="evenodd" clip-rule="evenodd" d="M144.248,14.827c-1.315,0.185-3.021,0.629-4.335,1.369
		c-4.334,2.369-6.11,6.18-6.501,10.398c-0.179,1.961,0.32,4.663,2.202,6.255c2.096,1.774,6.644,1.738,8.775,1.072
		c4.157-1.37,7.247-4.811,8.491-9.363c0.568-2.183,0.213-5.513-1.244-7.251C149.577,14.827,146.023,14.566,144.248,14.827
		 M138.208,29.036c-0.178-2.294,1.314-9.769,4.902-11.359c1.102-0.518,2.771-0.74,3.908,0.111c1.421,1.074,1.457,2.775,1.421,3.478
		c-0.177,2.517-1.456,8.216-4.618,10.251c-0.96,0.591-3.021,0.852-3.979,0.332C138.776,31.258,138.313,30.295,138.208,29.036z"/>
	<path fill-rule="evenodd" clip-rule="evenodd" d="M237.217,20.495l1.463-0.259l-0.713-5.165h-1.25l-0.643,0.556
		c-4.246-1.708-7.922-1.039-10.204,1.227c-1.534,1.487-2.178,3.902-1.857,5.388c0.501,2.379,3.392,3.494,5.033,3.977l0.783,0.259
		c0.536,0.149,3.177,0.744,3.712,2.08c0.286,0.671,0.144,1.6-0.321,2.23c-1.213,1.524-3.676,1.301-4.889,1.079
		c-1.177-0.149-4.211-2.081-4.924-4.497l-1.714,0.298l0.572,5.907h1.427l0.606-0.743c1.32,0.669,2.392,1.041,3.248,1.19
		c3.104,0.632,7.423,0.594,9.527-2.267c1.142-1.488,1.605-3.68,0.928-5.835c-0.821-2.637-4.068-3.641-5.709-4.161l-0.749-0.26
		c-0.929-0.297-2.749-0.706-3.104-1.784c-0.108-0.372-0.181-1.189,0.355-1.896c0.749-1.004,2.32-1.189,3.141-1.115
		C234.827,17.002,236.646,18.526,237.217,20.495"/>
	<path fill-rule="evenodd" clip-rule="evenodd" d="M96.448,5.938c-3.867-0.155-11.594-0.125-14.53,2.255
		c-2.742,2.205-3.139,4.878-2.861,6.938c0.397,2.602,2.146,4.228,4.492,4.987c1.086,0.557,4.907,0.47,6.533-0.564
		c1.142-0.727,2.087-1.542,1.922-2.883c-0.114-0.931-0.384-1.525-1.338-1.996c-0.672-0.331-1.629-0.251-2.187,0.074
		c-1.49,0.871-1.168,1.697-2.323,2.083c-1.191,0.397-2.206,0.442-3.204-0.32c-1.085-0.829-1.154-2.5-1.074-3.33
		c0.119-1.48,1.233-3.18,3.299-3.904c2.646-0.932,7.867-0.936,9.949-0.776c1.397,0.108,2.805,0.334,2.174,2.847L92.87,28.595
		c-0.815,3.141-1.453,3.42-4.291,3.665l-0.424,1.71h14.498c4.645,0,8.898,0.105,11.983-3.387c1.701-1.92,2.339-4.538,1.983-6.633
		c-0.389-2.373-2.304-4.224-4.465-5.026c4.041-0.663,6.025-2.514,6.699-5.027c0.355-1.396,0.036-3.667-0.886-4.888
		c-2.091-2.897-5.919-3.071-8.012-3.071H96.448 M97.657,31.106l2.906-11.345c2.801,0,6.558-0.104,8.188,1.013
		c1.383,0.977,1.878,2.479,1.702,3.874c-0.425,2.374-1.95,6.458-7.409,6.458H97.657z M103.47,8.451h1.559
		c4.396,0,5.957-0.209,7.304,1.151c1.027,1.047,0.921,2.479,0.567,3.702c-0.603,2.094-2.305,4.608-6.843,4.608h-4.997L103.47,8.451z
		"/>
	<path fill-rule="evenodd" clip-rule="evenodd" d="M216.038,16.891l0.484-2.13h-1.598l-6.008,2.662l-0.393,1.526
		c2.449,0,2.423,1.101,1.9,3.124l-1.938,8.447c-0.321,1.455-0.463,1.526-2.798,1.846l-0.354,1.561h9.299l0.354-1.561
		c-2.209-0.355-2.247-0.462-1.824-2.165l1.448-6.53c0.574-2.875,1.299-4.615,2.11-4.792c0.565-0.176,1.52-0.355,3.141,0.709
		c2.377,1.526,4.672-0.533,4.333-2.946c-0.125-0.851-0.782-1.668-1.428-1.951C220.582,13.803,217.775,15.223,216.038,16.891"/>
	<path d="M242.601,8.529c0.411,0,0.807,0.103,1.185,0.308c0.378,0.207,0.673,0.5,0.889,0.885c0.216,0.383,0.326,0.783,0.326,1.203
		c0,0.417-0.107,0.815-0.32,1.194c-0.21,0.378-0.506,0.672-0.885,0.884c-0.378,0.212-0.777,0.318-1.194,0.318
		c-0.416,0-0.815-0.105-1.193-0.318c-0.379-0.211-0.675-0.506-0.886-0.884c-0.212-0.379-0.318-0.777-0.318-1.194
		c0-0.419,0.109-0.82,0.324-1.203c0.217-0.385,0.513-0.678,0.89-0.885C241.796,8.632,242.19,8.529,242.601,8.529 M242.604,9.005
		c-0.33,0-0.646,0.083-0.948,0.248c-0.305,0.164-0.542,0.399-0.716,0.708c-0.176,0.308-0.262,0.631-0.262,0.968
		c0,0.334,0.085,0.653,0.255,0.958c0.169,0.304,0.407,0.541,0.713,0.712c0.304,0.17,0.623,0.255,0.958,0.255
		c0.336,0,0.656-0.085,0.96-0.255c0.303-0.171,0.541-0.408,0.711-0.712c0.172-0.305,0.258-0.625,0.258-0.958
		c0-0.337-0.088-0.66-0.262-0.968c-0.174-0.309-0.414-0.544-0.718-0.708C243.252,9.087,242.936,9.005,242.604,9.005z M241.52,12.209
		V9.672h0.516c0.484,0,0.756,0.001,0.813,0.005c0.172,0.015,0.305,0.049,0.4,0.101c0.094,0.054,0.173,0.134,0.236,0.244
		c0.064,0.109,0.097,0.23,0.097,0.363c0,0.183-0.06,0.339-0.18,0.471c-0.12,0.13-0.289,0.21-0.507,0.242
		c0.077,0.029,0.138,0.061,0.178,0.095c0.042,0.035,0.1,0.101,0.174,0.195c0.018,0.025,0.08,0.128,0.187,0.311l0.304,0.511h-0.641
		l-0.213-0.411c-0.146-0.278-0.264-0.452-0.357-0.523c-0.095-0.071-0.213-0.108-0.357-0.108h-0.134v1.042H241.52z M242.035,10.767
		h0.21c0.3,0,0.484-0.011,0.558-0.034c0.072-0.022,0.13-0.064,0.171-0.12c0.042-0.058,0.063-0.122,0.063-0.194
		c0-0.072-0.021-0.134-0.061-0.189c-0.04-0.055-0.1-0.094-0.175-0.118c-0.076-0.025-0.261-0.037-0.556-0.037h-0.21V10.767z"/>
</g>
</svg>
