<svg version="1.1" id="Layer_1" xmlns="http://www.w3.org/2000/svg" xmlns:xlink="http://www.w3.org/1999/xlink" x="0px" y="0px"
	 width="100%" viewBox="0 0 200 200" enable-background="new 0 0 200 200" xml:space="preserve">
<path fill="#f3f4f6" opacity="1.000000" stroke="none" 
	d="
M117.000000,201.000000 
	C78.024071,201.000000 39.548149,201.000000 1.036112,201.000000 
	C1.036112,134.399109 1.036112,67.798203 1.036112,1.098643 
	C67.559090,1.098643 134.118378,1.098643 200.838837,1.098643 
	C200.838837,67.666351 200.838837,134.333145 200.838837,201.000000 
	C173.131821,201.000000 145.315903,201.000000 117.000000,201.000000 
M4.040623,101.873627 
	C4.691116,106.478386 5.073597,111.140091 6.037758,115.678215 
	C10.600386,137.153595 20.922480,155.034027 39.337864,167.623276 
	C61.359280,182.677719 87.229767,180.619614 103.750694,162.638519 
	C109.189507,156.719025 111.791191,149.661850 111.646370,141.720291 
	C111.449005,130.897430 104.195816,124.824593 93.519218,126.602066 
	C89.129898,127.332825 84.912132,129.036713 80.551598,130.007050 
	C54.038105,135.907104 23.453226,123.157837 8.081672,99.174042 
	C6.891023,96.320526 5.700374,93.467018 4.144110,89.737274 
	C4.144110,94.208488 4.144110,97.613708 4.040623,101.873627 
M73.013573,11.422537 
	C53.093586,19.596106 37.641361,32.527725 29.703020,53.052280 
	C21.970716,73.044121 26.861946,92.565109 42.614010,105.961578 
	C48.313545,110.808792 55.118484,112.917404 62.475319,112.673203 
	C72.502197,112.340378 77.955063,106.069763 77.278656,96.041733 
	C77.112144,93.573204 76.868927,90.979965 75.978401,88.712082 
	C71.540688,77.410698 71.810104,65.811836 74.226753,54.316372 
	C78.629868,33.371731 88.052765,15.849226 109.082062,7.005752 
	C109.501167,6.829501 109.697701,6.123995 110.395821,5.058182 
	C97.237915,4.426126 85.371979,7.045998 73.013573,11.422537 
M117.376549,176.826828 
	C111.195564,185.574326 103.081841,191.846680 91.638939,196.054245 
	C94.583595,196.552277 96.131294,197.082474 97.659943,197.032257 
	C120.395416,196.285385 140.931000,189.496704 157.469315,173.436630 
	C172.636795,158.707733 180.795700,141.046555 175.940582,119.398903 
	C172.370056,103.478874 159.278259,91.193672 144.885864,89.411644 
	C131.870453,87.800110 123.912132,96.290009 126.622002,109.074814 
	C127.514351,113.284813 129.297760,117.327293 129.973465,121.558205 
	C133.134323,141.350021 128.457779,159.482590 117.376549,176.826828 
M93.727821,72.681992 
	C99.569435,79.143059 106.817680,78.699165 113.997017,76.155365 
	C124.526634,72.424492 135.159332,71.973770 145.970047,73.948349 
	C166.807205,77.754272 184.618668,86.220558 194.655685,106.317024 
	C195.067154,107.140869 195.391708,108.008110 195.756744,108.855133 
	C196.548111,108.460327 197.339478,108.065529 198.130844,107.670731 
	C197.096573,99.829529 196.825668,91.793846 194.886719,84.183128 
	C188.757797,60.126110 175.603134,41.234356 152.311661,30.855165 
	C131.937637,21.776066 110.463608,26.609051 97.016029,42.768227 
	C89.975372,51.228573 88.435188,63.260216 93.727821,72.681992 
z"/>
<path fill="#299599" opacity="1.000000" stroke="none" 
	d="
M73.375778,11.278728 
	C85.371979,7.045998 97.237915,4.426126 110.395821,5.058182 
	C109.697701,6.123995 109.501167,6.829501 109.082062,7.005752 
	C88.052765,15.849226 78.629868,33.371731 74.226753,54.316372 
	C71.810104,65.811836 71.540688,77.410698 75.978401,88.712082 
	C76.868927,90.979965 77.112144,93.573204 77.278656,96.041733 
	C77.955063,106.069763 72.502197,112.340378 62.475319,112.673203 
	C55.118484,112.917404 48.313545,110.808792 42.614010,105.961578 
	C26.861946,92.565109 21.970716,73.044121 29.703020,53.052280 
	C37.641361,32.527725 53.093586,19.596106 73.375778,11.278728 
z"/>
<path fill="#741745" opacity="1.000000" stroke="none" 
	d="
M117.592606,176.536285 
	C128.457779,159.482590 133.134323,141.350021 129.973465,121.558205 
	C129.297760,117.327293 127.514351,113.284813 126.622002,109.074814 
	C123.912132,96.290009 131.870453,87.800110 144.885864,89.411644 
	C159.278259,91.193672 172.370056,103.478874 175.940582,119.398903 
	C180.795700,141.046555 172.636795,158.707733 157.469315,173.436630 
	C140.931000,189.496704 120.395416,196.285385 97.659943,197.032257 
	C96.131294,197.082474 94.583595,196.552277 91.638939,196.054245 
	C103.081841,191.846680 111.195564,185.574326 117.592606,176.536285 
z"/>
<path fill="#234496" opacity="1.000000" stroke="none" 
	d="
M93.494919,72.387924 
	C88.435188,63.260216 89.975372,51.228573 97.016029,42.768227 
	C110.463608,26.609051 131.937637,21.776066 152.311661,30.855165 
	C175.603134,41.234356 188.757797,60.126110 194.886719,84.183128 
	C196.825668,91.793846 197.096573,99.829529 198.130844,107.670731 
	C197.339478,108.065529 196.548111,108.460327 195.756744,108.855133 
	C195.391708,108.008110 195.067154,107.140869 194.655685,106.317024 
	C184.618668,86.220558 166.807205,77.754272 145.970047,73.948349 
	C135.159332,71.973770 124.526634,72.424492 113.997017,76.155365 
	C106.817680,78.699165 99.569435,79.143059 93.494919,72.387924 
z"/>
<path fill="#1B2A53" opacity="1.000000" stroke="none" 
	d="
M8.168848,99.919823 
	C23.453226,123.157837 54.038105,135.907104 80.551598,130.007050 
	C84.912132,129.036713 89.129898,127.332825 93.519218,126.602066 
	C104.195816,124.824593 111.449005,130.897430 111.646370,141.720291 
	C111.791191,149.661850 109.189507,156.719025 103.750694,162.638519 
	C87.229767,180.619614 61.359280,182.677719 39.337864,167.623276 
	C20.922480,155.034027 10.600386,137.153595 6.037758,115.678215 
	C5.073597,111.140091 4.691116,106.478386 4.437968,101.391579 
	C5.946492,100.579628 7.057671,100.249725 8.168848,99.919823 
z"/>
<path fill="#323953" opacity="1.000000" stroke="none" 
	d="
M8.125260,99.546936 
	C7.057671,100.249725 5.946492,100.579628 4.489712,100.964233 
	C4.144110,97.613708 4.144110,94.208488 4.144110,89.737274 
	C5.700374,93.467018 6.891023,96.320526 8.125260,99.546936 
z"/>
</svg>